<svg xmlns="http://www.w3.org/2000/svg" viewBox="0 0 200 150" width="200" height="150">
  <!-- Background -->
  <rect x="0" y="0" width="200" height="150" rx="12" ry="12" fill="#efebe9"/>
  <!-- Brick wall -->
  <!-- Row 1 -->
  <rect x="20" y="45" width="38" height="16" rx="2" fill="#795548"/>
  <rect x="62" y="45" width="38" height="16" rx="2" fill="#795548"/>
  <rect x="104" y="45" width="38" height="16" rx="2" fill="#795548"/>
  <rect x="146" y="45" width="34" height="16" rx="2" fill="#795548"/>
  <!-- Row 2 (offset) -->
  <rect x="20" y="65" width="18" height="16" rx="2" fill="#4e342e"/>
  <rect x="42" y="65" width="38" height="16" rx="2" fill="#4e342e"/>
  <rect x="84" y="65" width="38" height="16" rx="2" fill="#4e342e"/>
  <rect x="126" y="65" width="38" height="16" rx="2" fill="#4e342e"/>
  <rect x="168" y="65" width="12" height="16" rx="2" fill="#4e342e"/>
  <!-- Row 3 -->
  <rect x="20" y="85" width="38" height="16" rx="2" fill="#795548"/>
  <rect x="62" y="85" width="38" height="16" rx="2" fill="#795548"/>
  <rect x="104" y="85" width="38" height="16" rx="2" fill="#795548"/>
  <rect x="146" y="85" width="34" height="16" rx="2" fill="#795548"/>
  <!-- Row 4 (offset, partial - being built) -->
  <rect x="20" y="105" width="18" height="16" rx="2" fill="#4e342e"/>
  <rect x="42" y="105" width="38" height="16" rx="2" fill="#4e342e"/>
  <rect x="84" y="105" width="38" height="16" rx="2" fill="#4e342e"/>
  <!-- Trowel -->
  <!-- Handle -->
  <rect x="142" y="15" width="6" height="22" rx="2" fill="#4e342e"/>
  <!-- Neck -->
  <rect x="143" y="35" width="4" height="6" fill="#795548" opacity="0.8"/>
  <!-- Blade (diamond/flat shape) -->
  <polygon points="130,41 145,38 160,41 145,58" fill="#795548"/>
  <!-- Mortar blob on trowel -->
  <ellipse cx="145" cy="46" rx="8" ry="4" fill="#efebe9" opacity="0.5"/>
  <!-- Mortar between bricks hint -->
  <line x1="20" y1="63" x2="180" y2="63" stroke="#efebe9" stroke-width="1" opacity="0.4"/>
  <line x1="20" y1="83" x2="180" y2="83" stroke="#efebe9" stroke-width="1" opacity="0.4"/>
  <line x1="20" y1="103" x2="180" y2="103" stroke="#efebe9" stroke-width="1" opacity="0.4"/>
</svg>