<svg xmlns="http://www.w3.org/2000/svg" width="200" height="150" viewBox="0 0 200 150">
  <rect width="200" height="150" rx="12" ry="12" fill="#efebe9"/>
  <!-- Bellows body -->
  <polygon points="30,55 30,105 95,80" fill="#795548" stroke="#4e342e" stroke-width="2"/>
  <!-- Bellows accordion folds -->
  <line x1="30" y1="60" x2="75" y2="68" stroke="#4e342e" stroke-width="1"/>
  <line x1="30" y1="70" x2="83" y2="72" stroke="#4e342e" stroke-width="1"/>
  <line x1="30" y1="80" x2="90" y2="78" stroke="#4e342e" stroke-width="1"/>
  <line x1="30" y1="90" x2="83" y2="83" stroke="#4e342e" stroke-width="1"/>
  <line x1="30" y1="100" x2="75" y2="88" stroke="#4e342e" stroke-width="1"/>
  <!-- Bellows handle top -->
  <rect x="15" y="48" width="20" height="8" rx="2" fill="#4e342e"/>
  <!-- Bellows handle bottom -->
  <rect x="15" y="104" width="20" height="8" rx="2" fill="#4e342e"/>
  <!-- Nozzle -->
  <rect x="95" y="76" width="20" height="8" rx="1" fill="#4e342e"/>
  <!-- Fire -->
  <path d="M130,110 Q125,85 135,70 Q140,60 138,50 Q145,65 150,60 Q148,75 155,70 Q152,85 160,80 Q155,95 165,90 Q158,110 130,110 Z" fill="#795548"/>
  <path d="M138,110 Q135,95 140,82 Q143,75 142,68 Q147,78 150,75 Q148,85 153,82 Q150,95 155,92 Q152,105 138,110 Z" fill="#4e342e" opacity="0.5"/>
  <!-- Air blast lines -->
  <line x1="115" y1="76" x2="128" y2="72" stroke="#795548" stroke-width="1.5" opacity="0.6"/>
  <line x1="115" y1="80" x2="130" y2="80" stroke="#795548" stroke-width="1.5" opacity="0.6"/>
  <line x1="115" y1="84" x2="128" y2="88" stroke="#795548" stroke-width="1.5" opacity="0.6"/>
  <!-- Ground -->
  <rect x="120" y="110" width="55" height="5" rx="2" fill="#4e342e"/>
</svg>