<svg xmlns="http://www.w3.org/2000/svg" viewBox="0 0 200 150" width="200" height="150">
  <!-- Background -->
  <rect x="0" y="0" width="200" height="150" rx="12" ry="12" fill="#efebe9"/>
  <!-- Ornate cabinet/armoire -->
  <!-- Main body -->
  <rect x="50" y="25" width="100" height="95" rx="4" fill="#795548"/>
  <!-- Inner panel border -->
  <rect x="56" y="31" width="88" height="83" rx="3" fill="#4e342e"/>
  <!-- Left door panel -->
  <rect x="60" y="35" width="38" height="75" rx="2" fill="#795548"/>
  <!-- Right door panel -->
  <rect x="102" y="35" width="38" height="75" rx="2" fill="#795548"/>
  <!-- Ornate inset on left door -->
  <rect x="66" y="42" width="26" height="28" rx="3" fill="#4e342e" opacity="0.5"/>
  <rect x="66" y="76" width="26" height="28" rx="3" fill="#4e342e" opacity="0.5"/>
  <!-- Ornate inset on right door -->
  <rect x="108" y="42" width="26" height="28" rx="3" fill="#4e342e" opacity="0.5"/>
  <rect x="108" y="76" width="26" height="28" rx="3" fill="#4e342e" opacity="0.5"/>
  <!-- Door knobs -->
  <circle cx="95" cy="72" r="2.5" fill="#4e342e"/>
  <circle cx="105" cy="72" r="2.5" fill="#4e342e"/>
  <!-- Crown molding top -->
  <rect x="45" y="20" width="110" height="8" rx="3" fill="#4e342e"/>
  <rect x="48" y="16" width="104" height="6" rx="2" fill="#795548"/>
  <!-- Decorative top finial -->
  <rect x="95" y="8" width="10" height="10" rx="5" fill="#4e342e"/>
  <!-- Feet/legs -->
  <rect x="55" y="120" width="8" height="12" rx="2" fill="#4e342e"/>
  <rect x="137" y="120" width="8" height="12" rx="2" fill="#4e342e"/>
  <!-- Curved bracket feet detail -->
  <ellipse cx="59" cy="132" rx="6" ry="3" fill="#4e342e" opacity="0.5"/>
  <ellipse cx="141" cy="132" rx="6" ry="3" fill="#4e342e" opacity="0.5"/>
  <!-- Decorative diamond on top center -->
  <polygon points="100,22 104,26 100,30 96,26" fill="#efebe9" opacity="0.4"/>
</svg>