<svg xmlns="http://www.w3.org/2000/svg" viewBox="0 0 200 150" width="200" height="150">
  <!-- Background -->
  <rect x="0" y="0" width="200" height="150" rx="12" ry="12" fill="#efebe9"/>
  <!-- Wood plank -->
  <rect x="25" y="80" width="150" height="22" rx="3" fill="#795548"/>
  <line x1="55" y1="80" x2="55" y2="102" stroke="#4e342e" stroke-width="1" opacity="0.4"/>
  <line x1="90" y1="80" x2="90" y2="102" stroke="#4e342e" stroke-width="1" opacity="0.4"/>
  <line x1="130" y1="80" x2="130" y2="102" stroke="#4e342e" stroke-width="1" opacity="0.4"/>
  <!-- Wood grain lines -->
  <line x1="30" y1="88" x2="50" y2="88" stroke="#4e342e" stroke-width="0.8" opacity="0.3"/>
  <line x1="60" y1="93" x2="85" y2="93" stroke="#4e342e" stroke-width="0.8" opacity="0.3"/>
  <line x1="135" y1="87" x2="170" y2="87" stroke="#4e342e" stroke-width="0.8" opacity="0.3"/>
  <!-- Second plank below -->
  <rect x="40" y="108" width="120" height="18" rx="3" fill="#795548" opacity="0.6"/>
  <line x1="75" y1="108" x2="75" y2="126" stroke="#4e342e" stroke-width="1" opacity="0.3"/>
  <line x1="115" y1="108" x2="115" y2="126" stroke="#4e342e" stroke-width="1" opacity="0.3"/>
  <!-- Hand saw -->
  <!-- Handle -->
  <rect x="40" y="30" width="28" height="16" rx="4" fill="#4e342e"/>
  <circle cx="50" cy="38" r="3" fill="#efebe9"/>
  <!-- Blade -->
  <polygon points="68,33 155,50 155,56 68,45" fill="#795548" opacity="0.8"/>
  <!-- Saw teeth -->
  <polyline points="68,45 73,48 78,45 83,48 88,45 93,48 98,45 103,48 108,45 113,48 118,45 123,48 128,45 133,48 138,45 143,48 148,45 153,48 155,56" fill="none" stroke="#4e342e" stroke-width="1.5"/>
  <!-- Sawdust particles -->
  <circle cx="145" cy="70" r="2" fill="#795548" opacity="0.4"/>
  <circle cx="155" cy="65" r="1.5" fill="#795548" opacity="0.3"/>
  <circle cx="150" cy="73" r="1" fill="#795548" opacity="0.35"/>
  <circle cx="160" cy="72" r="1.8" fill="#795548" opacity="0.25"/>
</svg>