<svg xmlns="http://www.w3.org/2000/svg" viewBox="0 0 200 150" width="200" height="150">
  <!-- Background -->
  <rect x="0" y="0" width="200" height="150" rx="12" ry="12" fill="#efebe9"/>
  <!-- Pipe horizontal -->
  <rect x="15" y="55" width="75" height="16" rx="3" fill="#795548"/>
  <!-- Pipe vertical -->
  <rect x="80" y="55" width="16" height="70" rx="3" fill="#795548"/>
  <!-- Pipe joint (elbow) -->
  <rect x="76" y="51" width="24" height="24" rx="5" fill="#4e342e"/>
  <!-- Pipe inner highlight -->
  <rect x="80" y="57" width="12" height="12" rx="3" fill="#795548"/>
  <!-- Second pipe section (horizontal right from bottom) -->
  <rect x="96" y="109" width="60" height="16" rx="3" fill="#795548"/>
  <!-- Joint at bottom right -->
  <rect x="84" y="105" width="24" height="24" rx="5" fill="#4e342e"/>
  <rect x="88" y="109" width="12" height="12" rx="3" fill="#795548"/>
  <!-- Wrench -->
  <!-- Handle -->
  <rect x="118" y="18" width="10" height="55" rx="3" fill="#4e342e" transform="rotate(35 123 45)"/>
  <!-- Wrench jaw top -->
  <path d="M 145,15 L 155,5 L 165,10 L 162,22 L 155,25 Z" fill="#4e342e" transform="rotate(35 155 15)"/>
  <!-- Wrench jaw bottom -->
  <path d="M 145,30 L 155,40 L 165,35 L 162,23 L 155,25 Z" fill="#4e342e" transform="rotate(35 155 32)"/>
  <!-- Wrench opening -->
  <rect x="153" y="18" width="6" height="10" rx="1" fill="#efebe9" transform="rotate(35 156 23)"/>
  <!-- Water drops -->
  <ellipse cx="42" cy="78" rx="3" ry="4" fill="#795548" opacity="0.35"/>
  <ellipse cx="50" cy="85" rx="2" ry="3" fill="#795548" opacity="0.25"/>
  <ellipse cx="35" cy="88" rx="2.5" ry="3.5" fill="#795548" opacity="0.3"/>
</svg>