<svg xmlns="http://www.w3.org/2000/svg" width="200" height="150" viewBox="0 0 200 150">
  <rect width="200" height="150" rx="12" ry="12" fill="#efebe9"/>
  <!-- Wooden beam -->
  <rect x="30" y="60" width="140" height="30" rx="3" fill="#795548"/>
  <line x1="40" y1="65" x2="40" y2="85" stroke="#4e342e" stroke-width="1"/>
  <line x1="55" y1="65" x2="55" y2="85" stroke="#4e342e" stroke-width="1"/>
  <line x1="70" y1="65" x2="70" y2="85" stroke="#4e342e" stroke-width="1"/>
  <line x1="85" y1="65" x2="85" y2="85" stroke="#4e342e" stroke-width="1"/>
  <line x1="100" y1="65" x2="100" y2="85" stroke="#4e342e" stroke-width="1"/>
  <line x1="115" y1="65" x2="115" y2="85" stroke="#4e342e" stroke-width="1"/>
  <!-- Saw -->
  <rect x="120" y="35" width="4" height="30" rx="1" fill="#4e342e"/>
  <rect x="112" y="28" width="20" height="10" rx="3" fill="#795548" stroke="#4e342e" stroke-width="1.5"/>
  <polygon points="124,65 160,50 160,55 124,70" fill="#4e342e"/>
  <polyline points="128,67 132,63 136,67 140,63 144,67 148,63 152,67 156,63 160,52" stroke="#efebe9" stroke-width="1" fill="none"/>
  <!-- Wood shavings -->
  <path d="M50,95 Q60,100 55,110" stroke="#795548" stroke-width="2" fill="none"/>
  <path d="M70,92 Q80,98 72,108" stroke="#795548" stroke-width="2" fill="none"/>
  <path d="M90,96 Q100,102 95,112" stroke="#795548" stroke-width="2" fill="none"/>
  <circle cx="60" cy="100" r="2" fill="#795548"/>
  <circle cx="80" cy="105" r="1.5" fill="#795548"/>
  <circle cx="45" cy="108" r="1.5" fill="#795548"/>
</svg>