<svg xmlns="http://www.w3.org/2000/svg" viewBox="0 0 200 150" width="200" height="150">
  <!-- Background -->
  <rect x="0" y="0" width="200" height="150" rx="12" ry="12" fill="#efebe9"/>
  <!-- Anvil -->
  <!-- Base -->
  <rect x="55" y="110" width="70" height="10" rx="2" fill="#4e342e"/>
  <!-- Body -->
  <polygon points="65,110 70,75 110,75 115,110" fill="#4e342e"/>
  <!-- Top face -->
  <rect x="55" y="70" width="80" height="10" rx="3" fill="#795548"/>
  <!-- Horn (pointed end) -->
  <polygon points="55,70 55,80 30,78" fill="#795548"/>
  <!-- Hammer above anvil -->
  <!-- Handle -->
  <rect x="108" y="20" width="5" height="42" rx="2" fill="#795548" transform="rotate(25 110 41)"/>
  <!-- Hammer head -->
  <rect x="96" y="14" width="30" height="14" rx="3" fill="#4e342e" transform="rotate(25 111 21)"/>
  <!-- Spark effects -->
  <line x1="85" y1="62" x2="78" y2="50" stroke="#795548" stroke-width="2" stroke-linecap="round" opacity="0.6"/>
  <line x1="95" y1="60" x2="95" y2="47" stroke="#795548" stroke-width="2" stroke-linecap="round" opacity="0.5"/>
  <line x1="105" y1="62" x2="112" y2="50" stroke="#795548" stroke-width="2" stroke-linecap="round" opacity="0.6"/>
  <!-- Small spark dots -->
  <circle cx="75" cy="46" r="2" fill="#795548" opacity="0.5"/>
  <circle cx="98" cy="42" r="2" fill="#795548" opacity="0.4"/>
  <circle cx="115" cy="45" r="1.5" fill="#795548" opacity="0.5"/>
  <!-- Ground shadow -->
  <ellipse cx="90" cy="125" rx="50" ry="4" fill="#795548" opacity="0.15"/>
</svg>