<svg xmlns="http://www.w3.org/2000/svg" width="200" height="150" viewBox="0 0 200 150">
  <rect width="200" height="150" rx="12" ry="12" fill="#efebe9"/>
  <!-- Trophy cup -->
  <path d="M70,45 Q65,70 75,85 L80,90 L120,90 L125,85 Q135,70 130,45 Z" fill="#795548" stroke="#4e342e" stroke-width="2"/>
  <!-- Trophy rim -->
  <ellipse cx="100" cy="45" rx="32" ry="6" fill="#795548" stroke="#4e342e" stroke-width="1.5"/>
  <!-- Trophy handles -->
  <path d="M70,55 Q55,55 52,65 Q50,75 60,80" stroke="#4e342e" stroke-width="3" fill="none"/>
  <path d="M130,55 Q145,55 148,65 Q150,75 140,80" stroke="#4e342e" stroke-width="3" fill="none"/>
  <!-- Trophy stem -->
  <rect x="94" y="90" width="12" height="15" fill="#4e342e"/>
  <!-- Trophy base -->
  <rect x="78" y="105" width="44" height="8" rx="3" fill="#4e342e"/>
  <rect x="72" y="113" width="56" height="8" rx="3" fill="#795548" stroke="#4e342e" stroke-width="1"/>
  <!-- Crown on trophy -->
  <polygon points="85,45 88,30 93,40 100,25 107,40 112,30 115,45" fill="#4e342e"/>
  <!-- Sparkles -->
  <polygon points="45,30 47,25 49,30 54,32 49,34 47,39 45,34 40,32" fill="#795548"/>
  <polygon points="155,28 157,23 159,28 164,30 159,32 157,37 155,32 150,30" fill="#795548"/>
  <polygon points="50,90 52,86 54,90 58,92 54,94 52,98 50,94 46,92" fill="#795548" opacity="0.6"/>
  <polygon points="150,85 152,81 154,85 158,87 154,89 152,93 150,89 146,87" fill="#795548" opacity="0.6"/>
  <polygon points="100,10 101,7 102,10 105,11 102,12 101,15 100,12 97,11" fill="#4e342e"/>
  <!-- Small sparkle dots -->
  <circle cx="38" cy="50" r="1.5" fill="#795548" opacity="0.5"/>
  <circle cx="162" cy="55" r="1.5" fill="#795548" opacity="0.5"/>
  <circle cx="100" cy="5" r="1" fill="#4e342e" opacity="0.5"/>
</svg>