<svg xmlns="http://www.w3.org/2000/svg" viewBox="0 0 200 150" width="200" height="150">
  <!-- Background -->
  <rect x="0" y="0" width="200" height="150" rx="12" ry="12" fill="#efebe9"/>
  <!-- Main tent -->
  <!-- Tent body -->
  <polygon points="100,12 25,85 175,85" fill="#795548"/>
  <!-- Tent front opening / inner shade -->
  <polygon points="100,20 40,85 160,85" fill="#4e342e" opacity="0.4"/>
  <!-- Tent walls below roof -->
  <rect x="25" y="85" width="150" height="40" rx="0" fill="#795548" opacity="0.85"/>
  <!-- Entrance opening -->
  <rect x="70" y="85" width="60" height="40" rx="0" fill="#4e342e" opacity="0.5"/>
  <!-- Entrance arch hint -->
  <path d="M 70,125 L 70,95 Q 70,85 100,85 Q 130,85 130,95 L 130,125" fill="#4e342e" opacity="0.3"/>
  <!-- Tent peak decoration -->
  <polygon points="96,10 104,10 102,18 98,18" fill="#4e342e"/>
  <!-- Flag/pennant on top -->
  <rect x="99" y="2" width="2" height="12" fill="#4e342e"/>
  <polygon points="101,2 115,6 101,10" fill="#795548" opacity="0.7"/>
  <!-- Side tent / booth left -->
  <polygon points="15,55 5,90 45,90" fill="#795548" opacity="0.5"/>
  <rect x="5" y="90" width="40" height="28" fill="#795548" opacity="0.4"/>
  <!-- Side tent / booth right -->
  <polygon points="185,55 195,90 155,90" fill="#795548" opacity="0.5"/>
  <rect x="155" y="90" width="40" height="28" fill="#795548" opacity="0.4"/>
  <!-- Display tables inside entrance hint -->
  <rect x="78" y="105" width="18" height="3" rx="1" fill="#efebe9" opacity="0.4"/>
  <rect x="104" y="108" width="16" height="3" rx="1" fill="#efebe9" opacity="0.3"/>
  <!-- Small items on display -->
  <rect x="80" y="101" width="5" height="4" rx="1" fill="#efebe9" opacity="0.3"/>
  <rect x="88" y="102" width="4" height="3" rx="1" fill="#efebe9" opacity="0.25"/>
  <rect x="107" y="104" width="6" height="4" rx="1" fill="#efebe9" opacity="0.3"/>
  <!-- Bunting / decorative triangles across front -->
  <polygon points="45,78 50,85 40,85" fill="#4e342e" opacity="0.5"/>
  <polygon points="60,73 65,80 55,80" fill="#efebe9" opacity="0.3"/>
  <polygon points="75,69 80,76 70,76" fill="#4e342e" opacity="0.5"/>
  <polygon points="90,66 95,73 85,73" fill="#efebe9" opacity="0.3"/>
  <polygon points="110,66 115,73 105,73" fill="#4e342e" opacity="0.5"/>
  <polygon points="125,69 130,76 120,76" fill="#efebe9" opacity="0.3"/>
  <polygon points="140,73 145,80 135,80" fill="#4e342e" opacity="0.5"/>
  <polygon points="155,78 160,85 150,85" fill="#efebe9" opacity="0.3"/>
  <!-- Ground line -->
  <rect x="5" y="125" width="190" height="3" rx="1" fill="#795548" opacity="0.2"/>
</svg>