<svg xmlns="http://www.w3.org/2000/svg" width="200" height="150" viewBox="0 0 200 150">
  <rect width="200" height="150" rx="12" ry="12" fill="#efebe9"/>
  <!-- Laurel wreath left -->
  <path d="M40,75 Q50,45 70,30" stroke="#795548" stroke-width="2" fill="none"/>
  <ellipse cx="45" cy="68" rx="5" ry="10" fill="#795548" transform="rotate(-20,45,68)"/>
  <ellipse cx="50" cy="55" rx="5" ry="10" fill="#795548" transform="rotate(-30,50,55)"/>
  <ellipse cx="58" cy="44" rx="5" ry="10" fill="#795548" transform="rotate(-40,58,44)"/>
  <ellipse cx="68" cy="35" rx="5" ry="9" fill="#795548" transform="rotate(-55,68,35)"/>
  <!-- Laurel wreath right -->
  <path d="M160,75 Q150,45 130,30" stroke="#795548" stroke-width="2" fill="none"/>
  <ellipse cx="155" cy="68" rx="5" ry="10" fill="#795548" transform="rotate(20,155,68)"/>
  <ellipse cx="150" cy="55" rx="5" ry="10" fill="#795548" transform="rotate(30,150,55)"/>
  <ellipse cx="142" cy="44" rx="5" ry="10" fill="#795548" transform="rotate(40,142,44)"/>
  <ellipse cx="132" cy="35" rx="5" ry="9" fill="#795548" transform="rotate(55,132,35)"/>
  <!-- Bottom wreath leaves -->
  <ellipse cx="48" cy="82" rx="5" ry="9" fill="#795548" transform="rotate(10,48,82)"/>
  <ellipse cx="55" cy="92" rx="5" ry="9" fill="#795548" transform="rotate(20,55,92)"/>
  <ellipse cx="152" cy="82" rx="5" ry="9" fill="#795548" transform="rotate(-10,152,82)"/>
  <ellipse cx="145" cy="92" rx="5" ry="9" fill="#795548" transform="rotate(-20,145,92)"/>
  <!-- Compass -->
  <circle cx="90" cy="75" r="18" fill="none" stroke="#4e342e" stroke-width="2"/>
  <!-- Compass legs -->
  <line x1="90" y1="57" x2="78" y2="95" stroke="#4e342e" stroke-width="2.5"/>
  <line x1="90" y1="57" x2="102" y2="95" stroke="#4e342e" stroke-width="2.5"/>
  <!-- Compass pivot -->
  <circle cx="90" cy="57" r="3" fill="#4e342e"/>
  <!-- Square (right angle tool) -->
  <polyline points="110,55 110,95 140,95" stroke="#4e342e" stroke-width="3" fill="none"/>
  <!-- Square inner mark -->
  <polyline points="110,85 120,85 120,95" stroke="#4e342e" stroke-width="1.5" fill="none"/>
</svg>