<svg xmlns="http://www.w3.org/2000/svg" viewBox="0 0 200 150" width="200" height="150">
  <rect width="200" height="150" rx="8" fill="#fff3e0"/>
  <!-- Tornado funnel -->
  <path d="M70,16 Q100,16 130,16 Q140,30 128,40 Q112,50 118,60 Q130,70 120,80 Q108,90 112,100 Q116,110 106,120 Q100,128 96,120 Q90,110 94,100 Q100,90 88,80 Q78,70 90,60 Q100,50 80,40 Q68,30 70,16 Z"
        fill="#ef6c00" opacity="0.2" stroke="#ef6c00" stroke-width="2"/>
  <!-- Inner funnel layers -->
  <path d="M80,20 Q100,20 120,20 Q128,32 118,40 Q108,48 112,56 Q120,64 112,72 Q104,80 108,88 Q112,96 104,104 Q100,110 98,104 Q94,96 98,88 Q104,80 94,72 Q86,64 96,56 Q104,48 90,40 Q82,32 80,20 Z"
        fill="#ef6c00" opacity="0.15"/>
  <path d="M90,24 Q100,24 110,24 Q116,34 110,40 Q104,46 108,52 Q114,58 108,64 Q102,70 106,76 Q108,82 102,88 Q100,92 98,88 Q96,82 100,76 Q104,70 98,64 Q92,58 98,52 Q104,46 96,40 Q90,34 90,24 Z"
        fill="#ef6c00" opacity="0.12"/>
  <!-- Debris flying -->
  <rect x="130" y="30" width="8" height="4" rx="1" fill="#ef6c00" opacity="0.3" transform="rotate(30, 134, 32)"/>
  <rect x="140" y="50" width="6" height="3" rx="1" fill="#ef6c00" opacity="0.25" transform="rotate(-20, 143, 51)"/>
  <rect x="50" y="40" width="7" height="3" rx="1" fill="#ef6c00" opacity="0.25" transform="rotate(15, 53, 41)"/>
  <rect x="55" y="60" width="5" height="3" rx="1" fill="#ef6c00" opacity="0.2" transform="rotate(-25, 57, 61)"/>
  <circle cx="145" cy="38" r="3" fill="#ef6c00" opacity="0.2"/>
  <circle cx="52" cy="52" r="2.5" fill="#ef6c00" opacity="0.2"/>
  <circle cx="135" cy="68" r="2" fill="#ef6c00" opacity="0.15"/>
  <!-- Flood water at base -->
  <path d="M10,125 Q30,118 50,125 Q70,132 90,125 Q110,118 130,125 Q150,132 170,125 Q190,118 200,125 L200,150 L0,150 Z"
        fill="#ef6c00" opacity="0.15"/>
  <path d="M0,132 Q20,125 40,132 Q60,139 80,132 Q100,125 120,132 Q140,139 160,132 Q180,125 200,132 L200,150 L0,150 Z"
        fill="#ef6c00" opacity="0.1"/>
  <!-- Rain lines -->
  <line x1="24" y1="10" x2="20" y2="26" stroke="#ef6c00" stroke-width="1.5" opacity="0.2"/>
  <line x1="40" y1="6" x2="36" y2="22" stroke="#ef6c00" stroke-width="1.5" opacity="0.15"/>
  <line x1="155" y1="8" x2="151" y2="24" stroke="#ef6c00" stroke-width="1.5" opacity="0.2"/>
  <line x1="170" y1="14" x2="166" y2="30" stroke="#ef6c00" stroke-width="1.5" opacity="0.15"/>
  <line x1="180" y1="4" x2="176" y2="20" stroke="#ef6c00" stroke-width="1.5" opacity="0.18"/>
  <line x1="30" y1="70" x2="26" y2="86" stroke="#ef6c00" stroke-width="1.5" opacity="0.12"/>
  <line x1="165" y1="80" x2="161" y2="96" stroke="#ef6c00" stroke-width="1.5" opacity="0.12"/>
  <!-- Lightning bolt -->
  <polygon points="160,6 152,28 160,28 148,50 156,50 140,72 164,38 154,38 166,18 158,18"
           fill="#ef6c00" opacity="0.3"/>
</svg>
