<svg xmlns="http://www.w3.org/2000/svg" width="200" height="150" viewBox="0 0 200 150">
  <rect width="200" height="150" rx="12" ry="12" fill="#fff3e0"/>
  <!-- Alarm bell body -->
  <path d="M70,50 Q70,30 100,25 Q130,30 130,50 L135,85 L65,85Z" fill="#ef6c00"/>
  <!-- Bell opening -->
  <ellipse cx="100" cy="88" rx="38" ry="8" fill="#e65100"/>
  <!-- Bell clapper -->
  <line x1="100" y1="70" x2="100" y2="92" stroke="#e65100" stroke-width="3"/>
  <circle cx="100" cy="93" r="5" fill="#e65100"/>
  <!-- Bell top mount -->
  <rect x="94" y="18" width="12" height="10" rx="3" ry="3" fill="#e65100"/>
  <circle cx="100" cy="16" r="5" fill="#e65100"/>
  <!-- Sound waves - left -->
  <path d="M58,55 Q50,65 58,80" fill="none" stroke="#ef6c00" stroke-width="3" stroke-linecap="round" opacity="0.7"/>
  <path d="M48,48 Q38,65 48,87" fill="none" stroke="#ef6c00" stroke-width="3" stroke-linecap="round" opacity="0.5"/>
  <path d="M38,42 Q26,65 38,93" fill="none" stroke="#ef6c00" stroke-width="3" stroke-linecap="round" opacity="0.3"/>
  <!-- Sound waves - right -->
  <path d="M142,55 Q150,65 142,80" fill="none" stroke="#ef6c00" stroke-width="3" stroke-linecap="round" opacity="0.7"/>
  <path d="M152,48 Q162,65 152,87" fill="none" stroke="#ef6c00" stroke-width="3" stroke-linecap="round" opacity="0.5"/>
  <path d="M162,42 Q174,65 162,93" fill="none" stroke="#ef6c00" stroke-width="3" stroke-linecap="round" opacity="0.3"/>
</svg>