<svg xmlns="http://www.w3.org/2000/svg" viewBox="0 0 200 150" width="200" height="150">
  <!-- Background -->
  <rect x="0" y="0" width="200" height="150" rx="12" ry="12" fill="#fff3e0"/>

  <!-- Detailed Fire Truck - Camion de Pompiers -->
  <!-- Main truck body -->
  <rect x="18" y="58" width="148" height="42" rx="3" fill="#ef6c00"/>

  <!-- Cab section -->
  <rect x="134" y="38" width="38" height="62" rx="5" fill="#e65100"/>
  <!-- Windshield -->
  <rect x="140" y="44" width="26" height="20" rx="3" fill="#fff3e0" opacity="0.7"/>
  <!-- Windshield divider -->
  <line x1="153" y1="44" x2="153" y2="64" stroke="#e65100" stroke-width="1.5"/>
  <!-- Door line -->
  <line x1="134" y1="68" x2="172" y2="68" stroke="#ef6c00" stroke-width="1" opacity="0.5"/>
  <!-- Door handle -->
  <rect x="142" y="72" width="6" height="2" rx="1" fill="#fff3e0" opacity="0.4"/>
  <!-- Side mirror -->
  <rect x="130" y="48" width="6" height="4" rx="1" fill="#e65100"/>

  <!-- Roof light bar -->
  <rect x="138" y="32" width="30" height="8" rx="3" fill="#ef6c00"/>
  <!-- Light beacons -->
  <rect x="142" y="30" width="8" height="5" rx="2" fill="#fff3e0" opacity="0.8"/>
  <rect x="156" y="30" width="8" height="5" rx="2" fill="#fff3e0" opacity="0.8"/>

  <!-- Equipment compartments -->
  <rect x="24" y="64" width="24" height="28" rx="2" fill="#e65100" opacity="0.7"/>
  <rect x="52" y="64" width="24" height="28" rx="2" fill="#e65100" opacity="0.7"/>
  <rect x="80" y="64" width="24" height="28" rx="2" fill="#e65100" opacity="0.7"/>
  <rect x="108" y="64" width="22" height="28" rx="2" fill="#e65100" opacity="0.7"/>
  <!-- Compartment handles -->
  <rect x="33" y="78" width="6" height="2" rx="1" fill="#fff3e0" opacity="0.5"/>
  <rect x="61" y="78" width="6" height="2" rx="1" fill="#fff3e0" opacity="0.5"/>
  <rect x="89" y="78" width="6" height="2" rx="1" fill="#fff3e0" opacity="0.5"/>
  <rect x="116" y="78" width="6" height="2" rx="1" fill="#fff3e0" opacity="0.5"/>

  <!-- Aerial ladder -->
  <!-- Ladder rails -->
  <rect x="22" y="50" width="108" height="3" rx="1" fill="#e65100"/>
  <rect x="22" y="56" width="108" height="3" rx="1" fill="#e65100"/>
  <!-- Ladder rungs -->
  <rect x="32" y="50" width="2" height="9" fill="#fff3e0" opacity="0.4"/>
  <rect x="46" y="50" width="2" height="9" fill="#fff3e0" opacity="0.4"/>
  <rect x="60" y="50" width="2" height="9" fill="#fff3e0" opacity="0.4"/>
  <rect x="74" y="50" width="2" height="9" fill="#fff3e0" opacity="0.4"/>
  <rect x="88" y="50" width="2" height="9" fill="#fff3e0" opacity="0.4"/>
  <rect x="102" y="50" width="2" height="9" fill="#fff3e0" opacity="0.4"/>
  <rect x="116" y="50" width="2" height="9" fill="#fff3e0" opacity="0.4"/>

  <!-- Bumper -->
  <rect x="14" y="100" width="162" height="6" rx="3" fill="#e65100"/>
  <!-- Front bumper extension -->
  <rect x="166" y="96" width="12" height="10" rx="2" fill="#e65100"/>
  <!-- Headlight -->
  <circle cx="174" cy="92" r="3" fill="#fff3e0" opacity="0.7"/>

  <!-- Rear taillight -->
  <rect x="14" y="90" width="4" height="8" rx="1" fill="#e65100" opacity="0.8"/>

  <!-- Wheels -->
  <circle cx="46" cy="108" r="14" fill="#e65100"/>
  <circle cx="46" cy="108" r="9" fill="#fff3e0" opacity="0.2"/>
  <circle cx="46" cy="108" r="4" fill="#e65100"/>

  <circle cx="90" cy="108" r="14" fill="#e65100"/>
  <circle cx="90" cy="108" r="9" fill="#fff3e0" opacity="0.2"/>
  <circle cx="90" cy="108" r="4" fill="#e65100"/>

  <circle cx="156" cy="108" r="14" fill="#e65100"/>
  <circle cx="156" cy="108" r="9" fill="#fff3e0" opacity="0.2"/>
  <circle cx="156" cy="108" r="4" fill="#e65100"/>

  <!-- Ground line -->
  <line x1="10" y1="122" x2="190" y2="122" stroke="#e65100" stroke-width="2" opacity="0.25"/>

  <!-- Hose reel detail on top -->
  <circle cx="40" cy="48" r="5" fill="#e65100" opacity="0.5"/>
  <circle cx="40" cy="48" r="2" fill="#fff3e0" opacity="0.3"/>
</svg>