<svg xmlns="http://www.w3.org/2000/svg" width="200" height="150" viewBox="0 0 200 150">
  <rect width="200" height="150" rx="12" ry="12" fill="#fff3e0"/>
  <!-- Left epaulette -->
  <path d="M30,55 L30,95 Q30,105 45,105 L70,105 Q80,105 80,95 L80,55 Q80,45 55,45 Q30,45 30,55Z" fill="#ef6c00"/>
  <rect x="35" y="50" width="40" height="50" rx="3" ry="3" fill="#e65100" opacity="0.5"/>
  <!-- Left epaulette stripes -->
  <line x1="38" y1="60" x2="72" y2="60" stroke="#fff3e0" stroke-width="3"/>
  <line x1="38" y1="70" x2="72" y2="70" stroke="#fff3e0" stroke-width="3"/>
  <line x1="38" y1="80" x2="72" y2="80" stroke="#fff3e0" stroke-width="3"/>
  <!-- Right epaulette -->
  <path d="M120,55 L120,95 Q120,105 135,105 L160,105 Q170,105 170,95 L170,55 Q170,45 145,45 Q120,45 120,55Z" fill="#ef6c00"/>
  <rect x="125" y="50" width="40" height="50" rx="3" ry="3" fill="#e65100" opacity="0.5"/>
  <!-- Right epaulette stripes -->
  <line x1="128" y1="60" x2="162" y2="60" stroke="#fff3e0" stroke-width="3"/>
  <line x1="128" y1="70" x2="162" y2="70" stroke="#fff3e0" stroke-width="3"/>
  <line x1="128" y1="80" x2="162" y2="80" stroke="#fff3e0" stroke-width="3"/>
  <!-- Center flame emblem -->
  <path d="M100,25 Q108,35 108,45 Q108,55 100,60 Q92,55 92,45 Q92,35 100,25Z" fill="#e65100"/>
  <path d="M100,32 Q105,38 105,45 Q105,52 100,55 Q95,52 95,45 Q95,38 100,32Z" fill="#ef6c00"/>
  <path d="M100,40 Q103,44 103,48 Q103,52 100,54 Q97,52 97,48 Q97,44 100,40Z" fill="#fff3e0"/>
</svg>