<svg xmlns="http://www.w3.org/2000/svg" width="200" height="150" viewBox="0 0 200 150">
  <rect width="200" height="150" rx="12" ry="12" fill="#fff3e0"/>
  <!-- Fire station building -->
  <rect x="35" y="40" width="130" height="90" rx="4" ry="4" fill="#ef6c00"/>
  <!-- Roof -->
  <polygon points="25,40 100,10 175,40" fill="#e65100"/>
  <!-- Garage door 1 -->
  <rect x="45" y="75" width="45" height="50" rx="3" ry="3" fill="#fff3e0"/>
  <!-- Garage door segments -->
  <line x1="45" y1="87" x2="90" y2="87" stroke="#ef6c00" stroke-width="1"/>
  <line x1="45" y1="99" x2="90" y2="99" stroke="#ef6c00" stroke-width="1"/>
  <line x1="45" y1="111" x2="90" y2="111" stroke="#ef6c00" stroke-width="1"/>
  <!-- Garage door 2 -->
  <rect x="110" y="75" width="45" height="50" rx="3" ry="3" fill="#fff3e0"/>
  <!-- Garage door segments -->
  <line x1="110" y1="87" x2="155" y2="87" stroke="#ef6c00" stroke-width="1"/>
  <line x1="110" y1="99" x2="155" y2="99" stroke="#ef6c00" stroke-width="1"/>
  <line x1="110" y1="111" x2="155" y2="111" stroke="#ef6c00" stroke-width="1"/>
  <!-- Windows above -->
  <rect x="55" y="48" width="15" height="18" rx="2" ry="2" fill="#fff3e0"/>
  <rect x="92" y="48" width="15" height="18" rx="2" ry="2" fill="#fff3e0"/>
  <rect x="130" y="48" width="15" height="18" rx="2" ry="2" fill="#fff3e0"/>
  <!-- Small emblem on roof -->
  <circle cx="100" cy="28" r="6" fill="#fff3e0"/>
  <circle cx="100" cy="28" r="4" fill="#ef6c00"/>
</svg>