<svg xmlns="http://www.w3.org/2000/svg" viewBox="0 0 200 150" width="200" height="150">
  <!-- Background -->
  <rect x="0" y="0" width="200" height="150" rx="12" ry="12" fill="#fff3e0"/>

  <!-- Fire Helmet - Sapeur-Pompier -->
  <!-- Helmet dome -->
  <ellipse cx="100" cy="62" rx="38" ry="28" fill="#ef6c00"/>
  <!-- Helmet top ridge -->
  <rect x="82" y="34" width="36" height="8" rx="4" fill="#e65100"/>
  <!-- Helmet brim -->
  <path d="M55 72 Q60 80 80 82 L120 82 Q140 80 145 72 L148 68 Q140 76 120 78 L80 78 Q60 76 52 68 Z" fill="#e65100"/>
  <!-- Rear neck guard -->
  <path d="M60 72 Q58 82 62 92 L68 92 Q64 82 66 74 Z" fill="#ef6c00"/>
  <path d="M140 72 Q142 82 138 92 L132 92 Q136 82 134 74 Z" fill="#ef6c00"/>
  <!-- Face shield -->
  <rect x="80" y="72" width="40" height="20" rx="4" fill="#e65100" opacity="0.5"/>
  <!-- Helmet emblem (cross) -->
  <rect x="95" y="48" width="10" height="16" rx="2" fill="#fff3e0"/>
  <rect x="91" y="52" width="18" height="8" rx="2" fill="#fff3e0"/>
  <!-- Chin strap -->
  <line x1="72" y1="82" x2="72" y2="100" stroke="#e65100" stroke-width="3" stroke-linecap="round"/>
  <line x1="128" y1="82" x2="128" y2="100" stroke="#e65100" stroke-width="3" stroke-linecap="round"/>
  <line x1="72" y1="100" x2="128" y2="100" stroke="#e65100" stroke-width="3" stroke-linecap="round"/>

  <!-- Decorative flame accents -->
  <path d="M30 120 Q32 108 36 115 Q38 105 42 118 Q44 110 46 120 Z" fill="#ef6c00" opacity="0.4"/>
  <path d="M154 120 Q156 108 160 115 Q162 105 166 118 Q168 110 170 120 Z" fill="#ef6c00" opacity="0.4"/>
</svg>