<svg xmlns="http://www.w3.org/2000/svg" width="200" height="150" viewBox="0 0 200 150">
  <rect width="200" height="150" rx="12" ry="12" fill="#fff3e0"/>
  <!-- Gas pipe horizontal -->
  <rect x="15" y="68" width="70" height="14" rx="4" ry="4" fill="#e65100"/>
  <!-- Gas pipe vertical section -->
  <rect x="78" y="40" width="14" height="42" rx="4" ry="4" fill="#e65100"/>
  <!-- Pipe joint -->
  <rect x="74" y="65" width="22" height="20" rx="3" ry="3" fill="#e65100"/>
  <!-- Pipe valve -->
  <circle cx="40" cy="68" r="6" fill="#ef6c00"/>
  <rect x="37" y="58" width="6" height="10" rx="1" ry="1" fill="#ef6c00"/>
  <!-- Crack/break in pipe -->
  <path d="M82,48 L88,42 L84,50 L90,45" fill="none" stroke="#fff3e0" stroke-width="2"/>
  <!-- Explosion burst -->
  <polygon points="100,35 115,20 108,38 130,15 112,40 140,30 115,48 145,45 118,55 138,60 110,58 130,75 105,62 115,85 98,65 90,88 95,60 75,78 92,55 65,55 88,48 70,35 92,42 85,18 100,35" fill="#ef6c00"/>
  <!-- Inner explosion -->
  <polygon points="100,40 112,30 106,42 125,25 110,45 130,40 112,50 128,55 108,54 122,65 105,58 112,75 100,60 95,72 97,56 82,65 95,52 78,48 93,46 82,35 97,42 92,25 100,40" fill="#fff3e0" opacity="0.6"/>
  <!-- Core -->
  <circle cx="105" cy="48" r="8" fill="#e65100" opacity="0.7"/>
  <!-- Debris fragments -->
  <rect x="145" y="20" width="6" height="4" rx="1" ry="1" fill="#e65100" opacity="0.6" transform="rotate(30 148 22)"/>
  <rect x="150" y="55" width="5" height="3" rx="1" ry="1" fill="#e65100" opacity="0.5" transform="rotate(-15 152 56)"/>
  <rect x="60" y="18" width="5" height="3" rx="1" ry="1" fill="#e65100" opacity="0.5" transform="rotate(45 62 19)"/>
  <circle cx="155" cy="35" r="3" fill="#ef6c00" opacity="0.4"/>
  <circle cx="65" cy="30" r="2" fill="#ef6c00" opacity="0.4"/>
</svg>