<svg xmlns="http://www.w3.org/2000/svg" width="200" height="150" viewBox="0 0 200 150">
  <rect width="200" height="150" rx="12" ry="12" fill="#fff3e0"/>
  <!-- Dispatch console desk -->
  <rect x="30" y="90" width="140" height="40" rx="4" ry="4" fill="#ef6c00"/>
  <!-- Left screen -->
  <rect x="38" y="30" width="35" height="55" rx="3" ry="3" fill="#e65100"/>
  <rect x="41" y="33" width="29" height="42" rx="2" ry="2" fill="#fff3e0"/>
  <!-- Center screen (larger) -->
  <rect x="80" y="25" width="40" height="60" rx="3" ry="3" fill="#e65100"/>
  <rect x="83" y="28" width="34" height="47" rx="2" ry="2" fill="#fff3e0"/>
  <!-- Right screen -->
  <rect x="127" y="30" width="35" height="55" rx="3" ry="3" fill="#e65100"/>
  <rect x="130" y="33" width="29" height="42" rx="2" ry="2" fill="#fff3e0"/>
  <!-- Screen content lines -->
  <line x1="45" y1="42" x2="65" y2="42" stroke="#ef6c00" stroke-width="2"/>
  <line x1="45" y1="50" x2="60" y2="50" stroke="#ef6c00" stroke-width="2"/>
  <line x1="45" y1="58" x2="63" y2="58" stroke="#ef6c00" stroke-width="2"/>
  <circle cx="100" cy="48" r="8" fill="none" stroke="#ef6c00" stroke-width="2"/>
  <circle cx="100" cy="48" r="3" fill="#ef6c00"/>
  <line x1="134" y1="42" x2="154" y2="42" stroke="#ef6c00" stroke-width="2"/>
  <line x1="134" y1="50" x2="149" y2="50" stroke="#ef6c00" stroke-width="2"/>
  <line x1="134" y1="58" x2="152" y2="58" stroke="#ef6c00" stroke-width="2"/>
  <!-- Keyboard on desk -->
  <rect x="75" y="95" width="50" height="12" rx="2" ry="2" fill="#fff3e0"/>
</svg>