<svg xmlns="http://www.w3.org/2000/svg" width="200" height="150" viewBox="0 0 200 150">
  <rect width="200" height="150" rx="12" ry="12" fill="#fff3e0"/>
  <!-- Truck body -->
  <rect x="50" y="105" width="130" height="28" rx="4" ry="4" fill="#ef6c00"/>
  <!-- Truck cab -->
  <rect x="145" y="90" width="35" height="43" rx="4" ry="4" fill="#e65100"/>
  <!-- Cab window -->
  <rect x="152" y="94" width="20" height="14" rx="2" ry="2" fill="#fff3e0"/>
  <!-- Wheels -->
  <circle cx="80" cy="136" r="8" fill="#e65100"/>
  <circle cx="80" cy="136" r="4" fill="#fff3e0"/>
  <circle cx="120" cy="136" r="8" fill="#e65100"/>
  <circle cx="120" cy="136" r="4" fill="#fff3e0"/>
  <circle cx="165" cy="136" r="8" fill="#e65100"/>
  <circle cx="165" cy="136" r="4" fill="#fff3e0"/>
  <!-- Turntable base -->
  <circle cx="85" cy="105" r="8" fill="#e65100"/>
  <!-- Extended aerial ladder going up -->
  <!-- Left rail -->
  <line x1="80" y1="105" x2="35" y2="12" stroke="#ef6c00" stroke-width="3"/>
  <!-- Right rail -->
  <line x1="90" y1="105" x2="45" y2="12" stroke="#ef6c00" stroke-width="3"/>
  <!-- Rungs -->
  <line x1="79" y1="98" x2="89" y2="98" stroke="#ef6c00" stroke-width="2"/>
  <line x1="76" y1="88" x2="86" y2="88" stroke="#ef6c00" stroke-width="2"/>
  <line x1="73" y1="78" x2="83" y2="78" stroke="#ef6c00" stroke-width="2"/>
  <line x1="70" y1="68" x2="80" y2="68" stroke="#ef6c00" stroke-width="2"/>
  <line x1="67" y1="58" x2="77" y2="58" stroke="#ef6c00" stroke-width="2"/>
  <line x1="64" y1="48" x2="74" y2="48" stroke="#ef6c00" stroke-width="2"/>
  <line x1="61" y1="38" x2="71" y2="38" stroke="#ef6c00" stroke-width="2"/>
  <line x1="58" y1="28" x2="68" y2="28" stroke="#ef6c00" stroke-width="2"/>
  <line x1="55" y1="18" x2="65" y2="18" stroke="#ef6c00" stroke-width="2"/>
  <!-- Platform/basket at top -->
  <rect x="30" y="8" width="20" height="10" rx="2" ry="2" fill="#e65100"/>
</svg>