<svg xmlns="http://www.w3.org/2000/svg" width="200" height="150" viewBox="0 0 200 150">
  <rect width="200" height="150" rx="12" ry="12" fill="#eceff1"/>
  <!-- Bell curve -->
  <path d="M20 120 Q40 118 55 110 Q70 95 80 70 Q90 40 100 30 Q110 40 120 70 Q130 95 145 110 Q160 118 180 120" fill="none" stroke="#37474f" stroke-width="3"/>
  <!-- Shaded area under curve -->
  <path d="M20 120 Q40 118 55 110 Q70 95 80 70 Q90 40 100 30 Q110 40 120 70 Q130 95 145 110 Q160 118 180 120 Z" fill="#546e7a" opacity="0.2"/>
  <!-- Standard deviation lines -->
  <line x1="100" y1="25" x2="100" y2="125" stroke="#546e7a" stroke-width="1" stroke-dasharray="4 3"/>
  <line x1="70" y1="25" x2="70" y2="125" stroke="#546e7a" stroke-width="0.8" stroke-dasharray="3 3" opacity="0.5"/>
  <line x1="130" y1="25" x2="130" y2="125" stroke="#546e7a" stroke-width="0.8" stroke-dasharray="3 3" opacity="0.5"/>
  <!-- X axis -->
  <line x1="15" y1="120" x2="185" y2="120" stroke="#546e7a" stroke-width="1.5"/>
  <!-- Data points scattered -->
  <circle cx="45" cy="116" r="3" fill="#37474f"/>
  <circle cx="60" cy="108" r="3" fill="#37474f"/>
  <circle cx="75" cy="85" r="3" fill="#37474f"/>
  <circle cx="88" cy="55" r="3" fill="#37474f"/>
  <circle cx="95" cy="38" r="3" fill="#37474f"/>
  <circle cx="105" cy="35" r="3" fill="#37474f"/>
  <circle cx="115" cy="58" r="3" fill="#37474f"/>
  <circle cx="125" cy="80" r="3" fill="#37474f"/>
  <circle cx="140" cy="105" r="3" fill="#37474f"/>
  <circle cx="160" cy="117" r="3" fill="#37474f"/>
  <!-- Sigma-like markers on axis -->
  <line x1="70" y1="120" x2="70" y2="125" stroke="#37474f" stroke-width="1.5"/>
  <line x1="100" y1="120" x2="100" y2="125" stroke="#37474f" stroke-width="1.5"/>
  <line x1="130" y1="120" x2="130" y2="125" stroke="#37474f" stroke-width="1.5"/>
</svg>