<svg xmlns="http://www.w3.org/2000/svg" width="200" height="150" viewBox="0 0 200 150">
  <rect width="200" height="150" rx="12" ry="12" fill="#eceff1"/>
  <!-- Tax form paper -->
  <rect x="25" y="15" width="85" height="120" rx="4" ry="4" fill="white" stroke="#546e7a" stroke-width="2"/>
  <!-- Form lines -->
  <line x1="35" y1="35" x2="100" y2="35" stroke="#546e7a" stroke-width="1.5" opacity="0.5"/>
  <line x1="35" y1="48" x2="100" y2="48" stroke="#546e7a" stroke-width="1.5" opacity="0.5"/>
  <line x1="35" y1="61" x2="100" y2="61" stroke="#546e7a" stroke-width="1.5" opacity="0.5"/>
  <line x1="35" y1="74" x2="80" y2="74" stroke="#546e7a" stroke-width="1.5" opacity="0.5"/>
  <line x1="35" y1="87" x2="100" y2="87" stroke="#546e7a" stroke-width="1.5" opacity="0.5"/>
  <line x1="35" y1="100" x2="90" y2="100" stroke="#546e7a" stroke-width="1.5" opacity="0.5"/>
  <!-- Checkboxes on form -->
  <rect x="35" y="108" width="8" height="8" fill="none" stroke="#546e7a" stroke-width="1.5"/>
  <path d="M37 112 L39 115 L44 109" stroke="#37474f" stroke-width="1.5" fill="none"/>
  <rect x="50" y="108" width="8" height="8" fill="none" stroke="#546e7a" stroke-width="1.5"/>
  <!-- Form header bar -->
  <rect x="25" y="15" width="85" height="14" rx="4" ry="0" fill="#546e7a"/>
  <!-- Calculator -->
  <rect x="120" y="40" width="60" height="85" rx="6" ry="6" fill="#37474f"/>
  <!-- Calculator screen -->
  <rect x="127" y="48" width="46" height="18" rx="2" ry="2" fill="#eceff1"/>
  <!-- Calculator buttons grid -->
  <rect x="128" y="72" width="10" height="8" rx="1" ry="1" fill="#546e7a"/>
  <rect x="142" y="72" width="10" height="8" rx="1" ry="1" fill="#546e7a"/>
  <rect x="156" y="72" width="10" height="8" rx="1" ry="1" fill="#546e7a"/>
  <rect x="128" y="84" width="10" height="8" rx="1" ry="1" fill="#546e7a"/>
  <rect x="142" y="84" width="10" height="8" rx="1" ry="1" fill="#546e7a"/>
  <rect x="156" y="84" width="10" height="8" rx="1" ry="1" fill="#546e7a"/>
  <rect x="128" y="96" width="10" height="8" rx="1" ry="1" fill="#546e7a"/>
  <rect x="142" y="96" width="10" height="8" rx="1" ry="1" fill="#546e7a"/>
  <rect x="156" y="96" width="10" height="8" rx="1" ry="1" fill="#546e7a"/>
  <rect x="128" y="108" width="24" height="8" rx="1" ry="1" fill="#546e7a"/>
  <rect x="156" y="108" width="10" height="8" rx="1" ry="1" fill="#546e7a"/>
</svg>