<svg xmlns="http://www.w3.org/2000/svg" width="200" height="150" viewBox="0 0 200 150">
  <rect width="200" height="150" rx="12" ry="12" fill="#eceff1"/>
  <!-- Tax return papers (stack) -->
  <rect x="50" y="30" width="100" height="105" rx="3" ry="3" fill="white" stroke="#546e7a" stroke-width="1" opacity="0.6"/>
  <rect x="45" y="25" width="100" height="105" rx="3" ry="3" fill="white" stroke="#546e7a" stroke-width="1.5"/>
  <!-- Paper header -->
  <rect x="45" y="25" width="100" height="12" fill="#546e7a" opacity="0.3"/>
  <!-- Lines on tax return -->
  <line x1="52" y1="45" x2="138" y2="45" stroke="#546e7a" stroke-width="1" opacity="0.4"/>
  <line x1="52" y1="55" x2="138" y2="55" stroke="#546e7a" stroke-width="1" opacity="0.4"/>
  <line x1="52" y1="65" x2="120" y2="65" stroke="#546e7a" stroke-width="1" opacity="0.4"/>
  <line x1="52" y1="75" x2="138" y2="75" stroke="#546e7a" stroke-width="1" opacity="0.4"/>
  <line x1="52" y1="85" x2="130" y2="85" stroke="#546e7a" stroke-width="1" opacity="0.4"/>
  <line x1="52" y1="95" x2="138" y2="95" stroke="#546e7a" stroke-width="1" opacity="0.4"/>
  <line x1="52" y1="105" x2="110" y2="105" stroke="#546e7a" stroke-width="1" opacity="0.4"/>
  <!-- Number entries on right side -->
  <line x1="118" y1="47" x2="135" y2="47" stroke="#37474f" stroke-width="1.5"/>
  <line x1="120" y1="57" x2="135" y2="57" stroke="#37474f" stroke-width="1.5"/>
  <line x1="115" y1="77" x2="135" y2="77" stroke="#37474f" stroke-width="1.5"/>
  <line x1="122" y1="87" x2="135" y2="87" stroke="#37474f" stroke-width="1.5"/>
  <!-- Sum double line -->
  <line x1="110" y1="115" x2="138" y2="115" stroke="#37474f" stroke-width="1.5"/>
  <line x1="110" y1="119" x2="138" y2="119" stroke="#37474f" stroke-width="1.5"/>
  <!-- Magnifying glass over the papers -->
  <circle cx="130" cy="65" r="32" fill="none" stroke="#37474f" stroke-width="4"/>
  <circle cx="130" cy="65" r="28" fill="white" opacity="0.3"/>
  <!-- Magnifying glass handle -->
  <line x1="152" y1="88" x2="175" y2="118" stroke="#37474f" stroke-width="6" stroke-linecap="round"/>
  <line x1="152" y1="88" x2="175" y2="118" stroke="#546e7a" stroke-width="3" stroke-linecap="round"/>
  <!-- Magnified content visible through lens -->
  <line x1="110" y1="55" x2="148" y2="55" stroke="#37474f" stroke-width="1.5" opacity="0.6"/>
  <line x1="110" y1="62" x2="145" y2="62" stroke="#37474f" stroke-width="1.5" opacity="0.6"/>
  <line x1="110" y1="69" x2="150" y2="69" stroke="#37474f" stroke-width="1.5" opacity="0.6"/>
  <line x1="110" y1="76" x2="142" y2="76" stroke="#37474f" stroke-width="1.5" opacity="0.6"/>
  <!-- Checkmarks visible through glass -->
  <path d="M115 55 L118 59 L125 50" stroke="#37474f" stroke-width="2" fill="none"/>
  <path d="M115 69 L118 73 L125 64" stroke="#37474f" stroke-width="2" fill="none"/>
</svg>