<svg xmlns="http://www.w3.org/2000/svg" viewBox="0 0 200 150" width="200" height="150">
  <rect width="200" height="150" rx="12" ry="12" fill="#eceff1"/>
  <!-- Bank pediment (triangle) -->
  <polygon points="100,18 40,55 160,55" fill="#546e7a"/>
  <!-- Pediment inner triangle -->
  <polygon points="100,28 55,52 145,52" fill="#37474f"/>
  <!-- Top bar -->
  <rect x="38" y="53" width="124" height="8" fill="#546e7a"/>
  <!-- Columns -->
  <rect x="48" y="61" width="12" height="48" rx="2" fill="#546e7a"/>
  <rect x="74" y="61" width="12" height="48" rx="2" fill="#546e7a"/>
  <rect x="114" y="61" width="12" height="48" rx="2" fill="#546e7a"/>
  <rect x="140" y="61" width="12" height="48" rx="2" fill="#546e7a"/>
  <!-- Base / steps -->
  <rect x="35" y="109" width="130" height="8" rx="2" fill="#546e7a"/>
  <rect x="30" y="117" width="140" height="8" rx="2" fill="#37474f"/>
  <!-- Euro sign in center -->
  <circle cx="100" cy="82" r="16" fill="#37474f" opacity="0.8"/>
  <path d="M108,72 C104,68 97,68 93,72 C89,76 89,88 93,92 C97,96 104,96 108,92"
    fill="none" stroke="#eceff1" stroke-width="3" stroke-linecap="round"/>
  <line x1="86" y1="79" x2="102" y2="79" stroke="#eceff1" stroke-width="2.5" stroke-linecap="round"/>
  <line x1="86" y1="85" x2="102" y2="85" stroke="#eceff1" stroke-width="2.5" stroke-linecap="round"/>
</svg>