<svg xmlns="http://www.w3.org/2000/svg" width="200" height="150" viewBox="0 0 200 150">
  <rect width="200" height="150" rx="12" ry="12" fill="#eceff1"/>
  <!-- Central bank building -->
  <!-- Pediment / roof triangle -->
  <polygon points="100,15 30,50 170,50" fill="#37474f"/>
  <!-- Columns -->
  <rect x="42" y="50" width="10" height="55" fill="#546e7a"/>
  <rect x="62" y="50" width="10" height="55" fill="#546e7a"/>
  <rect x="82" y="50" width="10" height="55" fill="#546e7a"/>
  <rect x="108" y="50" width="10" height="55" fill="#546e7a"/>
  <rect x="128" y="50" width="10" height="55" fill="#546e7a"/>
  <rect x="148" y="50" width="10" height="55" fill="#546e7a"/>
  <!-- Entablature -->
  <rect x="35" y="47" width="130" height="6" fill="#37474f"/>
  <!-- Base / steps -->
  <rect x="28" y="105" width="144" height="6" fill="#37474f"/>
  <rect x="22" y="111" width="156" height="5" fill="#546e7a"/>
  <rect x="16" y="116" width="168" height="5" fill="#37474f"/>
  <!-- Vault door (centered between columns) -->
  <circle cx="100" cy="82" r="18" fill="#37474f"/>
  <circle cx="100" cy="82" r="15" fill="#546e7a"/>
  <circle cx="100" cy="82" r="12" fill="#37474f"/>
  <!-- Vault door handle / spokes -->
  <line x1="100" y1="72" x2="100" y2="92" stroke="#eceff1" stroke-width="2"/>
  <line x1="90" y1="82" x2="110" y2="82" stroke="#eceff1" stroke-width="2"/>
  <line x1="93" y1="75" x2="107" y2="89" stroke="#eceff1" stroke-width="1.5"/>
  <line x1="107" y1="75" x2="93" y2="89" stroke="#eceff1" stroke-width="1.5"/>
  <!-- Center hub -->
  <circle cx="100" cy="82" r="3" fill="#eceff1"/>
  <!-- Decorative elements on pediment -->
  <circle cx="100" cy="38" r="5" fill="#eceff1" opacity="0.5"/>
</svg>