<svg xmlns="http://www.w3.org/2000/svg" viewBox="0 0 200 150" width="200" height="150">
  <rect width="200" height="150" rx="12" ry="12" fill="#eceff1"/>
  <!-- Document -->
  <rect x="40" y="20" width="80" height="105" rx="4" fill="white" stroke="#546e7a" stroke-width="2"/>
  <!-- Document lines -->
  <line x1="52" y1="38" x2="108" y2="38" stroke="#546e7a" stroke-width="2" opacity="0.3"/>
  <line x1="52" y1="50" x2="108" y2="50" stroke="#546e7a" stroke-width="2" opacity="0.3"/>
  <line x1="52" y1="62" x2="95" y2="62" stroke="#546e7a" stroke-width="2" opacity="0.3"/>
  <line x1="52" y1="74" x2="108" y2="74" stroke="#546e7a" stroke-width="2" opacity="0.3"/>
  <line x1="52" y1="86" x2="100" y2="86" stroke="#546e7a" stroke-width="2" opacity="0.3"/>
  <line x1="52" y1="98" x2="108" y2="98" stroke="#546e7a" stroke-width="2" opacity="0.3"/>
  <line x1="52" y1="110" x2="90" y2="110" stroke="#546e7a" stroke-width="2" opacity="0.3"/>
  <!-- Checkmarks on some lines -->
  <polyline points="44,36 47,40 54,33" fill="none" stroke="#546e7a" stroke-width="2" stroke-linecap="round"/>
  <polyline points="44,48 47,52 54,45" fill="none" stroke="#546e7a" stroke-width="2" stroke-linecap="round"/>
  <polyline points="44,72 47,76 54,69" fill="none" stroke="#546e7a" stroke-width="2" stroke-linecap="round"/>
  <!-- Magnifying glass -->
  <circle cx="135" cy="85" r="28" fill="none" stroke="#546e7a" stroke-width="4"/>
  <circle cx="135" cy="85" r="24" fill="#546e7a" opacity="0.15"/>
  <!-- Glass handle -->
  <line x1="155" y1="105" x2="170" y2="125" stroke="#37474f" stroke-width="8" stroke-linecap="round"/>
  <!-- Glass highlight -->
  <circle cx="127" cy="77" r="8" fill="white" opacity="0.3"/>
</svg>