<svg xmlns="http://www.w3.org/2000/svg" width="200" height="150" viewBox="0 0 200 150">
  <rect width="200" height="150" rx="12" ry="12" fill="#eceff1"/>
  <!-- Computer monitor -->
  <rect x="30" y="15" width="140" height="95" rx="6" ry="6" fill="#37474f"/>
  <rect x="36" y="21" width="128" height="80" rx="3" ry="3" fill="#eceff1"/>
  <!-- Monitor stand -->
  <rect x="88" y="110" width="24" height="12" fill="#37474f"/>
  <rect x="72" y="122" width="56" height="5" rx="2" ry="2" fill="#546e7a"/>
  <!-- Spreadsheet grid on screen -->
  <!-- Header row -->
  <rect x="40" y="25" width="120" height="10" fill="#546e7a" opacity="0.3"/>
  <!-- Row highlight -->
  <rect x="40" y="55" width="120" height="10" fill="#546e7a" opacity="0.1"/>
  <!-- Vertical grid lines -->
  <line x1="70" y1="25" x2="70" y2="95" stroke="#546e7a" stroke-width="0.8" opacity="0.4"/>
  <line x1="100" y1="25" x2="100" y2="95" stroke="#546e7a" stroke-width="0.8" opacity="0.4"/>
  <line x1="130" y1="25" x2="130" y2="95" stroke="#546e7a" stroke-width="0.8" opacity="0.4"/>
  <!-- Horizontal grid lines -->
  <line x1="40" y1="35" x2="160" y2="35" stroke="#546e7a" stroke-width="0.8" opacity="0.4"/>
  <line x1="40" y1="45" x2="160" y2="45" stroke="#546e7a" stroke-width="0.8" opacity="0.4"/>
  <line x1="40" y1="55" x2="160" y2="55" stroke="#546e7a" stroke-width="0.8" opacity="0.4"/>
  <line x1="40" y1="65" x2="160" y2="65" stroke="#546e7a" stroke-width="0.8" opacity="0.4"/>
  <line x1="40" y1="75" x2="160" y2="75" stroke="#546e7a" stroke-width="0.8" opacity="0.4"/>
  <line x1="40" y1="85" x2="160" y2="85" stroke="#546e7a" stroke-width="0.8" opacity="0.4"/>
  <!-- Data entries (small rectangles representing numbers) -->
  <rect x="44" y="38" width="20" height="4" rx="1" fill="#546e7a" opacity="0.6"/>
  <rect x="74" y="38" width="15" height="4" rx="1" fill="#546e7a" opacity="0.6"/>
  <rect x="104" y="38" width="18" height="4" rx="1" fill="#37474f" opacity="0.6"/>
  <rect x="134" y="38" width="20" height="4" rx="1" fill="#546e7a" opacity="0.6"/>
  <rect x="44" y="48" width="18" height="4" rx="1" fill="#546e7a" opacity="0.6"/>
  <rect x="74" y="48" width="20" height="4" rx="1" fill="#546e7a" opacity="0.6"/>
  <rect x="104" y="48" width="12" height="4" rx="1" fill="#37474f" opacity="0.6"/>
  <rect x="134" y="48" width="18" height="4" rx="1" fill="#546e7a" opacity="0.6"/>
  <rect x="44" y="58" width="22" height="4" rx="1" fill="#546e7a" opacity="0.6"/>
  <rect x="74" y="58" width="16" height="4" rx="1" fill="#546e7a" opacity="0.6"/>
  <rect x="104" y="58" width="20" height="4" rx="1" fill="#37474f" opacity="0.6"/>
  <rect x="134" y="58" width="14" height="4" rx="1" fill="#546e7a" opacity="0.6"/>
  <!-- Sum row -->
  <line x1="40" y1="88" x2="160" y2="88" stroke="#37474f" stroke-width="1.5"/>
  <rect x="104" y="90" width="20" height="4" rx="1" fill="#37474f"/>
  <rect x="134" y="90" width="18" height="4" rx="1" fill="#37474f"/>
  <!-- Cell selection highlight -->
  <rect x="100" y="55" width="30" height="10" fill="none" stroke="#37474f" stroke-width="2"/>
</svg>