<svg xmlns="http://www.w3.org/2000/svg" viewBox="0 0 200 150" width="200" height="150">
  <rect width="200" height="150" rx="12" ry="12" fill="#eceff1"/>
  <!-- Calculator body -->
  <rect x="55" y="20" width="90" height="110" rx="8" fill="#546e7a"/>
  <!-- Display -->
  <rect x="63" y="28" width="74" height="24" rx="4" fill="#37474f"/>
  <rect x="67" y="32" width="66" height="16" rx="2" fill="#eceff1" opacity="0.25"/>
  <!-- Button rows -->
  <!-- Row 1 -->
  <rect x="63" y="60" width="16" height="14" rx="3" fill="#eceff1" opacity="0.5"/>
  <rect x="83" y="60" width="16" height="14" rx="3" fill="#eceff1" opacity="0.5"/>
  <rect x="103" y="60" width="16" height="14" rx="3" fill="#eceff1" opacity="0.5"/>
  <rect x="123" y="60" width="14" height="14" rx="3" fill="#37474f"/>
  <!-- Row 2 -->
  <rect x="63" y="78" width="16" height="14" rx="3" fill="#eceff1" opacity="0.5"/>
  <rect x="83" y="78" width="16" height="14" rx="3" fill="#eceff1" opacity="0.5"/>
  <rect x="103" y="78" width="16" height="14" rx="3" fill="#eceff1" opacity="0.5"/>
  <rect x="123" y="78" width="14" height="14" rx="3" fill="#37474f"/>
  <!-- Row 3 -->
  <rect x="63" y="96" width="16" height="14" rx="3" fill="#eceff1" opacity="0.5"/>
  <rect x="83" y="96" width="16" height="14" rx="3" fill="#eceff1" opacity="0.5"/>
  <rect x="103" y="96" width="16" height="14" rx="3" fill="#eceff1" opacity="0.5"/>
  <rect x="123" y="96" width="14" height="14" rx="3" fill="#37474f"/>
  <!-- Row 4 -->
  <rect x="63" y="114" width="36" height="12" rx="3" fill="#eceff1" opacity="0.5"/>
  <rect x="103" y="114" width="16" height="12" rx="3" fill="#eceff1" opacity="0.5"/>
  <rect x="123" y="114" width="14" height="12" rx="3" fill="#37474f"/>
</svg>