<svg xmlns="http://www.w3.org/2000/svg" viewBox="0 0 200 150" width="200" height="150">
  <rect width="200" height="150" rx="12" ry="12" fill="#eceff1"/>
  <!-- Cash register body -->
  <rect x="55" y="60" width="90" height="55" rx="6" fill="#546e7a"/>
  <!-- Register top / display -->
  <rect x="65" y="45" width="50" height="20" rx="3" fill="#37474f"/>
  <!-- Display screen -->
  <rect x="69" y="49" width="42" height="12" rx="2" fill="#eceff1" opacity="0.3"/>
  <!-- Buttons grid -->
  <rect x="62" y="68" width="12" height="10" rx="2" fill="#eceff1" opacity="0.4"/>
  <rect x="78" y="68" width="12" height="10" rx="2" fill="#eceff1" opacity="0.4"/>
  <rect x="94" y="68" width="12" height="10" rx="2" fill="#eceff1" opacity="0.4"/>
  <rect x="62" y="82" width="12" height="10" rx="2" fill="#eceff1" opacity="0.4"/>
  <rect x="78" y="82" width="12" height="10" rx="2" fill="#eceff1" opacity="0.4"/>
  <rect x="94" y="82" width="12" height="10" rx="2" fill="#eceff1" opacity="0.4"/>
  <!-- Cash drawer -->
  <rect x="55" y="100" width="90" height="15" rx="4" fill="#37474f"/>
  <rect x="85" y="104" width="30" height="7" rx="2" fill="#eceff1" opacity="0.3"/>
  <!-- Receipt coming out -->
  <rect x="115" y="35" width="20" height="30" rx="2" fill="#eceff1" opacity="0.7"/>
  <line x1="119" y1="42" x2="131" y2="42" stroke="#546e7a" stroke-width="1.5" opacity="0.5"/>
  <line x1="119" y1="47" x2="129" y2="47" stroke="#546e7a" stroke-width="1.5" opacity="0.5"/>
  <line x1="119" y1="52" x2="131" y2="52" stroke="#546e7a" stroke-width="1.5" opacity="0.5"/>
</svg>