<svg xmlns="http://www.w3.org/2000/svg" viewBox="0 0 200 150" width="200" height="150">
  <rect width="200" height="150" rx="12" ry="12" fill="#eceff1"/>
  <!-- Safe body -->
  <rect x="40" y="22" width="120" height="100" rx="8" fill="#546e7a"/>
  <!-- Safe inner border -->
  <rect x="48" y="28" width="104" height="88" rx="5" fill="#37474f"/>
  <!-- Safe door panel -->
  <rect x="55" y="34" width="90" height="76" rx="4" fill="#546e7a"/>
  <!-- Handle / wheel -->
  <circle cx="120" cy="72" r="18" fill="#37474f"/>
  <circle cx="120" cy="72" r="14" fill="#546e7a" opacity="0.7"/>
  <!-- Wheel spokes -->
  <line x1="120" y1="60" x2="120" y2="84" stroke="#eceff1" stroke-width="2.5" stroke-linecap="round" opacity="0.5"/>
  <line x1="108" y1="72" x2="132" y2="72" stroke="#eceff1" stroke-width="2.5" stroke-linecap="round" opacity="0.5"/>
  <!-- Center of wheel -->
  <circle cx="120" cy="72" r="4" fill="#37474f"/>
  <!-- Keyhole -->
  <circle cx="78" cy="66" r="6" fill="#37474f"/>
  <rect x="75" y="66" width="6" height="12" rx="1" fill="#37474f"/>
  <!-- Hinges on left -->
  <rect x="42" y="38" width="8" height="14" rx="3" fill="#37474f"/>
  <rect x="42" y="90" width="8" height="14" rx="3" fill="#37474f"/>
  <!-- Base / legs -->
  <rect x="48" y="122" width="20" height="10" rx="3" fill="#546e7a"/>
  <rect x="132" y="122" width="20" height="10" rx="3" fill="#546e7a"/>
  <!-- Lock bolts on right edge -->
  <rect x="143" y="48" width="10" height="6" rx="2" fill="#37474f"/>
  <rect x="143" y="68" width="10" height="6" rx="2" fill="#37474f"/>
  <rect x="143" y="88" width="10" height="6" rx="2" fill="#37474f"/>
</svg>