<svg xmlns="http://www.w3.org/2000/svg" width="200" height="150" viewBox="0 0 200 150">
  <rect width="200" height="150" rx="12" ry="12" fill="#eceff1"/>
  <!-- Digital safe body -->
  <rect x="35" y="20" width="130" height="110" rx="8" ry="8" fill="#37474f"/>
  <rect x="40" y="25" width="120" height="100" rx="6" ry="6" fill="#546e7a"/>
  <!-- Inner door panel -->
  <rect x="48" y="33" width="104" height="84" rx="4" ry="4" fill="#37474f"/>
  <!-- Digital keypad -->
  <rect x="58" y="42" width="84" height="20" rx="3" ry="3" fill="#eceff1" opacity="0.15"/>
  <!-- Display dots (code entry) -->
  <circle cx="78" cy="52" r="4" fill="#eceff1" opacity="0.6"/>
  <circle cx="90" cy="52" r="4" fill="#eceff1" opacity="0.6"/>
  <circle cx="102" cy="52" r="4" fill="#eceff1" opacity="0.6"/>
  <circle cx="114" cy="52" r="4" fill="#eceff1" opacity="0.3"/>
  <circle cx="126" cy="52" r="4" fill="#eceff1" opacity="0.3"/>
  <!-- Keypad buttons -->
  <rect x="62" y="70" width="14" height="10" rx="2" ry="2" fill="#546e7a"/>
  <rect x="82" y="70" width="14" height="10" rx="2" ry="2" fill="#546e7a"/>
  <rect x="102" y="70" width="14" height="10" rx="2" ry="2" fill="#546e7a"/>
  <rect x="122" y="70" width="14" height="10" rx="2" ry="2" fill="#546e7a"/>
  <rect x="62" y="85" width="14" height="10" rx="2" ry="2" fill="#546e7a"/>
  <rect x="82" y="85" width="14" height="10" rx="2" ry="2" fill="#546e7a"/>
  <rect x="102" y="85" width="14" height="10" rx="2" ry="2" fill="#546e7a"/>
  <rect x="122" y="85" width="14" height="10" rx="2" ry="2" fill="#546e7a"/>
  <rect x="62" y="100" width="14" height="10" rx="2" ry="2" fill="#546e7a"/>
  <rect x="82" y="100" width="34" height="10" rx="2" ry="2" fill="#546e7a"/>
  <rect x="122" y="100" width="14" height="10" rx="2" ry="2" fill="#546e7a"/>
  <!-- Circuit pattern decorations -->
  <line x1="42" y1="35" x2="42" y2="55" stroke="#eceff1" stroke-width="0.8" opacity="0.2"/>
  <line x1="42" y1="55" x2="52" y2="55" stroke="#eceff1" stroke-width="0.8" opacity="0.2"/>
  <line x1="158" y1="35" x2="158" y2="50" stroke="#eceff1" stroke-width="0.8" opacity="0.2"/>
  <line x1="158" y1="50" x2="148" y2="50" stroke="#eceff1" stroke-width="0.8" opacity="0.2"/>
  <line x1="42" y1="100" x2="42" y2="115" stroke="#eceff1" stroke-width="0.8" opacity="0.2"/>
  <line x1="42" y1="115" x2="55" y2="115" stroke="#eceff1" stroke-width="0.8" opacity="0.2"/>
  <circle cx="55" cy="115" r="1.5" fill="#eceff1" opacity="0.3"/>
  <circle cx="52" cy="55" r="1.5" fill="#eceff1" opacity="0.3"/>
  <circle cx="148" cy="50" r="1.5" fill="#eceff1" opacity="0.3"/>
  <!-- Lock indicator LED -->
  <circle cx="100" cy="38" r="3" fill="#eceff1" opacity="0.5"/>
</svg>