<svg xmlns="http://www.w3.org/2000/svg" width="200" height="150" viewBox="0 0 200 150">
  <rect width="200" height="150" rx="12" ry="12" fill="#e0f2f1"/>
  <!-- Microscope base -->
  <rect x="30" y="120" width="70" height="8" rx="3" ry="3" fill="#00695c"/>
  <!-- Microscope stage -->
  <rect x="45" y="90" width="40" height="5" rx="1" fill="#00897b"/>
  <!-- Microscope arm -->
  <rect x="62" y="35" width="8" height="58" fill="#00695c"/>
  <!-- Microscope arm top curve -->
  <path d="M70 35 Q70 20 55 20 L55 30 Q62 30 62 35" fill="#00695c"/>
  <!-- Eyepiece -->
  <rect x="48" y="15" width="14" height="10" rx="2" ry="2" fill="#00897b"/>
  <rect x="51" y="10" width="8" height="8" rx="2" ry="2" fill="#00695c"/>
  <!-- Objective lens -->
  <rect x="60" y="82" width="12" height="10" rx="1" ry="1" fill="#00897b"/>
  <rect x="63" y="88" width="6" height="6" rx="1" ry="1" fill="#00695c"/>
  <!-- Focus knob -->
  <circle cx="75" cy="65" r="6" fill="#00897b"/>
  <circle cx="75" cy="65" r="3" fill="#00695c"/>
  <!-- Petri dish -->
  <ellipse cx="145" cy="115" rx="30" ry="12" fill="#00897b"/>
  <ellipse cx="145" cy="112" rx="30" ry="12" fill="#00695c"/>
  <ellipse cx="145" cy="112" rx="26" ry="9" fill="#00897b" opacity="0.5"/>
  <!-- Culture spots in petri dish -->
  <circle cx="138" cy="110" r="4" fill="#e0f2f1" opacity="0.5"/>
  <circle cx="150" cy="108" r="3" fill="#e0f2f1" opacity="0.5"/>
  <circle cx="155" cy="114" r="3.5" fill="#e0f2f1" opacity="0.5"/>
  <circle cx="140" cy="116" r="2.5" fill="#e0f2f1" opacity="0.5"/>
</svg>