<svg xmlns="http://www.w3.org/2000/svg" width="200" height="150" viewBox="0 0 200 150">
  <rect width="200" height="150" rx="12" ry="12" fill="#e0f2f1"/>
  <!-- House body -->
  <rect x="55" y="60" width="90" height="70" rx="3" ry="3" fill="#00897b"/>
  <!-- Roof -->
  <polygon points="45,62 100,18 155,62" fill="#00695c"/>
  <!-- Roof ridge line -->
  <line x1="100" y1="18" x2="100" y2="28" stroke="#00897b" stroke-width="2"/>
  <!-- Door -->
  <rect x="85" y="90" width="30" height="40" rx="3" ry="3" fill="#00695c"/>
  <!-- Door knob -->
  <circle cx="110" cy="112" r="3" fill="#e0f2f1" opacity="0.5"/>
  <!-- Windows -->
  <rect x="62" y="70" width="18" height="16" rx="2" ry="2" fill="#e0f2f1" opacity="0.4"/>
  <line x1="71" y1="70" x2="71" y2="86" stroke="#00695c" stroke-width="1" opacity="0.5"/>
  <line x1="62" y1="78" x2="80" y2="78" stroke="#00695c" stroke-width="1" opacity="0.5"/>
  <rect x="120" y="70" width="18" height="16" rx="2" ry="2" fill="#e0f2f1" opacity="0.4"/>
  <line x1="129" y1="70" x2="129" y2="86" stroke="#00695c" stroke-width="1" opacity="0.5"/>
  <line x1="120" y1="78" x2="138" y2="78" stroke="#00695c" stroke-width="1" opacity="0.5"/>
  <!-- Barrier tape - diagonal stripes crossing the house -->
  <line x1="15" y1="45" x2="185" y2="105" stroke="#00695c" stroke-width="6" opacity="0.7"/>
  <line x1="15" y1="55" x2="185" y2="115" stroke="#e0f2f1" stroke-width="6" opacity="0.5"/>
  <line x1="15" y1="65" x2="185" y2="125" stroke="#00695c" stroke-width="6" opacity="0.7"/>
  <!-- Barrier tape diagonal hatch marks -->
  <line x1="30" y1="45" x2="40" y2="55" stroke="#e0f2f1" stroke-width="1.5" opacity="0.4"/>
  <line x1="60" y1="55" x2="70" y2="65" stroke="#e0f2f1" stroke-width="1.5" opacity="0.4"/>
  <line x1="90" y1="65" x2="100" y2="75" stroke="#e0f2f1" stroke-width="1.5" opacity="0.4"/>
  <line x1="120" y1="75" x2="130" y2="85" stroke="#e0f2f1" stroke-width="1.5" opacity="0.4"/>
  <line x1="150" y1="85" x2="160" y2="95" stroke="#e0f2f1" stroke-width="1.5" opacity="0.4"/>
  <!-- Barrier posts -->
  <rect x="18" y="42" width="5" height="40" rx="1" fill="#00695c"/>
  <rect x="177" y="92" width="5" height="40" rx="1" fill="#00695c"/>
  <!-- Cross/prohibition hint -->
  <circle cx="100" cy="45" r="8" fill="none" stroke="#00695c" stroke-width="2" opacity="0.5"/>
  <line x1="94" y1="39" x2="106" y2="51" stroke="#00695c" stroke-width="2" opacity="0.5"/>
</svg>