<svg xmlns="http://www.w3.org/2000/svg" viewBox="0 0 200 150" width="200" height="150">
  <!-- Background -->
  <rect x="0" y="0" width="200" height="150" rx="12" ry="12" fill="#e0f2f1"/>

  <!-- Spreading ripple circles (pandemic waves) -->
  <circle cx="100" cy="75" r="65" fill="none" stroke="#00897b" stroke-width="1.5" opacity="0.15"/>
  <circle cx="100" cy="75" r="50" fill="none" stroke="#00897b" stroke-width="1.5" opacity="0.25"/>
  <circle cx="100" cy="75" r="35" fill="none" stroke="#00897b" stroke-width="1.5" opacity="0.35"/>

  <!-- Central virus - large -->
  <circle cx="100" cy="75" r="16" fill="#00695c"/>
  <circle cx="100" cy="75" r="9" fill="#00897b"/>
  <!-- Spikes -->
  <line x1="100" y1="57" x2="100" y2="50" stroke="#00695c" stroke-width="2.5" stroke-linecap="round"/>
  <circle cx="100" cy="48" r="3" fill="#00695c"/>
  <line x1="100" y1="93" x2="100" y2="100" stroke="#00695c" stroke-width="2.5" stroke-linecap="round"/>
  <circle cx="100" cy="102" r="3" fill="#00695c"/>
  <line x1="82" y1="75" x2="75" y2="75" stroke="#00695c" stroke-width="2.5" stroke-linecap="round"/>
  <circle cx="73" cy="75" r="3" fill="#00695c"/>
  <line x1="118" y1="75" x2="125" y2="75" stroke="#00695c" stroke-width="2.5" stroke-linecap="round"/>
  <circle cx="127" cy="75" r="3" fill="#00695c"/>
  <line x1="89" y1="63" x2="84" y2="58" stroke="#00695c" stroke-width="2.5" stroke-linecap="round"/>
  <circle cx="82" cy="56" r="3" fill="#00695c"/>
  <line x1="111" y1="63" x2="116" y2="58" stroke="#00695c" stroke-width="2.5" stroke-linecap="round"/>
  <circle cx="118" cy="56" r="3" fill="#00695c"/>
  <line x1="89" y1="87" x2="84" y2="92" stroke="#00695c" stroke-width="2.5" stroke-linecap="round"/>
  <circle cx="82" cy="94" r="3" fill="#00695c"/>
  <line x1="111" y1="87" x2="116" y2="92" stroke="#00695c" stroke-width="2.5" stroke-linecap="round"/>
  <circle cx="118" cy="94" r="3" fill="#00695c"/>

  <!-- Smaller virus particles spreading outward -->
  <!-- Top-left -->
  <circle cx="50" cy="30" r="8" fill="#00897b" opacity="0.6"/>
  <circle cx="50" cy="30" r="4.5" fill="#00695c" opacity="0.6"/>
  <line x1="50" y1="21" x2="50" y2="17" stroke="#00897b" stroke-width="1.5" stroke-linecap="round" opacity="0.6"/>
  <circle cx="50" cy="16" r="2" fill="#00897b" opacity="0.6"/>
  <line x1="42" y1="28" x2="38" y2="26" stroke="#00897b" stroke-width="1.5" stroke-linecap="round" opacity="0.6"/>
  <circle cx="37" cy="25" r="2" fill="#00897b" opacity="0.6"/>
  <line x1="56" y1="24" x2="60" y2="21" stroke="#00897b" stroke-width="1.5" stroke-linecap="round" opacity="0.6"/>
  <circle cx="61" cy="20" r="2" fill="#00897b" opacity="0.6"/>

  <!-- Top-right -->
  <circle cx="158" cy="38" r="7" fill="#00897b" opacity="0.5"/>
  <circle cx="158" cy="38" r="4" fill="#00695c" opacity="0.5"/>
  <line x1="158" y1="30" x2="158" y2="26" stroke="#00897b" stroke-width="1.5" stroke-linecap="round" opacity="0.5"/>
  <circle cx="158" cy="25" r="2" fill="#00897b" opacity="0.5"/>
  <line x1="165" y1="36" x2="169" y2="34" stroke="#00897b" stroke-width="1.5" stroke-linecap="round" opacity="0.5"/>
  <circle cx="170" cy="33" r="2" fill="#00897b" opacity="0.5"/>

  <!-- Bottom-left -->
  <circle cx="40" cy="110" r="6" fill="#00897b" opacity="0.45"/>
  <circle cx="40" cy="110" r="3.5" fill="#00695c" opacity="0.45"/>
  <line x1="40" y1="103" x2="40" y2="100" stroke="#00897b" stroke-width="1.5" stroke-linecap="round" opacity="0.45"/>
  <circle cx="40" cy="99" r="1.5" fill="#00897b" opacity="0.45"/>
  <line x1="34" y1="113" x2="30" y2="115" stroke="#00897b" stroke-width="1.5" stroke-linecap="round" opacity="0.45"/>
  <circle cx="29" cy="116" r="1.5" fill="#00897b" opacity="0.45"/>

  <!-- Bottom-right -->
  <circle cx="160" cy="115" r="7" fill="#00897b" opacity="0.4"/>
  <circle cx="160" cy="115" r="4" fill="#00695c" opacity="0.4"/>
  <line x1="160" y1="107" x2="160" y2="103" stroke="#00897b" stroke-width="1.5" stroke-linecap="round" opacity="0.4"/>
  <circle cx="160" cy="102" r="1.5" fill="#00897b" opacity="0.4"/>
  <line x1="167" y1="118" x2="171" y2="120" stroke="#00897b" stroke-width="1.5" stroke-linecap="round" opacity="0.4"/>
  <circle cx="172" cy="121" r="1.5" fill="#00897b" opacity="0.4"/>

  <!-- Tiny scattered particles -->
  <circle cx="30" cy="65" r="3" fill="#00897b" opacity="0.3"/>
  <circle cx="170" cy="70" r="3.5" fill="#00897b" opacity="0.3"/>
  <circle cx="75" cy="20" r="2.5" fill="#00897b" opacity="0.25"/>
  <circle cx="130" cy="130" r="3" fill="#00897b" opacity="0.25"/>
  <circle cx="25" cy="130" r="2" fill="#00897b" opacity="0.2"/>
  <circle cx="180" cy="25" r="2" fill="#00897b" opacity="0.2"/>

  <!-- Directional arrows showing spread -->
  <path d="M68,60 L58,48" stroke="#00695c" stroke-width="1.5" stroke-linecap="round" opacity="0.3"/>
  <path d="M132,60 L142,48" stroke="#00695c" stroke-width="1.5" stroke-linecap="round" opacity="0.3"/>
  <path d="M68,90 L55,102" stroke="#00695c" stroke-width="1.5" stroke-linecap="round" opacity="0.3"/>
  <path d="M132,90 L148,105" stroke="#00695c" stroke-width="1.5" stroke-linecap="round" opacity="0.3"/>
</svg>