<svg xmlns="http://www.w3.org/2000/svg" width="200" height="150" viewBox="0 0 200 150">
  <rect width="200" height="150" rx="12" ry="12" fill="#e0f2f1"/>
  <!-- Ambulance body -->
  <rect x="25" y="55" width="140" height="55" rx="5" ry="5" fill="#00897b"/>
  <!-- Cab -->
  <path d="M140 55 L165 55 Q175 55 175 65 L175 110 L140 110 Z" fill="#00695c"/>
  <!-- Windshield -->
  <path d="M145 60 L168 60 Q172 60 172 64 L172 80 L145 80 Z" fill="#e0f2f1" opacity="0.5"/>
  <!-- Side window -->
  <rect x="105" y="62" width="28" height="22" rx="3" fill="#e0f2f1" opacity="0.4"/>
  <!-- Cross on side -->
  <rect x="55" y="72" width="24" height="8" rx="1" fill="#e0f2f1"/>
  <rect x="63" y="64" width="8" height="24" rx="1" fill="#e0f2f1"/>
  <!-- Wheels -->
  <circle cx="55" cy="115" r="14" fill="#00695c"/>
  <circle cx="55" cy="115" r="8" fill="#e0f2f1" opacity="0.3"/>
  <circle cx="55" cy="115" r="3" fill="#00695c"/>
  <circle cx="150" cy="115" r="14" fill="#00695c"/>
  <circle cx="150" cy="115" r="8" fill="#e0f2f1" opacity="0.3"/>
  <circle cx="150" cy="115" r="3" fill="#00695c"/>
  <!-- Bumper -->
  <rect x="20" y="108" width="160" height="5" rx="2" fill="#00695c"/>
  <!-- Siren light -->
  <ellipse cx="90" cy="52" rx="15" ry="6" fill="#00695c"/>
  <ellipse cx="90" cy="50" rx="12" ry="5" fill="#e0f2f1" opacity="0.6"/>
  <!-- Siren rays -->
  <line x1="78" y1="40" x2="75" y2="32" stroke="#00695c" stroke-width="2" opacity="0.5"/>
  <line x1="90" y1="38" x2="90" y2="28" stroke="#00695c" stroke-width="2" opacity="0.5"/>
  <line x1="102" y1="40" x2="105" y2="32" stroke="#00695c" stroke-width="2" opacity="0.5"/>
</svg>