<svg xmlns="http://www.w3.org/2000/svg" width="200" height="150" viewBox="0 0 200 150">
  <rect width="200" height="150" rx="12" ry="12" fill="#e0f2f1"/>
  <!-- Surgical cap -->
  <path d="M60 55 Q60 20 100 15 Q140 20 140 55 L138 60 L62 60 Z" fill="#00897b"/>
  <!-- Cap band -->
  <rect x="60" y="55" width="80" height="6" rx="2" fill="#00695c"/>
  <!-- Cap folds -->
  <path d="M75 30 Q85 25 95 32" stroke="#00695c" stroke-width="1.5" fill="none" opacity="0.5"/>
  <path d="M105 30 Q115 25 125 32" stroke="#00695c" stroke-width="1.5" fill="none" opacity="0.5"/>
  <!-- Face area hint -->
  <ellipse cx="100" cy="78" rx="28" ry="20" fill="#00897b" opacity="0.2"/>
  <!-- Surgical mask -->
  <path d="M68 72 Q100 68 132 72 L128 100 Q100 108 72 100 Z" fill="#00897b"/>
  <!-- Mask folds -->
  <line x1="72" y1="80" x2="128" y2="80" stroke="#00695c" stroke-width="1" opacity="0.5"/>
  <line x1="73" y1="87" x2="127" y2="87" stroke="#00695c" stroke-width="1" opacity="0.5"/>
  <line x1="74" y1="94" x2="126" y2="94" stroke="#00695c" stroke-width="1" opacity="0.5"/>
  <!-- Mask ear loops -->
  <path d="M68 72 Q50 78 55 90 Q58 98 72 100" stroke="#00695c" stroke-width="2" fill="none"/>
  <path d="M132 72 Q150 78 145 90 Q142 98 128 100" stroke="#00695c" stroke-width="2" fill="none"/>
  <!-- Gown neckline -->
  <path d="M58 110 Q100 105 142 110 L145 140 L55 140 Z" fill="#00695c"/>
  <path d="M90 110 L95 140" stroke="#00897b" stroke-width="1" opacity="0.3"/>
  <path d="M110 110 L105 140" stroke="#00897b" stroke-width="1" opacity="0.3"/>
</svg>