<svg xmlns="http://www.w3.org/2000/svg" viewBox="0 0 200 150" width="200" height="150">
  <!-- Background -->
  <rect x="0" y="0" width="200" height="150" rx="12" ry="12" fill="#e0f2f1"/>

  <!-- Ambulance body -->
  <rect x="30" y="55" width="120" height="50" rx="6" fill="white" stroke="#00897b" stroke-width="2.5"/>

  <!-- Ambulance cab (front section) -->
  <path d="M150,55 L150,105 L175,105 L175,75 L165,55 Z" fill="#00897b"/>

  <!-- Windshield -->
  <path d="M155,60 L163,60 L170,75 L155,75 Z" fill="#e0f2f1" opacity="0.7"/>

  <!-- Emergency cross on ambulance -->
  <rect x="77" y="64" width="10" height="28" rx="2" fill="#00695c"/>
  <rect x="68" y="73" width="28" height="10" rx="2" fill="#00695c"/>

  <!-- Ambulance stripe -->
  <rect x="30" y="90" width="120" height="5" fill="#00897b" opacity="0.3"/>

  <!-- Wheels -->
  <circle cx="60" cy="108" r="12" fill="#00695c"/>
  <circle cx="60" cy="108" r="6" fill="#e0f2f1"/>
  <circle cx="60" cy="108" r="2" fill="#00695c"/>
  <circle cx="145" cy="108" r="12" fill="#00695c"/>
  <circle cx="145" cy="108" r="6" fill="#e0f2f1"/>
  <circle cx="145" cy="108" r="2" fill="#00695c"/>

  <!-- Ground line -->
  <line x1="20" y1="120" x2="180" y2="120" stroke="#00897b" stroke-width="2" stroke-linecap="round" opacity="0.3"/>

  <!-- Emergency light -->
  <rect x="80" y="46" width="20" height="10" rx="4" fill="#00695c"/>
  <!-- Light flash lines -->
  <line x1="75" y1="42" x2="70" y2="35" stroke="#00695c" stroke-width="2" stroke-linecap="round" opacity="0.5"/>
  <line x1="90" y1="40" x2="90" y2="32" stroke="#00695c" stroke-width="2" stroke-linecap="round" opacity="0.5"/>
  <line x1="105" y1="42" x2="110" y2="35" stroke="#00695c" stroke-width="2" stroke-linecap="round" opacity="0.5"/>

  <!-- Speed lines -->
  <line x1="15" y1="70" x2="25" y2="70" stroke="#00897b" stroke-width="2" stroke-linecap="round" opacity="0.4"/>
  <line x1="10" y1="80" x2="25" y2="80" stroke="#00897b" stroke-width="2" stroke-linecap="round" opacity="0.3"/>
  <line x1="15" y1="90" x2="25" y2="90" stroke="#00897b" stroke-width="2" stroke-linecap="round" opacity="0.4"/>
</svg>