<svg xmlns="http://www.w3.org/2000/svg" width="200" height="150" viewBox="0 0 200 150">
  <rect width="200" height="150" rx="12" ry="12" fill="#e0f2f1"/>
  <!-- Stretcher/gurney with wheels -->
  <!-- Bed surface -->
  <rect x="35" y="50" width="130" height="12" rx="3" ry="3" fill="#00897b"/>
  <!-- Mattress -->
  <rect x="38" y="42" width="124" height="10" rx="2" ry="2" fill="#00695c"/>
  <!-- Pillow -->
  <rect x="120" y="35" width="35" height="9" rx="4" ry="4" fill="#00897b"/>
  <!-- Left leg -->
  <rect x="50" y="62" width="4" height="40" fill="#00897b"/>
  <!-- Right leg -->
  <rect x="146" y="62" width="4" height="40" fill="#00897b"/>
  <!-- Cross bar -->
  <rect x="50" y="85" width="100" height="3" fill="#00695c"/>
  <!-- Left wheel -->
  <circle cx="52" cy="108" r="8" fill="none" stroke="#00695c" stroke-width="3"/>
  <circle cx="52" cy="108" r="2" fill="#00695c"/>
  <!-- Right wheel -->
  <circle cx="148" cy="108" r="8" fill="none" stroke="#00695c" stroke-width="3"/>
  <circle cx="148" cy="108" r="2" fill="#00695c"/>
  <!-- Handle -->
  <rect x="25" y="46" width="14" height="4" rx="2" ry="2" fill="#00695c"/>
  <rect x="25" y="46" width="4" height="18" rx="2" ry="2" fill="#00695c"/>
</svg>