<svg xmlns="http://www.w3.org/2000/svg" width="200" height="150" viewBox="0 0 200 150">
  <rect width="200" height="150" rx="12" ry="12" fill="#e0f2f1"/>
  <!-- Calendar body -->
  <rect x="25" y="25" width="100" height="105" rx="6" ry="6" fill="#00897b"/>
  <!-- Calendar header -->
  <rect x="25" y="25" width="100" height="25" rx="6" ry="0" fill="#00695c"/>
  <!-- Calendar binding rings -->
  <circle cx="50" cy="25" r="5" fill="#00695c" stroke="#e0f2f1" stroke-width="2"/>
  <circle cx="100" cy="25" r="5" fill="#00695c" stroke="#e0f2f1" stroke-width="2"/>
  <!-- Calendar grid lines -->
  <line x1="40" y1="65" x2="110" y2="65" stroke="#e0f2f1" stroke-width="0.5" opacity="0.3"/>
  <line x1="40" y1="80" x2="110" y2="80" stroke="#e0f2f1" stroke-width="0.5" opacity="0.3"/>
  <line x1="40" y1="95" x2="110" y2="95" stroke="#e0f2f1" stroke-width="0.5" opacity="0.3"/>
  <line x1="40" y1="110" x2="110" y2="110" stroke="#e0f2f1" stroke-width="0.5" opacity="0.3"/>
  <line x1="55" y1="55" x2="55" y2="125" stroke="#e0f2f1" stroke-width="0.5" opacity="0.3"/>
  <line x1="75" y1="55" x2="75" y2="125" stroke="#e0f2f1" stroke-width="0.5" opacity="0.3"/>
  <line x1="95" y1="55" x2="95" y2="125" stroke="#e0f2f1" stroke-width="0.5" opacity="0.3"/>
  <!-- Date dots (representing days) -->
  <circle cx="45" cy="60" r="2" fill="#e0f2f1" opacity="0.4"/>
  <circle cx="65" cy="60" r="2" fill="#e0f2f1" opacity="0.4"/>
  <circle cx="85" cy="60" r="2" fill="#e0f2f1" opacity="0.4"/>
  <circle cx="105" cy="60" r="2" fill="#e0f2f1" opacity="0.4"/>
  <circle cx="45" cy="75" r="2" fill="#e0f2f1" opacity="0.4"/>
  <circle cx="65" cy="75" r="2" fill="#e0f2f1" opacity="0.4"/>
  <!-- Highlighted date (vaccine day) -->
  <circle cx="85" cy="75" r="6" fill="#00695c"/>
  <circle cx="105" cy="75" r="2" fill="#e0f2f1" opacity="0.4"/>
  <circle cx="45" cy="90" r="2" fill="#e0f2f1" opacity="0.4"/>
  <circle cx="65" cy="90" r="2" fill="#e0f2f1" opacity="0.4"/>
  <circle cx="85" cy="90" r="2" fill="#e0f2f1" opacity="0.4"/>
  <!-- Syringe overlay -->
  <rect x="130" y="35" width="10" height="60" rx="3" ry="3" fill="#00897b"/>
  <rect x="130" y="35" width="10" height="60" rx="3" ry="3" fill="none" stroke="#00695c" stroke-width="1.5"/>
  <!-- Syringe plunger -->
  <rect x="133" y="20" width="4" height="18" fill="#00695c"/>
  <rect x="130" y="16" width="10" height="6" rx="2" fill="#00695c"/>
  <!-- Syringe needle -->
  <rect x="133" y="95" width="4" height="15" fill="#00695c"/>
  <polygon points="133,110 137,110 135,120" fill="#00695c"/>
  <!-- Syringe lines -->
  <line x1="130" y1="50" x2="136" y2="50" stroke="#00695c" stroke-width="0.8"/>
  <line x1="130" y1="60" x2="136" y2="60" stroke="#00695c" stroke-width="0.8"/>
  <line x1="130" y1="70" x2="136" y2="70" stroke="#00695c" stroke-width="0.8"/>
  <line x1="130" y1="80" x2="136" y2="80" stroke="#00695c" stroke-width="0.8"/>
  <!-- Liquid in syringe -->
  <rect x="132" y="65" width="6" height="28" rx="1" fill="#00695c" opacity="0.3"/>
  <!-- Arrow from calendar to syringe -->
  <line x1="110" y1="75" x2="125" y2="75" stroke="#00695c" stroke-width="2" stroke-dasharray="3,2"/>
</svg>