<svg xmlns="http://www.w3.org/2000/svg" width="200" height="150" viewBox="0 0 200 150">
  <rect width="200" height="150" rx="12" ry="12" fill="#e0f2f1"/>
  <!-- Folder back -->
  <rect x="35" y="30" width="130" height="100" rx="5" ry="5" fill="#00695c"/>
  <!-- Folder tab -->
  <path d="M35 30 L35 22 Q35 18 39 18 L75 18 L82 30" fill="#00695c"/>
  <!-- Folder front -->
  <rect x="35" y="45" width="130" height="85" rx="5" ry="5" fill="#00897b"/>
  <!-- Medical cross on folder -->
  <rect x="82" y="65" width="36" height="12" rx="2" fill="#e0f2f1"/>
  <rect x="94" y="53" width="12" height="36" rx="2" fill="#e0f2f1"/>
  <!-- Cross inner -->
  <rect x="86" y="68" width="28" height="6" rx="1" fill="#00695c" opacity="0.3"/>
  <rect x="97" y="57" width="6" height="28" rx="1" fill="#00695c" opacity="0.3"/>
  <!-- Document lines peeking out top -->
  <line x1="50" y1="38" x2="110" y2="38" stroke="#e0f2f1" stroke-width="1.5" opacity="0.5"/>
  <line x1="50" y1="42" x2="90" y2="42" stroke="#e0f2f1" stroke-width="1.5" opacity="0.5"/>
  <!-- Folder bottom line detail -->
  <line x1="50" y1="108" x2="150" y2="108" stroke="#00695c" stroke-width="1" opacity="0.3"/>
  <line x1="50" y1="115" x2="130" y2="115" stroke="#00695c" stroke-width="1" opacity="0.3"/>
</svg>