<svg xmlns="http://www.w3.org/2000/svg" width="200" height="150" viewBox="0 0 200 150">
  <rect width="200" height="150" rx="12" ry="12" fill="#e8f0fe"/>
  <!-- Main database cylinder -->
  <ellipse cx="100" cy="40" rx="40" ry="14" fill="#1a73e8" stroke="#174ea6" stroke-width="1.5"/>
  <rect x="60" y="40" width="80" height="50" fill="#1a73e8"/>
  <ellipse cx="100" cy="90" rx="40" ry="14" fill="#174ea6"/>
  <ellipse cx="100" cy="55" rx="40" ry="14" fill="none" stroke="#174ea6" stroke-width="1" opacity="0.3"/>
  <ellipse cx="100" cy="70" rx="40" ry="14" fill="none" stroke="#174ea6" stroke-width="1" opacity="0.3"/>
  <!-- Data flow arrow left (out) -->
  <path d="M55,65 C30,65 25,110 40,115" fill="none" stroke="#174ea6" stroke-width="2"/>
  <polygon points="42,118 36,112 44,112" fill="#174ea6"/>
  <!-- Data flow arrow right (in) -->
  <path d="M145,65 C170,65 175,110 160,115" fill="none" stroke="#174ea6" stroke-width="2"/>
  <polygon points="158,118 164,112 156,112" fill="#174ea6"/>
  <!-- Small data blocks left -->
  <rect x="25" y="120" width="30" height="6" rx="2" fill="#1a73e8"/>
  <rect x="25" y="129" width="30" height="6" rx="2" fill="#1a73e8"/>
  <!-- Small data blocks right -->
  <rect x="145" y="120" width="30" height="6" rx="2" fill="#1a73e8"/>
  <rect x="145" y="129" width="30" height="6" rx="2" fill="#1a73e8"/>
  <!-- Top arrow (input) -->
  <line x1="100" y1="10" x2="100" y2="24" stroke="#174ea6" stroke-width="2"/>
  <polygon points="100,26 95,20 105,20" fill="#174ea6"/>
  <!-- Data dots on cylinder -->
  <circle cx="85" cy="45" r="2" fill="#e8f0fe"/>
  <circle cx="100" cy="43" r="2" fill="#e8f0fe"/>
  <circle cx="115" cy="45" r="2" fill="#e8f0fe"/>
</svg>