<svg xmlns="http://www.w3.org/2000/svg" width="200" height="150" viewBox="0 0 200 150">
  <rect width="200" height="150" rx="12" ry="12" fill="#e8f0fe"/>
  <!-- Central hub -->
  <rect x="80" y="55" width="40" height="40" rx="6" ry="6" fill="#1a73e8"/>
  <circle cx="90" cy="68" r="3" fill="#e8f0fe"/>
  <circle cx="100" cy="68" r="3" fill="#e8f0fe"/>
  <circle cx="110" cy="68" r="3" fill="#e8f0fe"/>
  <circle cx="90" cy="80" r="3" fill="#e8f0fe"/>
  <circle cx="100" cy="80" r="3" fill="#e8f0fe"/>
  <circle cx="110" cy="80" r="3" fill="#e8f0fe"/>
  <!-- Radiating cables -->
  <line x1="80" y1="65" x2="30" y2="30" stroke="#174ea6" stroke-width="2.5"/>
  <line x1="120" y1="65" x2="170" y2="30" stroke="#174ea6" stroke-width="2.5"/>
  <line x1="80" y1="85" x2="30" y2="120" stroke="#174ea6" stroke-width="2.5"/>
  <line x1="120" y1="85" x2="170" y2="120" stroke="#174ea6" stroke-width="2.5"/>
  <line x1="100" y1="55" x2="100" y2="18" stroke="#174ea6" stroke-width="2.5"/>
  <line x1="100" y1="95" x2="100" y2="132" stroke="#174ea6" stroke-width="2.5"/>
  <!-- Endpoint nodes -->
  <rect x="18" y="20" width="24" height="18" rx="3" fill="#174ea6"/>
  <rect x="158" y="20" width="24" height="18" rx="3" fill="#174ea6"/>
  <rect x="18" y="112" width="24" height="18" rx="3" fill="#174ea6"/>
  <rect x="158" y="112" width="24" height="18" rx="3" fill="#174ea6"/>
  <rect x="88" y="8" width="24" height="18" rx="3" fill="#174ea6"/>
  <rect x="88" y="124" width="24" height="18" rx="3" fill="#174ea6"/>
  <!-- LED indicators on endpoints -->
  <circle cx="26" cy="26" r="2" fill="#34a853"/>
  <circle cx="166" cy="26" r="2" fill="#34a853"/>
  <circle cx="26" cy="118" r="2" fill="#fbbc04"/>
  <circle cx="166" cy="118" r="2" fill="#34a853"/>
  <circle cx="96" cy="14" r="2" fill="#34a853"/>
  <circle cx="96" cy="130" r="2" fill="#fbbc04"/>
</svg>