<svg xmlns="http://www.w3.org/2000/svg" width="200" height="150" viewBox="0 0 200 150">
  <rect width="200" height="150" rx="12" ry="12" fill="#e8f0fe"/>
  <!-- Dashboard frame -->
  <rect x="12" y="10" width="176" height="130" rx="6" ry="6" fill="white" stroke="#1a73e8" stroke-width="2"/>
  <!-- Top bar -->
  <rect x="12" y="10" width="176" height="16" rx="6" ry="6" fill="#174ea6"/>
  <rect x="12" y="20" width="176" height="6" fill="#174ea6"/>
  <!-- Status dots in top bar -->
  <circle cx="24" cy="18" r="3" fill="#34a853"/>
  <circle cx="34" cy="18" r="3" fill="#34a853"/>
  <circle cx="44" cy="18" r="3" fill="#fbbc04"/>
  <!-- Panel 1: Line graph (top-left) -->
  <rect x="18" y="32" width="80" height="46" rx="3" fill="#f8faff" stroke="#e8f0fe" stroke-width="1"/>
  <polyline points="24,68 34,62 44,65 54,52 64,58 74,45 84,48 92,40" fill="none" stroke="#1a73e8" stroke-width="2"/>
  <circle cx="92" cy="40" r="2.5" fill="#1a73e8"/>
  <!-- Panel 2: Bar chart (top-right) -->
  <rect x="102" y="32" width="80" height="46" rx="3" fill="#f8faff" stroke="#e8f0fe" stroke-width="1"/>
  <rect x="110" y="58" width="8" height="16" fill="#1a73e8"/>
  <rect x="122" y="50" width="8" height="24" fill="#174ea6"/>
  <rect x="134" y="55" width="8" height="19" fill="#1a73e8"/>
  <rect x="146" y="42" width="8" height="32" fill="#174ea6"/>
  <rect x="158" y="48" width="8" height="26" fill="#1a73e8"/>
  <rect x="170" y="38" width="8" height="36" fill="#174ea6"/>
  <!-- Panel 3: Metrics (bottom-left) -->
  <rect x="18" y="82" width="80" height="52" rx="3" fill="#f8faff" stroke="#e8f0fe" stroke-width="1"/>
  <!-- CPU gauge -->
  <circle cx="42" cy="100" r="12" fill="none" stroke="#e8f0fe" stroke-width="4"/>
  <path d="M42,88 A12,12 0 1,1 32,106" fill="none" stroke="#34a853" stroke-width="4"/>
  <!-- Memory gauge -->
  <circle cx="74" cy="100" r="12" fill="none" stroke="#e8f0fe" stroke-width="4"/>
  <path d="M74,88 A12,12 0 1,1 62,100" fill="none" stroke="#fbbc04" stroke-width="4"/>
  <!-- Metric bars -->
  <rect x="24" y="118" width="40" height="4" rx="2" fill="#e8f0fe"/>
  <rect x="24" y="118" width="28" height="4" rx="2" fill="#34a853"/>
  <rect x="24" y="126" width="40" height="4" rx="2" fill="#e8f0fe"/>
  <rect x="24" y="126" width="34" height="4" rx="2" fill="#fbbc04"/>
  <!-- Panel 4: Alert feed (bottom-right) -->
  <rect x="102" y="82" width="80" height="52" rx="3" fill="#f8faff" stroke="#e8f0fe" stroke-width="1"/>
  <circle cx="110" cy="92" r="2.5" fill="#34a853"/>
  <line x1="116" y1="92" x2="170" y2="92" stroke="#174ea6" stroke-width="1.5"/>
  <circle cx="110" cy="101" r="2.5" fill="#34a853"/>
  <line x1="116" y1="101" x2="165" y2="101" stroke="#174ea6" stroke-width="1.5"/>
  <circle cx="110" cy="110" r="2.5" fill="#fbbc04"/>
  <line x1="116" y1="110" x2="168" y2="110" stroke="#174ea6" stroke-width="1.5"/>
  <circle cx="110" cy="119" r="2.5" fill="#e8453c"/>
  <line x1="116" y1="119" x2="160" y2="119" stroke="#174ea6" stroke-width="1.5"/>
  <circle cx="110" cy="128" r="2.5" fill="#34a853"/>
  <line x1="116" y1="128" x2="172" y2="128" stroke="#174ea6" stroke-width="1.5"/>
</svg>