<svg xmlns="http://www.w3.org/2000/svg" width="200" height="150" viewBox="0 0 200 150">
  <rect width="200" height="150" rx="12" ry="12" fill="#e8f0fe"/>
  <!-- Checklist paper -->
  <rect x="40" y="20" width="70" height="110" rx="4" ry="4" fill="white" stroke="#1a73e8" stroke-width="2"/>
  <!-- Checklist lines with check/cross -->
  <line x1="55" y1="42" x2="95" y2="42" stroke="#174ea6" stroke-width="2"/>
  <polyline points="48,40 51,44 57,36" fill="none" stroke="#1a73e8" stroke-width="2.5"/>
  <line x1="55" y1="58" x2="95" y2="58" stroke="#174ea6" stroke-width="2"/>
  <polyline points="48,56 51,60 57,54" fill="none" stroke="#1a73e8" stroke-width="2.5"/>
  <line x1="55" y1="74" x2="95" y2="74" stroke="#174ea6" stroke-width="2"/>
  <line x1="47" y1="70" x2="57" y2="78" stroke="#e8453c" stroke-width="2.5"/>
  <line x1="57" y1="70" x2="47" y2="78" stroke="#e8453c" stroke-width="2.5"/>
  <line x1="55" y1="90" x2="95" y2="90" stroke="#174ea6" stroke-width="2"/>
  <polyline points="48,88 51,92 57,84" fill="none" stroke="#1a73e8" stroke-width="2.5"/>
  <line x1="55" y1="106" x2="95" y2="106" stroke="#174ea6" stroke-width="2"/>
  <line x1="47" y1="102" x2="57" y2="112" stroke="#e8453c" stroke-width="2.5"/>
  <line x1="57" y1="102" x2="47" y2="112" stroke="#e8453c" stroke-width="2.5"/>
  <!-- Magnifying glass -->
  <circle cx="135" cy="65" r="30" fill="none" stroke="#1a73e8" stroke-width="4"/>
  <circle cx="135" cy="65" r="25" fill="#e8f0fe" fill-opacity="0.5"/>
  <line x1="155" y1="87" x2="172" y2="108" stroke="#174ea6" stroke-width="6" stroke-linecap="round"/>
</svg>