<svg xmlns="http://www.w3.org/2000/svg" width="200" height="150" viewBox="0 0 200 150">
  <rect width="200" height="150" rx="12" ry="12" fill="#e8f0fe"/>
  <!-- Phone body -->
  <rect x="65" y="10" width="70" height="130" rx="10" ry="10" fill="white" stroke="#1a73e8" stroke-width="2.5"/>
  <!-- Screen area -->
  <rect x="72" y="28" width="56" height="95" fill="#f0f4ff"/>
  <!-- Top notch -->
  <rect x="90" y="14" width="20" height="6" rx="3" ry="3" fill="#e8f0fe"/>
  <!-- UI wireframe elements -->
  <!-- Header bar -->
  <rect x="72" y="28" width="56" height="12" fill="#1a73e8"/>
  <!-- Profile circle -->
  <circle cx="85" cy="52" r="6" fill="none" stroke="#174ea6" stroke-width="1.5"/>
  <!-- Text lines next to profile -->
  <line x1="95" y1="49" x2="122" y2="49" stroke="#174ea6" stroke-width="2"/>
  <line x1="95" y1="55" x2="114" y2="55" stroke="#174ea6" stroke-width="1.5" opacity="0.5"/>
  <!-- Content cards -->
  <rect x="76" y="64" width="48" height="16" rx="2" fill="white" stroke="#1a73e8" stroke-width="1"/>
  <line x1="80" y1="70" x2="110" y2="70" stroke="#174ea6" stroke-width="1.5" opacity="0.4"/>
  <line x1="80" y1="75" x2="100" y2="75" stroke="#174ea6" stroke-width="1" opacity="0.3"/>
  <rect x="76" y="84" width="48" height="16" rx="2" fill="white" stroke="#1a73e8" stroke-width="1"/>
  <line x1="80" y1="90" x2="110" y2="90" stroke="#174ea6" stroke-width="1.5" opacity="0.4"/>
  <line x1="80" y1="95" x2="100" y2="95" stroke="#174ea6" stroke-width="1" opacity="0.3"/>
  <!-- Bottom nav bar -->
  <rect x="72" y="107" width="56" height="16" fill="white" stroke="#1a73e8" stroke-width="1"/>
  <circle cx="84" cy="115" r="4" fill="#1a73e8"/>
  <circle cx="100" cy="115" r="4" fill="#e8f0fe" stroke="#1a73e8" stroke-width="1"/>
  <circle cx="116" cy="115" r="4" fill="#e8f0fe" stroke="#1a73e8" stroke-width="1"/>
  <!-- Home button -->
  <rect x="92" y="127" width="16" height="3" rx="1.5" ry="1.5" fill="#174ea6"/>
</svg>