<svg xmlns="http://www.w3.org/2000/svg" width="200" height="150" viewBox="0 0 200 150">
  <rect width="200" height="150" rx="12" ry="12" fill="#e8f0fe"/>
  <!-- Monitor frame -->
  <rect x="20" y="12" width="160" height="105" rx="6" ry="6" fill="#174ea6" stroke="#1a73e8" stroke-width="2"/>
  <!-- Screen -->
  <rect x="28" y="20" width="144" height="89" fill="#0d1b2a"/>
  <!-- Monitor stand -->
  <rect x="85" y="117" width="30" height="10" fill="#174ea6"/>
  <rect x="70" y="127" width="60" height="6" rx="2" fill="#174ea6"/>
  <!-- Dashboard grid -->
  <!-- Top left: threat graph -->
  <rect x="32" y="24" width="66" height="38" rx="2" fill="#0f2640"/>
  <polyline points="36,56 46,50 56,54 66,42 76,46 86,34 94,38" fill="none" stroke="#e8453c" stroke-width="1.5"/>
  <circle cx="86" cy="34" r="2" fill="#e8453c"/>
  <!-- Top right: pie chart -->
  <rect x="102" y="24" width="66" height="38" rx="2" fill="#0f2640"/>
  <circle cx="135" cy="43" r="14" fill="none" stroke="#34a853" stroke-width="4"/>
  <path d="M135,43 L135,29 A14,14 0 0,1 147,37 Z" fill="#e8453c"/>
  <!-- Bottom left: alert list -->
  <rect x="32" y="66" width="66" height="38" rx="2" fill="#0f2640"/>
  <circle cx="40" cy="74" r="2" fill="#e8453c"/>
  <line x1="46" y1="74" x2="90" y2="74" stroke="#1a73e8" stroke-width="1.5"/>
  <circle cx="40" cy="82" r="2" fill="#fbbc04"/>
  <line x1="46" y1="82" x2="85" y2="82" stroke="#1a73e8" stroke-width="1.5"/>
  <circle cx="40" cy="90" r="2" fill="#34a853"/>
  <line x1="46" y1="90" x2="88" y2="90" stroke="#1a73e8" stroke-width="1.5"/>
  <circle cx="40" cy="98" r="2" fill="#e8453c"/>
  <line x1="46" y1="98" x2="82" y2="98" stroke="#1a73e8" stroke-width="1.5"/>
  <!-- Bottom right: shield icon -->
  <rect x="102" y="66" width="66" height="38" rx="2" fill="#0f2640"/>
  <path d="M135,72 L148,78 L148,90 C148,96 142,100 135,103 C128,100 122,96 122,90 L122,78 Z" fill="none" stroke="#1a73e8" stroke-width="2"/>
  <polyline points="129,88 133,92 141,84" fill="none" stroke="#34a853" stroke-width="2"/>
</svg>