<svg xmlns="http://www.w3.org/2000/svg" width="200" height="150" viewBox="0 0 200 150">
  <rect width="200" height="150" rx="12" ry="12" fill="#e8f0fe"/>
  <!-- Server rack frame -->
  <rect x="45" y="10" width="110" height="130" rx="4" ry="4" fill="#174ea6" stroke="#1a73e8" stroke-width="2"/>
  <!-- Server unit 1 -->
  <rect x="52" y="16" width="96" height="24" rx="2" fill="white" stroke="#1a73e8" stroke-width="1"/>
  <rect x="58" y="22" width="50" height="4" rx="1" fill="#e8f0fe"/>
  <rect x="58" y="30" width="30" height="4" rx="1" fill="#e8f0fe"/>
  <circle cx="130" cy="24" r="3" fill="#34a853"/>
  <circle cx="130" cy="33" r="3" fill="#34a853"/>
  <circle cx="140" cy="24" r="3" fill="#1a73e8"/>
  <!-- Server unit 2 -->
  <rect x="52" y="44" width="96" height="24" rx="2" fill="white" stroke="#1a73e8" stroke-width="1"/>
  <rect x="58" y="50" width="50" height="4" rx="1" fill="#e8f0fe"/>
  <rect x="58" y="58" width="30" height="4" rx="1" fill="#e8f0fe"/>
  <circle cx="130" cy="52" r="3" fill="#34a853"/>
  <circle cx="130" cy="61" r="3" fill="#fbbc04"/>
  <circle cx="140" cy="52" r="3" fill="#1a73e8"/>
  <!-- Server unit 3 -->
  <rect x="52" y="72" width="96" height="24" rx="2" fill="white" stroke="#1a73e8" stroke-width="1"/>
  <rect x="58" y="78" width="50" height="4" rx="1" fill="#e8f0fe"/>
  <rect x="58" y="86" width="30" height="4" rx="1" fill="#e8f0fe"/>
  <circle cx="130" cy="80" r="3" fill="#34a853"/>
  <circle cx="130" cy="89" r="3" fill="#34a853"/>
  <circle cx="140" cy="80" r="3" fill="#34a853"/>
  <!-- Server unit 4 -->
  <rect x="52" y="100" width="96" height="24" rx="2" fill="white" stroke="#1a73e8" stroke-width="1"/>
  <rect x="58" y="106" width="50" height="4" rx="1" fill="#e8f0fe"/>
  <rect x="58" y="114" width="30" height="4" rx="1" fill="#e8f0fe"/>
  <circle cx="130" cy="108" r="3" fill="#e8453c"/>
  <circle cx="130" cy="117" r="3" fill="#fbbc04"/>
  <circle cx="140" cy="108" r="3" fill="#1a73e8"/>
  <!-- Rack feet -->
  <rect x="50" y="132" width="10" height="8" rx="1" fill="#174ea6"/>
  <rect x="140" y="132" width="10" height="8" rx="1" fill="#174ea6"/>
</svg>