<svg xmlns="http://www.w3.org/2000/svg" viewBox="0 0 200 150" width="200" height="150">
  <rect width="200" height="150" rx="8" fill="#e8f0fe"/>
  <!-- Shield shape -->
  <path d="M100,14 L148,34 L148,72 Q148,110 100,136 Q52,110 52,72 L52,34 Z"
        fill="#1a73e8" opacity="0.12" stroke="#1a73e8" stroke-width="2.5"/>
  <!-- Inner shield border -->
  <path d="M100,24 L140,40 L140,72 Q140,104 100,126 Q60,104 60,72 L60,40 Z"
        fill="#1a73e8" opacity="0.08" stroke="#1a73e8" stroke-width="1" stroke-dasharray="4,3"/>
  <!-- Flame - outer -->
  <path d="M100,42 Q116,58 116,76 Q116,90 100,98 Q84,90 84,76 Q84,58 100,42 Z"
        fill="#1a73e8" opacity="0.35"/>
  <!-- Flame - middle -->
  <path d="M100,50 Q112,62 112,76 Q112,86 100,92 Q88,86 88,76 Q88,62 100,50 Z"
        fill="#1a73e8" opacity="0.5"/>
  <!-- Flame - inner -->
  <path d="M100,58 Q108,66 108,76 Q108,82 100,86 Q92,82 92,76 Q92,66 100,58 Z"
        fill="#1a73e8" opacity="0.7"/>
  <!-- Flame flicker left -->
  <path d="M90,52 Q86,62 88,70 Q84,60 90,52 Z" fill="#1a73e8" opacity="0.3"/>
  <!-- Flame flicker right -->
  <path d="M110,52 Q114,62 112,70 Q116,60 110,52 Z" fill="#1a73e8" opacity="0.3"/>
  <!-- Flame core highlight -->
  <ellipse cx="100" cy="78" rx="5" ry="6" fill="#e8f0fe" opacity="0.5"/>
  <!-- Shield horizontal line decorations -->
  <line x1="62" y1="48" x2="82" y2="48" stroke="#1a73e8" stroke-width="1.5" opacity="0.3"/>
  <line x1="118" y1="48" x2="138" y2="48" stroke="#1a73e8" stroke-width="1.5" opacity="0.3"/>
  <!-- Shield corner accents -->
  <circle cx="66" cy="48" r="2" fill="#1a73e8" opacity="0.4"/>
  <circle cx="134" cy="48" r="2" fill="#1a73e8" opacity="0.4"/>
</svg>
