<svg xmlns="http://www.w3.org/2000/svg" width="200" height="150" viewBox="0 0 200 150">
  <rect width="200" height="150" rx="12" ry="12" fill="#e8f0fe"/>
  <!-- Terminal window -->
  <rect x="20" y="75" width="110" height="65" rx="6" ry="6" fill="#1e293b" stroke="#1a73e8" stroke-width="2"/>
  <!-- Terminal title bar -->
  <rect x="20" y="75" width="110" height="14" rx="6" ry="6" fill="#174ea6"/>
  <rect x="20" y="83" width="110" height="6" fill="#174ea6"/>
  <circle cx="30" cy="82" r="3" fill="#e8453c"/>
  <circle cx="40" cy="82" r="3" fill="#fbbc04"/>
  <circle cx="50" cy="82" r="3" fill="#34a853"/>
  <!-- Terminal text lines -->
  <line x1="28" y1="97" x2="60" y2="97" stroke="#34a853" stroke-width="1.5"/>
  <line x1="28" y1="104" x2="80" y2="104" stroke="#1a73e8" stroke-width="1.5"/>
  <line x1="28" y1="111" x2="70" y2="111" stroke="#34a853" stroke-width="1.5"/>
  <line x1="28" y1="118" x2="55" y2="118" stroke="#e8f0fe" stroke-width="1.5" opacity="0.6"/>
  <!-- Cursor -->
  <rect x="57" y="116" width="6" height="8" fill="#34a853" opacity="0.7"/>
  <!-- Rocket body -->
  <path d="M155,85 L145,105 L155,100 L165,105 Z" fill="#174ea6"/>
  <path d="M155,35 C155,35 140,60 140,85 L155,80 L170,85 C170,60 155,35 155,35 Z" fill="#1a73e8"/>
  <!-- Rocket window -->
  <circle cx="155" cy="60" r="6" fill="#e8f0fe"/>
  <circle cx="155" cy="60" r="4" fill="#174ea6"/>
  <!-- Rocket nose cone highlight -->
  <path d="M155,35 C155,35 148,55 146,70" fill="none" stroke="#e8f0fe" stroke-width="1.5" opacity="0.3"/>
  <!-- Fins -->
  <path d="M140,85 L132,95 L140,90 Z" fill="#174ea6"/>
  <path d="M170,85 L178,95 L170,90 Z" fill="#174ea6"/>
  <!-- Flame -->
  <polygon points="148,105 155,130 162,105" fill="#fbbc04"/>
  <polygon points="150,105 155,122 160,105" fill="#e8453c" opacity="0.8"/>
  <!-- Smoke trail -->
  <circle cx="150" cy="133" r="4" fill="#174ea6" opacity="0.2"/>
  <circle cx="158" cy="138" r="5" fill="#174ea6" opacity="0.15"/>
  <circle cx="145" cy="140" r="6" fill="#174ea6" opacity="0.1"/>
  <!-- Launch pad line -->
  <line x1="135" y1="108" x2="175" y2="108" stroke="#174ea6" stroke-width="1" stroke-dasharray="3,2" opacity="0.4"/>
  <!-- Speed lines -->
  <line x1="140" y1="92" x2="130" y2="100" stroke="#1a73e8" stroke-width="1" opacity="0.4"/>
  <line x1="170" y1="92" x2="180" y2="100" stroke="#1a73e8" stroke-width="1" opacity="0.4"/>
  <line x1="143" y1="78" x2="132" y2="82" stroke="#1a73e8" stroke-width="1" opacity="0.3"/>
  <line x1="167" y1="78" x2="178" y2="82" stroke="#1a73e8" stroke-width="1" opacity="0.3"/>
</svg>