<svg xmlns="http://www.w3.org/2000/svg" width="200" height="150" viewBox="0 0 200 150">
  <rect width="200" height="150" rx="12" ry="12" fill="#e8f0fe"/>
  <!-- Left endpoint (computer) -->
  <rect x="12" y="55" width="35" height="28" rx="3" fill="#174ea6"/>
  <rect x="16" y="59" width="27" height="18" fill="#e8f0fe"/>
  <rect x="22" y="83" width="15" height="4" rx="1" fill="#174ea6"/>
  <!-- Right endpoint (computer) -->
  <rect x="153" y="55" width="35" height="28" rx="3" fill="#174ea6"/>
  <rect x="157" y="59" width="27" height="18" fill="#e8f0fe"/>
  <rect x="163" y="83" width="15" height="4" rx="1" fill="#174ea6"/>
  <!-- VPN tunnel (pipe) -->
  <rect x="47" y="58" width="106" height="8" rx="4" fill="#1a73e8" opacity="0.3"/>
  <rect x="47" y="72" width="106" height="8" rx="4" fill="#1a73e8" opacity="0.3"/>
  <!-- Tunnel walls -->
  <line x1="47" y1="56" x2="153" y2="56" stroke="#1a73e8" stroke-width="2"/>
  <line x1="47" y1="82" x2="153" y2="82" stroke="#1a73e8" stroke-width="2"/>
  <!-- Encrypted data packets in tunnel -->
  <rect x="60" y="62" width="12" height="14" rx="2" fill="#1a73e8"/>
  <rect x="80" y="62" width="12" height="14" rx="2" fill="#174ea6"/>
  <rect x="100" y="62" width="12" height="14" rx="2" fill="#1a73e8"/>
  <rect x="120" y="62" width="12" height="14" rx="2" fill="#174ea6"/>
  <!-- Lock icon (center, above tunnel) -->
  <rect x="88" y="22" width="24" height="18" rx="3" fill="#174ea6"/>
  <path d="M95,22 L95,15 C95,10 105,10 105,15 L105,22" fill="none" stroke="#174ea6" stroke-width="3"/>
  <circle cx="100" cy="31" r="3" fill="#e8f0fe"/>
  <line x1="100" y1="33" x2="100" y2="37" stroke="#e8f0fe" stroke-width="2"/>
  <!-- Shield aura around lock -->
  <path d="M100,8 L116,16 L116,30 C116,40 108,46 100,48 C92,46 84,40 84,30 L84,16 Z" fill="none" stroke="#1a73e8" stroke-width="1.5" opacity="0.4"/>
  <!-- Connection lines from lock to tunnel -->
  <line x1="100" y1="48" x2="100" y2="56" stroke="#174ea6" stroke-width="1.5" stroke-dasharray="3,2"/>
  <!-- Secure indicators -->
  <circle cx="55" cy="110" r="3" fill="#34a853"/>
  <line x1="58" y1="110" x2="142" y2="110" stroke="#34a853" stroke-width="1.5" stroke-dasharray="5,3"/>
  <circle cx="145" cy="110" r="3" fill="#34a853"/>
</svg>