<svg xmlns="http://www.w3.org/2000/svg" width="200" height="150" viewBox="0 0 200 150">
  <rect width="200" height="150" rx="12" ry="12" fill="#f3e5f5"/>
  <!-- Birdcage base -->
  <ellipse cx="90" cy="125" rx="30" ry="6" fill="#6a1b9a"/>
  <!-- Cage bars -->
  <path d="M60,125 Q60,40 90,30 Q120,40 120,125" fill="none" stroke="#6a1b9a" stroke-width="2"/>
  <line x1="70" y1="120" x2="75" y2="35" stroke="#6a1b9a" stroke-width="1.5"/>
  <line x1="90" y1="125" x2="90" y2="30" stroke="#6a1b9a" stroke-width="1.5"/>
  <line x1="110" y1="120" x2="105" y2="35" stroke="#6a1b9a" stroke-width="1.5"/>
  <!-- Horizontal rings -->
  <ellipse cx="90" cy="55" rx="24" ry="4" fill="none" stroke="#6a1b9a" stroke-width="1.2"/>
  <ellipse cx="90" cy="80" rx="28" ry="5" fill="none" stroke="#6a1b9a" stroke-width="1.2"/>
  <!-- Open door -->
  <path d="M105,70 L125,55 L125,85 L105,100" fill="#f3e5f5" stroke="#6a1b9a" stroke-width="1.5"/>
  <!-- Hook on top -->
  <circle cx="90" cy="26" r="3" fill="#4a148c"/>
  <path d="M90,23 Q90,15 95,15" stroke="#4a148c" stroke-width="2" fill="none"/>
  <!-- Key -->
  <circle cx="155" cy="75" r="10" fill="none" stroke="#4a148c" stroke-width="3"/>
  <line x1="155" y1="85" x2="155" y2="115" stroke="#4a148c" stroke-width="3"/>
  <line x1="155" y1="105" x2="162" y2="105" stroke="#4a148c" stroke-width="2.5"/>
  <line x1="155" y1="112" x2="164" y2="112" stroke="#4a148c" stroke-width="2.5"/>
  <!-- Small bird silhouette flying out -->
  <path d="M130,45 Q135,38 140,42 Q142,38 148,40" fill="none" stroke="#6a1b9a" stroke-width="2"/>
</svg>