<svg xmlns="http://www.w3.org/2000/svg" width="200" height="150" viewBox="0 0 200 150">
  <rect width="200" height="150" rx="12" ry="12" fill="#f3e5f5"/>
  <!-- Large judicial shield -->
  <path d="M100,20 L145,40 L145,80 Q145,115 100,135 Q55,115 55,80 L55,40 Z" fill="#6a1b9a" opacity="0.3" stroke="#6a1b9a" stroke-width="2.5"/>
  <path d="M100,30 L137,47 L137,78 Q137,108 100,125 Q63,108 63,78 L63,47 Z" fill="#f3e5f5" stroke="#6a1b9a" stroke-width="1.5"/>
  <!-- Shield inner design -->
  <path d="M100,40 L128,53 L128,76 Q128,100 100,115 Q72,100 72,76 L72,53 Z" fill="#6a1b9a" opacity="0.15"/>
  <!-- Small child figure -->
  <circle cx="100" cy="65" r="8" fill="#4a148c"/>
  <!-- Body -->
  <rect x="94" y="73" width="12" height="18" rx="4" fill="#4a148c"/>
  <!-- Arms -->
  <line x1="94" y1="78" x2="86" y2="85" stroke="#4a148c" stroke-width="2.5" stroke-linecap="round"/>
  <line x1="106" y1="78" x2="114" y2="85" stroke="#4a148c" stroke-width="2.5" stroke-linecap="round"/>
  <!-- Legs -->
  <line x1="97" y1="91" x2="93" y2="105" stroke="#4a148c" stroke-width="2.5" stroke-linecap="round"/>
  <line x1="103" y1="91" x2="107" y2="105" stroke="#4a148c" stroke-width="2.5" stroke-linecap="round"/>
</svg>