<svg xmlns="http://www.w3.org/2000/svg" width="200" height="150" viewBox="0 0 200 150">
  <rect width="200" height="150" rx="12" ry="12" fill="#f3e5f5"/>
  <!-- Case file folder -->
  <rect x="40" y="20" width="120" height="110" rx="4" fill="#6a1b9a"/>
  <!-- Folder tab -->
  <path d="M40,25 L40,15 L85,15 L95,25" fill="#6a1b9a" stroke="#4a148c" stroke-width="1"/>
  <!-- Document inside -->
  <rect x="50" y="30" width="100" height="90" rx="2" fill="white" stroke="#6a1b9a" stroke-width="1"/>
  <!-- Document text lines -->
  <line x1="58" y1="42" x2="142" y2="42" stroke="#6a1b9a" stroke-width="0.8" opacity="0.3"/>
  <line x1="58" y1="52" x2="142" y2="52" stroke="#6a1b9a" stroke-width="0.8" opacity="0.3"/>
  <line x1="58" y1="62" x2="130" y2="62" stroke="#6a1b9a" stroke-width="0.8" opacity="0.3"/>
  <line x1="58" y1="72" x2="142" y2="72" stroke="#6a1b9a" stroke-width="0.8" opacity="0.3"/>
  <line x1="58" y1="82" x2="120" y2="82" stroke="#6a1b9a" stroke-width="0.8" opacity="0.3"/>
  <line x1="58" y1="92" x2="142" y2="92" stroke="#6a1b9a" stroke-width="0.8" opacity="0.3"/>
  <line x1="58" y1="102" x2="110" y2="102" stroke="#6a1b9a" stroke-width="0.8" opacity="0.3"/>
  <!-- Large X stamp -->
  <line x1="60" y1="35" x2="140" y2="115" stroke="#4a148c" stroke-width="8" stroke-linecap="round" opacity="0.7"/>
  <line x1="140" y1="35" x2="60" y2="115" stroke="#4a148c" stroke-width="8" stroke-linecap="round" opacity="0.7"/>
  <!-- Stamp border circle -->
  <circle cx="100" cy="75" r="40" fill="none" stroke="#4a148c" stroke-width="3" opacity="0.5"/>
</svg>