<svg xmlns="http://www.w3.org/2000/svg" width="200" height="150" viewBox="0 0 200 150">
  <rect width="200" height="150" rx="12" ry="12" fill="#f3e5f5"/>
  <!-- Large gear -->
  <circle cx="70" cy="80" r="30" fill="none" stroke="#6a1b9a" stroke-width="4"/>
  <circle cx="70" cy="80" r="18" fill="none" stroke="#6a1b9a" stroke-width="2"/>
  <circle cx="70" cy="80" r="6" fill="#6a1b9a"/>
  <!-- Large gear teeth -->
  <rect x="66" y="46" width="8" height="10" fill="#6a1b9a"/>
  <rect x="66" y="104" width="8" height="10" fill="#6a1b9a"/>
  <rect x="36" y="76" width="10" height="8" fill="#6a1b9a"/>
  <rect x="94" y="76" width="10" height="8" fill="#6a1b9a"/>
  <rect x="42" y="55" width="9" height="8" fill="#6a1b9a" transform="rotate(-45,46,59)"/>
  <rect x="89" y="55" width="9" height="8" fill="#6a1b9a" transform="rotate(45,93,59)"/>
  <rect x="42" y="97" width="9" height="8" fill="#6a1b9a" transform="rotate(45,46,101)"/>
  <rect x="89" y="97" width="9" height="8" fill="#6a1b9a" transform="rotate(-45,93,101)"/>
  <!-- Small gear -->
  <circle cx="125" cy="55" r="20" fill="none" stroke="#4a148c" stroke-width="3.5"/>
  <circle cx="125" cy="55" r="12" fill="none" stroke="#4a148c" stroke-width="2"/>
  <circle cx="125" cy="55" r="4" fill="#4a148c"/>
  <!-- Small gear teeth -->
  <rect x="122" y="32" width="6" height="8" fill="#4a148c"/>
  <rect x="122" y="70" width="6" height="8" fill="#4a148c"/>
  <rect x="102" y="52" width="8" height="6" fill="#4a148c"/>
  <rect x="140" y="52" width="8" height="6" fill="#4a148c"/>
  <rect x="107" y="37" width="7" height="6" fill="#4a148c" transform="rotate(-45,110,40)"/>
  <rect x="136" y="37" width="7" height="6" fill="#4a148c" transform="rotate(45,139,40)"/>
  <rect x="107" y="67" width="7" height="6" fill="#4a148c" transform="rotate(45,110,70)"/>
  <rect x="136" y="67" width="7" height="6" fill="#4a148c" transform="rotate(-45,139,70)"/>
  <!-- Scales of justice integrated -->
  <line x1="140" y1="90" x2="140" y2="115" stroke="#6a1b9a" stroke-width="2.5"/>
  <line x1="120" y1="100" x2="160" y2="100" stroke="#6a1b9a" stroke-width="2"/>
  <circle cx="140" cy="90" r="3" fill="#4a148c"/>
  <!-- Left pan -->
  <line x1="120" y1="100" x2="113" y2="112" stroke="#6a1b9a" stroke-width="1.2"/>
  <line x1="120" y1="100" x2="127" y2="112" stroke="#6a1b9a" stroke-width="1.2"/>
  <path d="M110,112 Q120,118 130,112" stroke="#6a1b9a" stroke-width="2" fill="none"/>
  <!-- Right pan -->
  <line x1="160" y1="100" x2="153" y2="112" stroke="#6a1b9a" stroke-width="1.2"/>
  <line x1="160" y1="100" x2="167" y2="112" stroke="#6a1b9a" stroke-width="1.2"/>
  <path d="M150,112 Q160,118 170,112" stroke="#6a1b9a" stroke-width="2" fill="none"/>
  <!-- Base -->
  <rect x="133" y="115" width="14" height="4" rx="2" fill="#4a148c"/>
  <!-- Rotation arrows on large gear -->
  <path d="M50,52 Q42,58 44,68" stroke="#6a1b9a" stroke-width="1.5" fill="none" opacity="0.4"/>
  <polygon points="44,68 40,62 48,64" fill="#6a1b9a" opacity="0.4"/>
</svg>