<svg xmlns="http://www.w3.org/2000/svg" width="200" height="150" viewBox="0 0 200 150">
  <rect width="200" height="150" rx="12" ry="12" fill="#f3e5f5"/>
  <!-- Book cover back -->
  <rect x="52" y="22" width="96" height="110" rx="4" fill="#4a148c"/>
  <!-- Book pages side -->
  <rect x="55" y="25" width="88" height="104" rx="2" fill="#f3e5f5" stroke="#6a1b9a" stroke-width="0.5"/>
  <!-- Book cover front -->
  <rect x="50" y="18" width="96" height="110" rx="4" fill="#6a1b9a" stroke="#4a148c" stroke-width="2"/>
  <!-- Spine detail -->
  <line x1="56" y1="18" x2="56" y2="128" stroke="#4a148c" stroke-width="2"/>
  <!-- Book thickness lines -->
  <line x1="148" y1="24" x2="148" y2="126" stroke="#4a148c" stroke-width="1" opacity="0.5"/>
  <!-- Paragraph symbol -->
  <path d="M105,45 L105,95" stroke="#f3e5f5" stroke-width="3"/>
  <path d="M115,45 L115,95" stroke="#f3e5f5" stroke-width="3"/>
  <path d="M90,55 Q90,45 105,45 L118,45" stroke="#f3e5f5" stroke-width="3" fill="none"/>
  <path d="M90,55 Q90,65 105,65" stroke="#f3e5f5" stroke-width="3" fill="none"/>
  <!-- Decorative border on cover -->
  <rect x="65" y="32" width="66" height="80" rx="2" fill="none" stroke="#f3e5f5" stroke-width="1" opacity="0.3"/>
  <!-- Bottom emblem -->
  <line x1="80" y1="105" x2="116" y2="105" stroke="#f3e5f5" stroke-width="1" opacity="0.4"/>
</svg>