<svg xmlns="http://www.w3.org/2000/svg" width="200" height="150" viewBox="0 0 200 150">
  <rect width="200" height="150" rx="12" ry="12" fill="#f3e5f5"/>
  <!-- Left opposing arrow -->
  <polygon points="20,75 50,60 50,68 90,68 90,82 50,82 50,90" fill="#4a148c"/>
  <!-- Right opposing arrow -->
  <polygon points="180,75 150,60 150,68 110,68 110,82 150,82 150,90" fill="#4a148c"/>
  <!-- Olive branch in the middle -->
  <path d="M100,30 Q100,75 100,120" stroke="#6a1b9a" stroke-width="2.5" fill="none"/>
  <!-- Left leaves -->
  <ellipse cx="90" cy="42" rx="8" ry="4" fill="#6a1b9a" transform="rotate(-30,90,42)"/>
  <ellipse cx="88" cy="58" rx="8" ry="4" fill="#6a1b9a" transform="rotate(-25,88,58)"/>
  <ellipse cx="90" cy="75" rx="8" ry="4" fill="#6a1b9a" transform="rotate(-30,90,75)"/>
  <ellipse cx="88" cy="92" rx="8" ry="4" fill="#6a1b9a" transform="rotate(-25,88,92)"/>
  <ellipse cx="90" cy="108" rx="8" ry="4" fill="#6a1b9a" transform="rotate(-30,90,108)"/>
  <!-- Right leaves -->
  <ellipse cx="110" cy="50" rx="8" ry="4" fill="#6a1b9a" transform="rotate(30,110,50)"/>
  <ellipse cx="112" cy="66" rx="8" ry="4" fill="#6a1b9a" transform="rotate(25,112,66)"/>
  <ellipse cx="110" cy="83" rx="8" ry="4" fill="#6a1b9a" transform="rotate(30,110,83)"/>
  <ellipse cx="112" cy="100" rx="8" ry="4" fill="#6a1b9a" transform="rotate(25,112,100)"/>
  <!-- Small olives -->
  <circle cx="95" cy="48" r="3" fill="#4a148c" opacity="0.5"/>
  <circle cx="105" cy="72" r="3" fill="#4a148c" opacity="0.5"/>
  <circle cx="95" cy="95" r="3" fill="#4a148c" opacity="0.5"/>
</svg>