<svg xmlns="http://www.w3.org/2000/svg" width="200" height="150" viewBox="0 0 200 150">
  <rect width="200" height="150" rx="12" ry="12" fill="#f1f8e9"/>
  <!-- Système de Communication: radio set with headphones -->
  <!-- Radio body -->
  <rect x="65" y="40" width="70" height="80" rx="5" fill="#558b2f"/>
  <rect x="70" y="45" width="60" height="70" rx="3" fill="#33691e"/>
  <!-- Frequency display -->
  <rect x="78" y="50" width="44" height="15" rx="2" fill="#f1f8e9" opacity="0.7"/>
  <!-- Frequency bars -->
  <rect x="82" y="53" width="3" height="9" fill="#558b2f"/>
  <rect x="88" y="56" width="3" height="6" fill="#558b2f"/>
  <rect x="94" y="51" width="3" height="11" fill="#558b2f"/>
  <rect x="100" y="54" width="3" height="8" fill="#558b2f"/>
  <rect x="106" y="52" width="3" height="10" fill="#558b2f"/>
  <rect x="112" y="55" width="3" height="7" fill="#558b2f"/>
  <!-- Dial -->
  <circle cx="88" cy="82" r="10" fill="#558b2f"/>
  <circle cx="88" cy="82" r="6" fill="#f1f8e9" opacity="0.5"/>
  <line x1="88" y1="82" x2="88" y2="74" stroke="#33691e" stroke-width="2"/>
  <!-- Buttons -->
  <circle cx="115" cy="78" r="4" fill="#f1f8e9" opacity="0.5"/>
  <circle cx="115" cy="90" r="4" fill="#f1f8e9" opacity="0.5"/>
  <!-- Speaker grille -->
  <rect x="78" y="98" width="44" height="12" rx="2" fill="#558b2f"/>
  <line x1="82" y1="101" x2="118" y2="101" stroke="#33691e" stroke-width="1"/>
  <line x1="82" y1="104" x2="118" y2="104" stroke="#33691e" stroke-width="1"/>
  <line x1="82" y1="107" x2="118" y2="107" stroke="#33691e" stroke-width="1"/>
  <!-- Headphones -->
  <path d="M30,60 Q30,25 100,22 Q170,25 170,60" fill="none" stroke="#33691e" stroke-width="4"/>
  <!-- Left earpiece -->
  <rect x="20" y="55" width="18" height="25" rx="5" fill="#558b2f"/>
  <rect x="23" y="58" width="12" height="19" rx="3" fill="#33691e"/>
  <ellipse cx="29" cy="67" rx="4" ry="6" fill="#558b2f" opacity="0.5"/>
  <!-- Right earpiece -->
  <rect x="162" y="55" width="18" height="25" rx="5" fill="#558b2f"/>
  <rect x="165" y="58" width="12" height="19" rx="3" fill="#33691e"/>
  <ellipse cx="171" cy="67" rx="4" ry="6" fill="#558b2f" opacity="0.5"/>
  <!-- Mic -->
  <path d="M38 72 Q45 85 50 95" fill="none" stroke="#33691e" stroke-width="2"/>
  <ellipse cx="52" cy="97" rx="5" ry="3" fill="#558b2f"/>
</svg>