<svg xmlns="http://www.w3.org/2000/svg" width="200" height="150" viewBox="0 0 200 150">
  <rect width="200" height="150" rx="12" ry="12" fill="#f1f8e9"/>
  <!-- Gilet Tactique: tactical vest with pouches -->
  <!-- Vest body -->
  <path d="M55,25 L80,20 L100,25 L120,20 L145,25 L150,45 L150,120 L130,125 L100,120 L70,125 L50,120 L50,45 Z" fill="#558b2f"/>
  <!-- Shoulder straps -->
  <rect x="60" y="20" width="18" height="30" rx="3" fill="#33691e"/>
  <rect x="122" y="20" width="18" height="30" rx="3" fill="#33691e"/>
  <!-- Center opening -->
  <line x1="100" y1="28" x2="100" y2="118" stroke="#33691e" stroke-width="2"/>
  <!-- MOLLE webbing lines -->
  <line x1="55" y1="55" x2="97" y2="55" stroke="#33691e" stroke-width="1" opacity="0.5"/>
  <line x1="103" y1="55" x2="145" y2="55" stroke="#33691e" stroke-width="1" opacity="0.5"/>
  <line x1="55" y1="65" x2="97" y2="65" stroke="#33691e" stroke-width="1" opacity="0.5"/>
  <line x1="103" y1="65" x2="145" y2="65" stroke="#33691e" stroke-width="1" opacity="0.5"/>
  <line x1="55" y1="75" x2="97" y2="75" stroke="#33691e" stroke-width="1" opacity="0.5"/>
  <line x1="103" y1="75" x2="145" y2="75" stroke="#33691e" stroke-width="1" opacity="0.5"/>
  <!-- Front pouches left -->
  <rect x="58" y="80" width="35" height="22" rx="3" fill="#33691e"/>
  <rect x="60" y="82" width="31" height="4" rx="1" fill="#558b2f"/>
  <rect x="58" y="106" width="35" height="15" rx="3" fill="#33691e"/>
  <rect x="60" y="108" width="31" height="3" rx="1" fill="#558b2f"/>
  <!-- Front pouches right -->
  <rect x="107" y="80" width="35" height="22" rx="3" fill="#33691e"/>
  <rect x="109" y="82" width="31" height="4" rx="1" fill="#558b2f"/>
  <rect x="107" y="106" width="35" height="15" rx="3" fill="#33691e"/>
  <rect x="109" y="108" width="31" height="3" rx="1" fill="#558b2f"/>
  <!-- Top pocket -->
  <rect x="70" y="40" width="25" height="12" rx="2" fill="#33691e"/>
  <rect x="105" y="40" width="25" height="12" rx="2" fill="#33691e"/>
</svg>