<svg xmlns="http://www.w3.org/2000/svg" width="200" height="150" viewBox="0 0 200 150">
  <rect width="200" height="150" rx="12" ry="12" fill="#f1f8e9"/>
  <!-- Maréchal: marshal's baton with stars and wreath -->
  <!-- Wreath left -->
  <path d="M40,120 Q30,100 40,80 Q45,70 50,65 Q48,75 50,85 Q50,95 48,105" fill="none" stroke="#558b2f" stroke-width="3"/>
  <ellipse cx="42" cy="75" rx="6" ry="4" fill="#558b2f" opacity="0.5" transform="rotate(-20,42,75)"/>
  <ellipse cx="38" cy="85" rx="6" ry="4" fill="#558b2f" opacity="0.5" transform="rotate(-10,38,85)"/>
  <ellipse cx="37" cy="95" rx="6" ry="4" fill="#558b2f" opacity="0.5" transform="rotate(5,37,95)"/>
  <ellipse cx="38" cy="105" rx="6" ry="4" fill="#558b2f" opacity="0.5" transform="rotate(15,38,105)"/>
  <!-- Wreath right -->
  <path d="M160,120 Q170,100 160,80 Q155,70 150,65 Q152,75 150,85 Q150,95 152,105" fill="none" stroke="#558b2f" stroke-width="3"/>
  <ellipse cx="158" cy="75" rx="6" ry="4" fill="#558b2f" opacity="0.5" transform="rotate(20,158,75)"/>
  <ellipse cx="162" cy="85" rx="6" ry="4" fill="#558b2f" opacity="0.5" transform="rotate(10,162,85)"/>
  <ellipse cx="163" cy="95" rx="6" ry="4" fill="#558b2f" opacity="0.5" transform="rotate(-5,163,95)"/>
  <ellipse cx="162" cy="105" rx="6" ry="4" fill="#558b2f" opacity="0.5" transform="rotate(-15,162,105)"/>
  <!-- Baton -->
  <rect x="60" y="72" width="80" height="14" rx="7" fill="#33691e"/>
  <!-- Baton end caps -->
  <circle cx="60" cy="79" r="10" fill="#558b2f"/>
  <circle cx="140" cy="79" r="10" fill="#558b2f"/>
  <!-- Baton decorations -->
  <circle cx="80" cy="79" r="3" fill="#f1f8e9"/>
  <circle cx="100" cy="79" r="3" fill="#f1f8e9"/>
  <circle cx="120" cy="79" r="3" fill="#f1f8e9"/>
  <!-- Stars above -->
  <polygon points="80,35 82,42 89,42 84,46 86,53 80,49 74,53 76,46 71,42 78,42" fill="#558b2f"/>
  <polygon points="100,25 102,32 109,32 104,36 106,43 100,39 94,43 96,36 91,32 98,32" fill="#33691e"/>
  <polygon points="120,35 122,42 129,42 124,46 126,53 120,49 114,53 116,46 111,42 118,42" fill="#558b2f"/>
</svg>