<svg xmlns="http://www.w3.org/2000/svg" viewBox="0 0 200 150" width="200" height="150">
  <rect width="200" height="150" rx="12" ry="12" fill="#f1f8e9"/>
  <!-- Weapons rack -->
  <!-- Rack frame - vertical posts -->
  <rect x="30" y="25" width="6" height="110" rx="2" fill="#33691e"/>
  <rect x="164" y="25" width="6" height="110" rx="2" fill="#33691e"/>
  <!-- Rack horizontal bars -->
  <rect x="30" y="25" width="140" height="5" rx="2" fill="#33691e"/>
  <rect x="30" y="70" width="140" height="4" rx="1" fill="#33691e"/>
  <rect x="30" y="130" width="140" height="5" rx="2" fill="#33691e"/>
  <!-- Weapon 1 - rifle silhouette -->
  <rect x="52" y="32" width="4" height="96" rx="1" fill="#558b2f"/>
  <rect x="49" y="32" width="10" height="6" rx="1" fill="#558b2f"/>
  <rect x="50" y="92" width="8" height="12" rx="1" fill="#558b2f"/>
  <!-- Weapon 2 - rifle silhouette -->
  <rect x="82" y="32" width="4" height="96" rx="1" fill="#558b2f"/>
  <rect x="79" y="32" width="10" height="6" rx="1" fill="#558b2f"/>
  <rect x="80" y="92" width="8" height="12" rx="1" fill="#558b2f"/>
  <!-- Weapon 3 - rifle silhouette -->
  <rect x="112" y="32" width="4" height="96" rx="1" fill="#558b2f"/>
  <rect x="109" y="32" width="10" height="6" rx="1" fill="#558b2f"/>
  <rect x="110" y="92" width="8" height="12" rx="1" fill="#558b2f"/>
  <!-- Weapon 4 - rifle silhouette -->
  <rect x="142" y="32" width="4" height="96" rx="1" fill="#558b2f"/>
  <rect x="139" y="32" width="10" height="6" rx="1" fill="#558b2f"/>
  <rect x="140" y="92" width="8" height="12" rx="1" fill="#558b2f"/>
  <!-- Rack notch holders (semicircles on top bar) -->
  <path d="M50,27 Q54,20 58,27" stroke="#33691e" stroke-width="2" fill="none"/>
  <path d="M80,27 Q84,20 88,27" stroke="#33691e" stroke-width="2" fill="none"/>
  <path d="M110,27 Q114,20 118,27" stroke="#33691e" stroke-width="2" fill="none"/>
  <path d="M140,27 Q144,20 148,27" stroke="#33691e" stroke-width="2" fill="none"/>
  <!-- Base shadow -->
  <ellipse cx="100" cy="140" rx="70" ry="4" fill="#558b2f" opacity="0.15"/>
</svg>