<svg xmlns="http://www.w3.org/2000/svg" width="200" height="150" viewBox="0 0 200 150">
  <rect width="200" height="150" rx="12" ry="12" fill="#f1f8e9"/>
  <!-- Opérateur Drone: drone controller with screen -->
  <!-- Controller body -->
  <rect x="40" y="70" width="120" height="55" rx="8" fill="#558b2f"/>
  <rect x="45" y="75" width="110" height="45" rx="5" fill="#33691e"/>
  <!-- Screen -->
  <rect x="60" y="78" width="80" height="35" rx="4" fill="#f1f8e9" opacity="0.8"/>
  <!-- Drone view on screen -->
  <line x1="100" y1="82" x2="100" y2="108" stroke="#558b2f" stroke-width="0.5" opacity="0.5"/>
  <line x1="65" y1="95" x2="135" y2="95" stroke="#558b2f" stroke-width="0.5" opacity="0.5"/>
  <circle cx="100" cy="95" r="8" fill="none" stroke="#558b2f" stroke-width="1" opacity="0.5"/>
  <circle cx="100" cy="95" r="15" fill="none" stroke="#558b2f" stroke-width="0.5" opacity="0.3"/>
  <!-- Joysticks -->
  <circle cx="52" cy="100" r="6" fill="#f1f8e9" opacity="0.5"/>
  <circle cx="52" cy="100" r="3" fill="#558b2f"/>
  <circle cx="148" cy="100" r="6" fill="#f1f8e9" opacity="0.5"/>
  <circle cx="148" cy="100" r="3" fill="#558b2f"/>
  <!-- Antenna on controller -->
  <line x1="55" y1="70" x2="50" y2="50" stroke="#33691e" stroke-width="2" stroke-linecap="round"/>
  <circle cx="50" cy="48" r="2" fill="#558b2f"/>
  <line x1="145" y1="70" x2="150" y2="50" stroke="#33691e" stroke-width="2" stroke-linecap="round"/>
  <circle cx="150" cy="48" r="2" fill="#558b2f"/>
  <!-- Small drone icon above -->
  <line x1="90" y1="30" x2="110" y2="30" stroke="#558b2f" stroke-width="2"/>
  <line x1="95" y1="25" x2="105" y2="35" stroke="#558b2f" stroke-width="2"/>
  <line x1="105" y1="25" x2="95" y2="35" stroke="#558b2f" stroke-width="2"/>
  <circle cx="100" cy="30" r="3" fill="#33691e"/>
  <circle cx="88" cy="28" r="5" fill="none" stroke="#558b2f" stroke-width="1.5"/>
  <circle cx="112" cy="28" r="5" fill="none" stroke="#558b2f" stroke-width="1.5"/>
</svg>