<svg xmlns="http://www.w3.org/2000/svg" width="200" height="150" viewBox="0 0 200 150">
  <rect width="200" height="150" rx="12" ry="12" fill="#f1f8e9"/>
  <!-- Fantassin: soldier boot with rifle -->
  <!-- Boot -->
  <path d="M60 120 L60 80 Q60 70 70 70 L90 70 Q95 70 95 75 L95 100 L120 100 L120 120 Z" fill="#558b2f"/>
  <rect x="60" y="115" width="65" height="8" rx="3" fill="#33691e"/>
  <rect x="62" y="78" width="30" height="4" rx="2" fill="#33691e"/>
  <rect x="62" y="86" width="30" height="4" rx="2" fill="#33691e"/>
  <rect x="62" y="94" width="30" height="4" rx="2" fill="#33691e"/>
  <!-- Sole treads -->
  <line x1="65" y1="123" x2="65" y2="120" stroke="#f1f8e9" stroke-width="2"/>
  <line x1="72" y1="123" x2="72" y2="120" stroke="#f1f8e9" stroke-width="2"/>
  <line x1="79" y1="123" x2="79" y2="120" stroke="#f1f8e9" stroke-width="2"/>
  <line x1="86" y1="123" x2="86" y2="120" stroke="#f1f8e9" stroke-width="2"/>
  <line x1="93" y1="123" x2="93" y2="120" stroke="#f1f8e9" stroke-width="2"/>
  <line x1="100" y1="123" x2="100" y2="120" stroke="#f1f8e9" stroke-width="2"/>
  <line x1="107" y1="123" x2="107" y2="120" stroke="#f1f8e9" stroke-width="2"/>
  <line x1="114" y1="123" x2="114" y2="120" stroke="#f1f8e9" stroke-width="2"/>
  <!-- Rifle -->
  <rect x="125" y="20" width="5" height="100" rx="2" fill="#33691e"/>
  <rect x="120" y="20" width="15" height="8" rx="2" fill="#558b2f"/>
  <rect x="122" y="55" width="11" height="6" rx="1" fill="#558b2f"/>
  <path d="M127 80 L135 95 L127 95 Z" fill="#558b2f"/>
  <!-- Muzzle -->
  <rect x="126" y="14" width="3" height="8" fill="#33691e"/>
</svg>