<svg xmlns="http://www.w3.org/2000/svg" viewBox="0 0 200 150" width="200" height="150">
  <rect width="200" height="150" rx="12" ry="12" fill="#f1f8e9"/>
  <!-- Military helmet -->
  <!-- Helmet dome -->
  <ellipse cx="100" cy="68" rx="48" ry="36" fill="#558b2f"/>
  <!-- Helmet brim -->
  <ellipse cx="100" cy="85" rx="54" ry="12" fill="#33691e"/>
  <!-- Helmet band -->
  <rect x="55" y="72" width="90" height="8" rx="2" fill="#33691e"/>
  <!-- Band buckle -->
  <rect x="96" y="72" width="8" height="8" rx="1" fill="#f1f8e9"/>
  <!-- Helmet highlight -->
  <ellipse cx="82" cy="56" rx="18" ry="10" fill="#558b2f" opacity="0.5"/>
  <path d="M72 52 Q82 42 92 52" stroke="#f1f8e9" stroke-width="1.5" fill="none" opacity="0.4"/>
  <!-- Chin strap -->
  <path d="M60 85 Q60 110 72 112" stroke="#33691e" stroke-width="3" fill="none" stroke-linecap="round"/>
  <path d="M140 85 Q140 110 128 112" stroke="#33691e" stroke-width="3" fill="none" stroke-linecap="round"/>
  <!-- Small star on helmet -->
  <polygon points="100,50 102,56 108,56 103,60 105,66 100,62 95,66 97,60 92,56 98,56" fill="#f1f8e9" opacity="0.6"/>
</svg>