<svg xmlns="http://www.w3.org/2000/svg" width="200" height="150" viewBox="0 0 200 150">
  <rect width="200" height="150" rx="12" ry="12" fill="#f1f8e9"/>
  <!-- Sous-Officier: sergeant stripes with baton -->
  <!-- Shoulder patch background -->
  <polygon points="55,25 100,15 145,25 145,95 100,105 55,95" fill="#558b2f"/>
  <polygon points="60,28 100,19 140,28 140,92 100,101 60,92" fill="#33691e"/>
  <!-- Sergeant chevrons (3 stripes) -->
  <polyline points="72,50 100,38 128,50" fill="none" stroke="#f1f8e9" stroke-width="6" stroke-linecap="round" stroke-linejoin="round"/>
  <polyline points="72,65 100,53 128,65" fill="none" stroke="#f1f8e9" stroke-width="6" stroke-linecap="round" stroke-linejoin="round"/>
  <polyline points="72,80 100,68 128,80" fill="none" stroke="#f1f8e9" stroke-width="6" stroke-linecap="round" stroke-linejoin="round"/>
  <!-- Baton -->
  <rect x="88" y="100" width="24" height="6" rx="3" fill="#558b2f" transform="rotate(-30, 100, 103)"/>
  <rect x="60" y="108" width="80" height="7" rx="3.5" fill="#33691e" transform="rotate(-15, 100, 112)"/>
  <circle cx="58" cy="115" r="4" fill="#558b2f"/>
  <circle cx="142" cy="105" r="4" fill="#558b2f"/>
</svg>