<svg xmlns="http://www.w3.org/2000/svg" viewBox="0 0 200 150" width="200" height="150">
  <rect width="200" height="150" rx="12" ry="12" fill="#f1f8e9"/>
  <!-- Shovel -->
  <!-- Handle -->
  <line x1="65" y1="130" x2="110" y2="45" stroke="#33691e" stroke-width="5" stroke-linecap="round"/>
  <!-- Shovel blade -->
  <path d="M102,50 L125,28 Q132,22 128,14 L118,18 Q110,22 108,32 L102,50 Z" fill="#558b2f"/>
  <path d="M108,32 L118,18" stroke="#33691e" stroke-width="1" opacity="0.5"/>
  <!-- Handle grip -->
  <line x1="62" y1="133" x2="56" y2="126" stroke="#33691e" stroke-width="7" stroke-linecap="round"/>
  <!-- Explosion star -->
  <g transform="translate(148,75)">
    <!-- Outer burst -->
    <polygon points="0,-32 6,-12 24,-20 12,-4 32,0 12,6 20,24 4,12 0,32 -6,12 -24,20 -12,4 -32,0 -12,-6 -20,-24 -4,-12" fill="#558b2f" opacity="0.7"/>
    <!-- Inner burst -->
    <polygon points="0,-20 4,-8 16,-12 8,-2 20,0 8,4 12,16 2,8 0,20 -4,8 -16,12 -8,2 -20,0 -8,-4 -12,-16 -2,-8" fill="#33691e" opacity="0.8"/>
    <!-- Center -->
    <circle cx="0" cy="0" r="6" fill="#f1f8e9"/>
  </g>
  <!-- Small debris particles -->
  <circle cx="130" cy="52" r="2" fill="#558b2f" opacity="0.5"/>
  <circle cx="170" cy="55" r="1.5" fill="#558b2f" opacity="0.4"/>
  <circle cx="155" cy="108" r="2" fill="#558b2f" opacity="0.4"/>
  <circle cx="168" cy="100" r="1.5" fill="#558b2f" opacity="0.3"/>
</svg>