<svg xmlns="http://www.w3.org/2000/svg" width="200" height="150" viewBox="0 0 200 150">
  <rect width="200" height="150" rx="12" ry="12" fill="#f1f8e9"/>
  <!-- Barbelés: barbed wire fence coils -->
  <!-- Fence posts -->
  <rect x="30" y="35" width="6" height="90" fill="#33691e"/>
  <rect x="95" y="35" width="6" height="90" fill="#33691e"/>
  <rect x="164" y="35" width="6" height="90" fill="#33691e"/>
  <!-- Post tops -->
  <polygon points="28,35 33,28 38,35" fill="#33691e"/>
  <polygon points="93,35 98,28 103,35" fill="#33691e"/>
  <polygon points="162,35 167,28 172,35" fill="#33691e"/>
  <!-- Wire line top -->
  <line x1="33" y1="50" x2="98" y2="50" stroke="#558b2f" stroke-width="2"/>
  <line x1="98" y1="50" x2="167" y2="50" stroke="#558b2f" stroke-width="2"/>
  <!-- Wire line middle -->
  <line x1="33" y1="75" x2="98" y2="75" stroke="#558b2f" stroke-width="2"/>
  <line x1="98" y1="75" x2="167" y2="75" stroke="#558b2f" stroke-width="2"/>
  <!-- Wire line bottom -->
  <line x1="33" y1="100" x2="98" y2="100" stroke="#558b2f" stroke-width="2"/>
  <line x1="98" y1="100" x2="167" y2="100" stroke="#558b2f" stroke-width="2"/>
  <!-- Barbed wire coils on top wire -->
  <path d="M40,48 Q50,42 60,48 Q70,54 80,48 Q90,42 98,48 Q108,42 118,48 Q128,54 138,48 Q148,42 158,48" fill="none" stroke="#558b2f" stroke-width="1.5"/>
  <!-- Barbs on top wire -->
  <line x1="45" y1="46" x2="42" y2="40" stroke="#33691e" stroke-width="1.5"/>
  <line x1="45" y1="46" x2="48" y2="40" stroke="#33691e" stroke-width="1.5"/>
  <line x1="65" y1="50" x2="62" y2="44" stroke="#33691e" stroke-width="1.5"/>
  <line x1="65" y1="50" x2="68" y2="44" stroke="#33691e" stroke-width="1.5"/>
  <line x1="85" y1="46" x2="82" y2="40" stroke="#33691e" stroke-width="1.5"/>
  <line x1="85" y1="46" x2="88" y2="40" stroke="#33691e" stroke-width="1.5"/>
  <line x1="115" y1="46" x2="112" y2="40" stroke="#33691e" stroke-width="1.5"/>
  <line x1="115" y1="46" x2="118" y2="40" stroke="#33691e" stroke-width="1.5"/>
  <line x1="135" y1="50" x2="132" y2="44" stroke="#33691e" stroke-width="1.5"/>
  <line x1="135" y1="50" x2="138" y2="44" stroke="#33691e" stroke-width="1.5"/>
  <line x1="155" y1="46" x2="152" y2="40" stroke="#33691e" stroke-width="1.5"/>
  <line x1="155" y1="46" x2="158" y2="40" stroke="#33691e" stroke-width="1.5"/>
  <!-- Barbs on middle wire -->
  <line x1="50" y1="75" x2="47" y2="69" stroke="#33691e" stroke-width="1.5"/>
  <line x1="50" y1="75" x2="53" y2="69" stroke="#33691e" stroke-width="1.5"/>
  <line x1="75" y1="75" x2="72" y2="69" stroke="#33691e" stroke-width="1.5"/>
  <line x1="75" y1="75" x2="78" y2="69" stroke="#33691e" stroke-width="1.5"/>
  <line x1="120" y1="75" x2="117" y2="69" stroke="#33691e" stroke-width="1.5"/>
  <line x1="120" y1="75" x2="123" y2="69" stroke="#33691e" stroke-width="1.5"/>
  <line x1="145" y1="75" x2="142" y2="69" stroke="#33691e" stroke-width="1.5"/>
  <line x1="145" y1="75" x2="148" y2="69" stroke="#33691e" stroke-width="1.5"/>
  <!-- Barbs on bottom wire -->
  <line x1="55" y1="100" x2="52" y2="94" stroke="#33691e" stroke-width="1.5"/>
  <line x1="55" y1="100" x2="58" y2="94" stroke="#33691e" stroke-width="1.5"/>
  <line x1="80" y1="100" x2="77" y2="94" stroke="#33691e" stroke-width="1.5"/>
  <line x1="80" y1="100" x2="83" y2="94" stroke="#33691e" stroke-width="1.5"/>
  <line x1="130" y1="100" x2="127" y2="94" stroke="#33691e" stroke-width="1.5"/>
  <line x1="130" y1="100" x2="133" y2="94" stroke="#33691e" stroke-width="1.5"/>
  <line x1="155" y1="100" x2="152" y2="94" stroke="#33691e" stroke-width="1.5"/>
  <line x1="155" y1="100" x2="158" y2="94" stroke="#33691e" stroke-width="1.5"/>
</svg>