<svg xmlns="http://www.w3.org/2000/svg" viewBox="0 0 200 150" width="200" height="150">
  <rect width="200" height="150" rx="12" ry="12" fill="#f1f8e9"/>
  <!-- Officer/Commander cap -->
  <!-- Cap visor/brim -->
  <ellipse cx="100" cy="100" rx="56" ry="14" fill="#33691e"/>
  <!-- Visor highlight -->
  <ellipse cx="100" cy="100" rx="50" ry="10" fill="#33691e"/>
  <path d="M50,98 Q100,108 150,98" stroke="#558b2f" stroke-width="1" fill="none" opacity="0.5"/>
  <!-- Cap body -->
  <path d="M52,100 Q52,60 100,50 Q148,60 148,100" fill="#558b2f"/>
  <!-- Cap band -->
  <path d="M52,95 Q100,104 148,95 L148,100 Q100,110 52,100 Z" fill="#33691e"/>
  <!-- Gold/light band detail -->
  <path d="M56,97 Q100,105 144,97" stroke="#f1f8e9" stroke-width="2" fill="none" opacity="0.6"/>
  <!-- Cap crown top -->
  <ellipse cx="100" cy="52" rx="38" ry="6" fill="#558b2f" opacity="0.8"/>
  <!-- Emblem on front -->
  <circle cx="100" cy="85" r="10" fill="#33691e"/>
  <circle cx="100" cy="85" r="7" fill="#f1f8e9" opacity="0.3"/>
  <!-- Star emblem -->
  <polygon points="100,78 102,83 107,83 103,86 104,91 100,88 96,91 97,86 93,83 98,83" fill="#f1f8e9"/>
  <!-- Laurel leaves around emblem -->
  <path d="M88,92 Q85,85 90,78" stroke="#f1f8e9" stroke-width="1.5" fill="none" opacity="0.5"/>
  <path d="M112,92 Q115,85 110,78" stroke="#f1f8e9" stroke-width="1.5" fill="none" opacity="0.5"/>
</svg>