<svg xmlns="http://www.w3.org/2000/svg" width="200" height="150" viewBox="0 0 200 150">
  <rect width="200" height="150" rx="12" ry="12" fill="#f1f8e9"/>
  <!-- Ration de Combat: military ration pack -->
  <!-- Main ration box -->
  <rect x="40" y="35" width="120" height="80" rx="5" fill="#558b2f"/>
  <rect x="45" y="40" width="110" height="70" rx="3" fill="#33691e"/>
  <!-- Lid line -->
  <line x1="45" y1="55" x2="155" y2="55" stroke="#558b2f" stroke-width="2"/>
  <!-- Pull tab -->
  <rect x="135" y="48" width="15" height="10" rx="3" fill="#f1f8e9" opacity="0.6"/>
  <circle cx="145" cy="53" r="2" fill="#33691e"/>
  <!-- Star emblem -->
  <polygon points="100,65 103,73 111,73 105,78 107,86 100,82 93,86 95,78 89,73 97,73" fill="#558b2f"/>
  <!-- Cross line decoration -->
  <line x1="55" y1="95" x2="145" y2="95" stroke="#558b2f" stroke-width="1.5"/>
  <line x1="55" y1="100" x2="145" y2="100" stroke="#558b2f" stroke-width="1.5"/>
  <!-- Small items around -->
  <!-- Can -->
  <rect x="20" y="95" width="18" height="25" rx="4" fill="#558b2f" opacity="0.7"/>
  <ellipse cx="29" cy="95" rx="9" ry="3" fill="#33691e" opacity="0.7"/>
  <!-- Packet -->
  <rect x="162" y="85" width="22" height="30" rx="2" fill="#558b2f" opacity="0.7"/>
  <line x1="165" y1="95" x2="181" y2="95" stroke="#33691e" stroke-width="1"/>
  <line x1="165" y1="100" x2="181" y2="100" stroke="#33691e" stroke-width="1"/>
  <!-- Spoon -->
  <line x1="165" y1="70" x2="185" y2="55" stroke="#33691e" stroke-width="2" stroke-linecap="round"/>
  <ellipse cx="187" cy="53" rx="5" ry="3" fill="#33691e" transform="rotate(-30,187,53)"/>
</svg>