<svg xmlns="http://www.w3.org/2000/svg" width="200" height="150" viewBox="0 0 200 150">
  <rect width="200" height="150" rx="12" ry="12" fill="#fce4ec"/>
  <!-- Fingerprint card/pad -->
  <rect x="15" y="40" width="80" height="90" rx="4" fill="#c62828"/>
  <rect x="20" y="45" width="70" height="80" rx="2" fill="#fce4ec" opacity="0.2"/>
  <!-- Fingerprint boxes -->
  <rect x="25" y="50" width="28" height="25" rx="2" fill="#b71c1c" opacity="0.5"/>
  <rect x="57" y="50" width="28" height="25" rx="2" fill="#b71c1c" opacity="0.5"/>
  <rect x="25" y="80" width="28" height="25" rx="2" fill="#b71c1c" opacity="0.5"/>
  <rect x="57" y="80" width="28" height="25" rx="2" fill="#b71c1c" opacity="0.5"/>
  <!-- Mini fingerprint in box -->
  <path d="M35 58 Q35 54 39 53 Q43 54 43 58" fill="none" stroke="#fce4ec" stroke-width="1" opacity="0.5"/>
  <path d="M33 60 Q33 52 39 50 Q45 52 45 60" fill="none" stroke="#fce4ec" stroke-width="1" opacity="0.5"/>
  <path d="M37 62 Q39 56 41 62" fill="none" stroke="#fce4ec" stroke-width="1" opacity="0.5"/>
  <!-- Powder brush -->
  <rect x="125" y="20" width="10" height="65" rx="3" fill="#b71c1c"/>
  <!-- Brush bristles -->
  <path d="M118 85 Q130 95 142 85" fill="#c62828"/>
  <path d="M120 88 Q130 98 140 88" fill="#c62828" opacity="0.7"/>
  <line x1="122" y1="87" x2="120" y2="95" stroke="#b71c1c" stroke-width="1.5"/>
  <line x1="126" y1="89" x2="125" y2="97" stroke="#b71c1c" stroke-width="1.5"/>
  <line x1="130" y1="90" x2="130" y2="98" stroke="#b71c1c" stroke-width="1.5"/>
  <line x1="134" y1="89" x2="135" y2="97" stroke="#b71c1c" stroke-width="1.5"/>
  <line x1="138" y1="87" x2="140" y2="95" stroke="#b71c1c" stroke-width="1.5"/>
  <!-- Powder dust particles -->
  <circle cx="115" cy="100" r="2" fill="#c62828" opacity="0.3"/>
  <circle cx="145" cy="105" r="1.5" fill="#c62828" opacity="0.3"/>
  <circle cx="120" cy="108" r="2.5" fill="#c62828" opacity="0.2"/>
  <circle cx="140" cy="112" r="1.5" fill="#c62828" opacity="0.3"/>
  <circle cx="125" cy="115" r="2" fill="#c62828" opacity="0.2"/>
  <!-- Powder jar -->
  <rect x="155" y="95" width="30" height="30" rx="4" fill="#c62828"/>
  <rect x="158" y="90" width="24" height="8" rx="3" fill="#b71c1c"/>
  <!-- Jar label -->
  <rect x="160" y="102" width="20" height="10" rx="1" fill="#fce4ec" opacity="0.2"/>
</svg>