<svg xmlns="http://www.w3.org/2000/svg" width="200" height="150" viewBox="0 0 200 150">
  <rect width="200" height="150" rx="12" ry="12" fill="#fce4ec"/>
  <!-- Alert siren -->
  <rect x="30" y="55" width="60" height="40" rx="6" fill="#c62828"/>
  <!-- Siren dome -->
  <path d="M30 55 Q60 20 90 55" fill="#b71c1c"/>
  <!-- Siren light -->
  <ellipse cx="60" cy="45" rx="15" ry="10" fill="#fce4ec" opacity="0.5"/>
  <ellipse cx="60" cy="45" rx="8" ry="6" fill="#c62828" opacity="0.6"/>
  <!-- Siren base -->
  <rect x="25" y="92" width="70" height="8" rx="2" fill="#b71c1c"/>
  <!-- Alert waves -->
  <path d="M95 50 Q105 45 105 55" fill="none" stroke="#c62828" stroke-width="2.5"/>
  <path d="M102 42 Q118 35 118 60" fill="none" stroke="#c62828" stroke-width="2" opacity="0.6"/>
  <path d="M25 50 Q15 45 15 55" fill="none" stroke="#c62828" stroke-width="2.5"/>
  <path d="M18 42 Q2 35 2 60" fill="none" stroke="#c62828" stroke-width="2" opacity="0.6"/>
  <!-- Siren detail lines -->
  <line x1="38" y1="65" x2="82" y2="65" stroke="#fce4ec" stroke-width="1.5" opacity="0.3"/>
  <line x1="38" y1="72" x2="82" y2="72" stroke="#fce4ec" stroke-width="1.5" opacity="0.3"/>
  <line x1="38" y1="79" x2="82" y2="79" stroke="#fce4ec" stroke-width="1.5" opacity="0.3"/>
  <line x1="38" y1="86" x2="82" y2="86" stroke="#fce4ec" stroke-width="1.5" opacity="0.3"/>
  <!-- Child silhouette -->
  <!-- Head -->
  <circle cx="155" cy="60" r="12" fill="#c62828"/>
  <!-- Body -->
  <rect x="147" y="72" width="16" height="28" rx="5" fill="#c62828"/>
  <!-- Arms -->
  <rect x="138" y="75" width="10" height="5" rx="2" fill="#c62828"/>
  <rect x="163" y="75" width="10" height="5" rx="2" fill="#c62828"/>
  <!-- Legs -->
  <rect x="149" y="98" width="6" height="22" rx="2" fill="#c62828"/>
  <rect x="158" y="98" width="6" height="22" rx="2" fill="#c62828"/>
  <!-- Small scale indicator -->
  <line x1="135" y1="125" x2="175" y2="125" stroke="#b71c1c" stroke-width="1"/>
  <line x1="135" y1="122" x2="135" y2="128" stroke="#b71c1c" stroke-width="1"/>
  <line x1="175" y1="122" x2="175" y2="128" stroke="#b71c1c" stroke-width="1"/>
</svg>