<svg xmlns="http://www.w3.org/2000/svg" width="200" height="150" viewBox="0 0 200 150">
  <rect width="200" height="150" rx="12" ry="12" fill="#fce4ec"/>
  <!-- Dossier folder -->
  <rect x="40" y="35" width="80" height="100" rx="4" fill="#c62828"/>
  <rect x="45" y="30" width="30" height="12" rx="3" fill="#c62828"/>
  <rect x="44" y="40" width="72" height="90" rx="2" fill="#fce4ec" opacity="0.2"/>
  <!-- Folder lines (documents inside) -->
  <line x1="55" y1="60" x2="105" y2="60" stroke="#fce4ec" stroke-width="2" opacity="0.4"/>
  <line x1="55" y1="72" x2="105" y2="72" stroke="#fce4ec" stroke-width="2" opacity="0.4"/>
  <line x1="55" y1="84" x2="95" y2="84" stroke="#fce4ec" stroke-width="2" opacity="0.4"/>
  <line x1="55" y1="96" x2="100" y2="96" stroke="#fce4ec" stroke-width="2" opacity="0.4"/>
  <!-- Eye symbol -->
  <ellipse cx="150" cy="75" rx="30" ry="20" fill="#c62828"/>
  <path d="M120 75 Q150 50 180 75 Q150 100 120 75Z" fill="#b71c1c"/>
  <circle cx="150" cy="75" r="12" fill="#fce4ec"/>
  <circle cx="150" cy="75" r="7" fill="#c62828"/>
  <circle cx="150" cy="75" r="3" fill="#b71c1c"/>
  <!-- Eye shine -->
  <circle cx="153" cy="72" r="2" fill="#fce4ec"/>
  <!-- Classified stamp look -->
  <rect x="50" y="108" width="60" height="14" rx="2" fill="#b71c1c" opacity="0.6"/>
</svg>