<svg xmlns="http://www.w3.org/2000/svg" width="200" height="150" viewBox="0 0 200 150">
  <rect width="200" height="150" rx="12" ry="12" fill="#fce4ec"/>
  <!-- Sunglasses -->
  <!-- Left lens -->
  <rect x="30" y="50" width="55" height="35" rx="8" fill="#c62828"/>
  <rect x="34" y="54" width="47" height="27" rx="6" fill="#b71c1c"/>
  <!-- Right lens -->
  <rect x="95" y="50" width="55" height="35" rx="8" fill="#c62828"/>
  <rect x="99" y="54" width="47" height="27" rx="6" fill="#b71c1c"/>
  <!-- Bridge -->
  <path d="M85 62 Q90 55 95 62" fill="none" stroke="#c62828" stroke-width="4"/>
  <!-- Left arm -->
  <line x1="30" y1="58" x2="15" y2="55" stroke="#c62828" stroke-width="4" stroke-linecap="round"/>
  <!-- Right arm -->
  <line x1="150" y1="58" x2="165" y2="55" stroke="#c62828" stroke-width="4" stroke-linecap="round"/>
  <!-- Lens shine -->
  <line x1="42" y1="58" x2="50" y2="58" stroke="#fce4ec" stroke-width="2" opacity="0.3"/>
  <line x1="107" y1="58" x2="115" y2="58" stroke="#fce4ec" stroke-width="2" opacity="0.3"/>
  <!-- Earpiece -->
  <circle cx="170" cy="95" r="8" fill="#c62828"/>
  <circle cx="170" cy="95" r="5" fill="#b71c1c"/>
  <!-- Earpiece wire -->
  <path d="M170 103 Q168 115 165 125 Q163 132 158 132" fill="none" stroke="#c62828" stroke-width="2.5"/>
  <!-- Coiled wire -->
  <path d="M158 132 Q155 128 152 132 Q149 136 146 132 Q143 128 140 132" fill="none" stroke="#c62828" stroke-width="2"/>
</svg>