<svg xmlns="http://www.w3.org/2000/svg" width="200" height="150" viewBox="0 0 200 150">
  <rect width="200" height="150" rx="12" ry="12" fill="#fce4ec"/>
  <!-- Net being cast wide -->
  <!-- Net outline arc -->
  <path d="M30 130 Q30 30 100 20 Q170 30 170 130" fill="none" stroke="#c62828" stroke-width="3"/>
  <!-- Vertical net lines -->
  <path d="M50 120 Q52 50 100 25" fill="none" stroke="#c62828" stroke-width="1.5" opacity="0.6"/>
  <path d="M70 125 Q72 55 100 28" fill="none" stroke="#c62828" stroke-width="1.5" opacity="0.6"/>
  <path d="M100 130 L100 22" fill="none" stroke="#c62828" stroke-width="1.5" opacity="0.6"/>
  <path d="M130 125 Q128 55 100 28" fill="none" stroke="#c62828" stroke-width="1.5" opacity="0.6"/>
  <path d="M150 120 Q148 50 100 25" fill="none" stroke="#c62828" stroke-width="1.5" opacity="0.6"/>
  <!-- Horizontal net lines -->
  <path d="M38 50 Q100 35 162 50" fill="none" stroke="#c62828" stroke-width="1.5" opacity="0.5"/>
  <path d="M34 75 Q100 55 166 75" fill="none" stroke="#c62828" stroke-width="1.5" opacity="0.5"/>
  <path d="M32 100 Q100 78 168 100" fill="none" stroke="#c62828" stroke-width="1.5" opacity="0.5"/>
  <path d="M30 125 Q100 100 170 125" fill="none" stroke="#c62828" stroke-width="1.5" opacity="0.5"/>
  <!-- Net knots at intersections -->
  <circle cx="100" cy="22" r="3" fill="#b71c1c"/>
  <circle cx="70" cy="52" r="2" fill="#b71c1c"/>
  <circle cx="100" cy="48" r="2" fill="#b71c1c"/>
  <circle cx="130" cy="52" r="2" fill="#b71c1c"/>
  <circle cx="55" cy="78" r="2" fill="#b71c1c"/>
  <circle cx="85" cy="72" r="2" fill="#b71c1c"/>
  <circle cx="115" cy="72" r="2" fill="#b71c1c"/>
  <circle cx="145" cy="78" r="2" fill="#b71c1c"/>
  <!-- Bottom weights -->
  <circle cx="30" cy="132" r="5" fill="#b71c1c"/>
  <circle cx="60" cy="135" r="4" fill="#b71c1c"/>
  <circle cx="100" cy="135" r="4" fill="#b71c1c"/>
  <circle cx="140" cy="135" r="4" fill="#b71c1c"/>
  <circle cx="170" cy="132" r="5" fill="#b71c1c"/>
  <!-- Rope handle -->
  <path d="M95 20 Q85 10 80 12" fill="none" stroke="#b71c1c" stroke-width="3" stroke-linecap="round"/>
</svg>