<svg xmlns="http://www.w3.org/2000/svg" width="200" height="150" viewBox="0 0 200 150">
  <rect width="200" height="150" rx="12" ry="12" fill="#fce4ec"/>
  <!-- Fingerprint -->
  <path d="M55 95 Q55 55 75 45" fill="none" stroke="#c62828" stroke-width="2.5"/>
  <path d="M50 90 Q50 50 75 38" fill="none" stroke="#c62828" stroke-width="2.5"/>
  <path d="M60 95 Q60 60 75 52" fill="none" stroke="#c62828" stroke-width="2.5"/>
  <path d="M65 95 Q65 65 75 58" fill="none" stroke="#c62828" stroke-width="2.5"/>
  <path d="M70 95 Q72 72 80 65 Q90 58 95 65 Q98 72 95 95" fill="none" stroke="#c62828" stroke-width="2.5"/>
  <path d="M75 95 Q78 78 82 72 Q88 66 92 72 Q94 78 90 95" fill="none" stroke="#c62828" stroke-width="2.5"/>
  <path d="M80 95 Q82 82 85 80 Q88 82 85 95" fill="none" stroke="#c62828" stroke-width="2.5"/>
  <path d="M95 90 Q98 55 85 42" fill="none" stroke="#c62828" stroke-width="2.5"/>
  <path d="M100 85 Q102 50 85 36" fill="none" stroke="#c62828" stroke-width="2.5"/>
  <!-- Microscope -->
  <rect x="135" y="110" width="40" height="6" rx="2" fill="#b71c1c"/>
  <rect x="152" y="60" width="6" height="52" rx="2" fill="#c62828"/>
  <rect x="145" y="55" width="20" height="10" rx="3" fill="#c62828"/>
  <circle cx="155" cy="50" r="12" fill="none" stroke="#b71c1c" stroke-width="3"/>
  <circle cx="155" cy="50" r="6" fill="#c62828" opacity="0.3"/>
  <!-- Stage -->
  <rect x="142" y="95" width="26" height="4" rx="1" fill="#b71c1c"/>
  <!-- Arm -->
  <rect x="158" y="65" width="18" height="4" rx="1" fill="#c62828" transform="rotate(-30 167 67)"/>
</svg>