<svg xmlns="http://www.w3.org/2000/svg" width="200" height="150" viewBox="0 0 200 150">
  <rect width="200" height="150" rx="12" ry="12" fill="#fce4ec"/>
  <!-- Door -->
  <rect x="110" y="20" width="70" height="115" rx="3" fill="#c62828"/>
  <rect x="115" y="25" width="60" height="105" rx="2" fill="#b71c1c" opacity="0.5"/>
  <!-- Door panels -->
  <rect x="120" y="30" width="50" height="40" rx="2" fill="#c62828" opacity="0.4"/>
  <rect x="120" y="78" width="50" height="40" rx="2" fill="#c62828" opacity="0.4"/>
  <!-- Door handle -->
  <circle cx="165" cy="75" r="4" fill="#fce4ec" opacity="0.4"/>
  <!-- Door hinges -->
  <rect x="110" y="40" width="4" height="12" rx="1" fill="#b71c1c"/>
  <rect x="110" y="95" width="4" height="12" rx="1" fill="#b71c1c"/>
  <!-- Battering ram -->
  <rect x="20" y="60" width="85" height="22" rx="5" fill="#c62828"/>
  <!-- Ram head -->
  <rect x="95" y="55" width="20" height="32" rx="4" fill="#b71c1c"/>
  <!-- Handle grips -->
  <rect x="35" y="52" width="12" height="10" rx="3" fill="#b71c1c"/>
  <rect x="60" y="52" width="12" height="10" rx="3" fill="#b71c1c"/>
  <rect x="35" y="80" width="12" height="10" rx="3" fill="#b71c1c"/>
  <rect x="60" y="80" width="12" height="10" rx="3" fill="#b71c1c"/>
  <!-- Impact lines -->
  <line x1="112" y1="55" x2="120" y2="48" stroke="#fce4ec" stroke-width="2" opacity="0.5"/>
  <line x1="115" y1="65" x2="125" y2="60" stroke="#fce4ec" stroke-width="2" opacity="0.5"/>
  <line x1="112" y1="88" x2="120" y2="95" stroke="#fce4ec" stroke-width="2" opacity="0.5"/>
  <line x1="115" y1="80" x2="125" y2="82" stroke="#fce4ec" stroke-width="2" opacity="0.5"/>
  <!-- Crack lines on door -->
  <path d="M112 70 L118 68 L115 75 L120 78" fill="none" stroke="#fce4ec" stroke-width="1.5" opacity="0.6"/>
  <!-- Ram body detail -->
  <line x1="30" y1="71" x2="90" y2="71" stroke="#b71c1c" stroke-width="1.5"/>
</svg>