<svg xmlns="http://www.w3.org/2000/svg" width="200" height="150" viewBox="0 0 200 150">
  <rect width="200" height="150" rx="12" ry="12" fill="#fce4ec"/>
  <!-- Kepi hat -->
  <ellipse cx="80" cy="95" rx="45" ry="14" fill="#b71c1c"/>
  <path d="M42 95 Q42 55 80 48 Q118 55 118 95" fill="#c62828"/>
  <!-- Kepi flat top -->
  <ellipse cx="80" cy="52" rx="30" ry="8" fill="#b71c1c"/>
  <!-- Band -->
  <rect x="42" y="82" width="76" height="8" fill="#b71c1c"/>
  <!-- Badge on kepi -->
  <circle cx="80" cy="72" r="8" fill="#fce4ec"/>
  <circle cx="80" cy="72" r="5" fill="#c62828"/>
  <!-- Visor -->
  <ellipse cx="80" cy="98" rx="42" ry="10" fill="#b71c1c"/>
  <!-- Sword -->
  <rect x="145" y="25" width="4" height="85" rx="1" fill="#c62828"/>
  <!-- Sword guard -->
  <ellipse cx="147" cy="55" rx="12" ry="4" fill="#b71c1c"/>
  <!-- Sword handle -->
  <rect x="143" y="20" width="8" height="18" rx="2" fill="#b71c1c"/>
  <!-- Pommel -->
  <circle cx="147" cy="18" r="5" fill="#c62828"/>
  <!-- Blade tip -->
  <polygon points="143,110 147,120 151,110" fill="#c62828"/>
  <!-- Handle wrap -->
  <line x1="143" y1="25" x2="151" y2="30" stroke="#fce4ec" stroke-width="1" opacity="0.5"/>
  <line x1="143" y1="30" x2="151" y2="35" stroke="#fce4ec" stroke-width="1" opacity="0.5"/>
</svg>