<svg xmlns="http://www.w3.org/2000/svg" width="200" height="150" viewBox="0 0 200 150">
  <rect width="200" height="150" rx="12" ry="12" fill="#fce4ec"/>
  <!-- Megaphone -->
  <polygon points="50,65 50,95 110,110 110,50" fill="#c62828"/>
  <rect x="35" y="68" width="18" height="24" rx="3" fill="#b71c1c"/>
  <ellipse cx="110" cy="80" rx="8" ry="30" fill="#b71c1c"/>
  <!-- Sound waves -->
  <path d="M120 65 Q135 80 120 95" fill="none" stroke="#c62828" stroke-width="3"/>
  <path d="M128 55 Q150 80 128 105" fill="none" stroke="#c62828" stroke-width="2.5" opacity="0.7"/>
  <path d="M136 48 Q162 80 136 112" fill="none" stroke="#c62828" stroke-width="2" opacity="0.4"/>
  <!-- Olive branch -->
  <path d="M140 100 Q155 85 175 80" fill="none" stroke="#b71c1c" stroke-width="2.5"/>
  <ellipse cx="152" cy="90" rx="6" ry="3" fill="#c62828" transform="rotate(-30 152 90)"/>
  <ellipse cx="160" cy="85" rx="6" ry="3" fill="#c62828" transform="rotate(-25 160 85)"/>
  <ellipse cx="168" cy="81" rx="6" ry="3" fill="#c62828" transform="rotate(-15 168 81)"/>
  <ellipse cx="148" cy="95" rx="5" ry="3" fill="#c62828" transform="rotate(-40 148 95)"/>
  <ellipse cx="155" cy="92" rx="5" ry="3" fill="#c62828" transform="rotate(-35 155 92)"/>
  <!-- Handle -->
  <rect x="42" y="92" width="12" height="25" rx="3" fill="#b71c1c"/>
</svg>