<svg xmlns="http://www.w3.org/2000/svg" width="200" height="150" viewBox="0 0 200 150">
  <rect width="200" height="150" rx="12" ry="12" fill="#fce4ec"/>
  <!-- Drone body center -->
  <rect x="82" y="55" width="36" height="24" rx="6" fill="#c62828"/>
  <!-- Camera underneath -->
  <circle cx="100" cy="85" r="8" fill="#b71c1c"/>
  <circle cx="100" cy="85" r="5" fill="#fce4ec" opacity="0.3"/>
  <circle cx="100" cy="85" r="2.5" fill="#b71c1c"/>
  <!-- Camera mount -->
  <rect x="96" y="78" width="8" height="6" rx="1" fill="#c62828"/>
  <!-- Arms -->
  <line x1="82" y1="60" x2="45" y2="40" stroke="#c62828" stroke-width="4"/>
  <line x1="118" y1="60" x2="155" y2="40" stroke="#c62828" stroke-width="4"/>
  <line x1="82" y1="72" x2="45" y2="92" stroke="#c62828" stroke-width="4"/>
  <line x1="118" y1="72" x2="155" y2="92" stroke="#c62828" stroke-width="4"/>
  <!-- Motor pods -->
  <circle cx="45" cy="40" r="8" fill="#b71c1c"/>
  <circle cx="155" cy="40" r="8" fill="#b71c1c"/>
  <circle cx="45" cy="92" r="8" fill="#b71c1c"/>
  <circle cx="155" cy="92" r="8" fill="#b71c1c"/>
  <!-- Propellers -->
  <ellipse cx="45" cy="40" rx="18" ry="4" fill="#c62828" opacity="0.4"/>
  <ellipse cx="45" cy="40" rx="4" ry="18" fill="#c62828" opacity="0.4"/>
  <ellipse cx="155" cy="40" rx="18" ry="4" fill="#c62828" opacity="0.4"/>
  <ellipse cx="155" cy="40" rx="4" ry="18" fill="#c62828" opacity="0.4"/>
  <ellipse cx="45" cy="92" rx="18" ry="4" fill="#c62828" opacity="0.4"/>
  <ellipse cx="45" cy="92" rx="4" ry="18" fill="#c62828" opacity="0.4"/>
  <ellipse cx="155" cy="92" rx="18" ry="4" fill="#c62828" opacity="0.4"/>
  <ellipse cx="155" cy="92" rx="4" ry="18" fill="#c62828" opacity="0.4"/>
  <!-- LED indicators -->
  <circle cx="88" cy="62" r="2" fill="#fce4ec"/>
  <circle cx="112" cy="62" r="2" fill="#fce4ec"/>
  <!-- Landing gear -->
  <line x1="85" y1="95" x2="75" y2="108" stroke="#b71c1c" stroke-width="2.5"/>
  <line x1="115" y1="95" x2="125" y2="108" stroke="#b71c1c" stroke-width="2.5"/>
  <line x1="72" y1="108" x2="88" y2="108" stroke="#b71c1c" stroke-width="2.5"/>
  <line x1="112" y1="108" x2="128" y2="108" stroke="#b71c1c" stroke-width="2.5"/>
</svg>