<svg xmlns="http://www.w3.org/2000/svg" width="200" height="150" viewBox="0 0 200 150">
  <rect width="200" height="150" rx="12" ry="12" fill="#fce4ec"/>
  <!-- Traffic cone 1 -->
  <polygon points="45,120 55,55 65,120" fill="#c62828"/>
  <rect x="35" y="118" width="40" height="10" rx="2" fill="#b71c1c"/>
  <rect x="48" y="75" width="14" height="6" rx="1" fill="#fce4ec" opacity="0.5"/>
  <rect x="46" y="95" width="18" height="6" rx="1" fill="#fce4ec" opacity="0.5"/>
  <!-- Traffic cone 2 -->
  <polygon points="85,120 95,65 105,120" fill="#c62828"/>
  <rect x="75" y="118" width="40" height="10" rx="2" fill="#b71c1c"/>
  <rect x="88" y="82" width="14" height="6" rx="1" fill="#fce4ec" opacity="0.5"/>
  <rect x="86" y="100" width="18" height="6" rx="1" fill="#fce4ec" opacity="0.5"/>
  <!-- Stop sign -->
  <polygon points="155,25 172,25 182,40 182,60 172,75 155,75 145,60 145,40" fill="#c62828"/>
  <polygon points="155,30 170,30 178,42 178,58 170,70 155,70 148,58 148,42" fill="#b71c1c"/>
  <!-- Stop sign inner octagon -->
  <polygon points="155,35 167,35 174,44 174,56 167,65 155,65 150,56 150,44" fill="none" stroke="#fce4ec" stroke-width="2" opacity="0.5"/>
  <!-- Stop sign pole -->
  <rect x="161" y="75" width="6" height="50" fill="#b71c1c"/>
  <!-- Road line -->
  <rect x="20" y="132" width="160" height="4" rx="1" fill="#c62828" opacity="0.2"/>
  <!-- Dashed center line -->
  <rect x="30" y="128" width="20" height="3" rx="1" fill="#c62828" opacity="0.15"/>
  <rect x="60" y="128" width="20" height="3" rx="1" fill="#c62828" opacity="0.15"/>
  <rect x="90" y="128" width="20" height="3" rx="1" fill="#c62828" opacity="0.15"/>
  <rect x="120" y="128" width="20" height="3" rx="1" fill="#c62828" opacity="0.15"/>
  <rect x="150" y="128" width="20" height="3" rx="1" fill="#c62828" opacity="0.15"/>
</svg>