<svg xmlns="http://www.w3.org/2000/svg" width="200" height="150" viewBox="0 0 200 150">
  <rect width="200" height="150" rx="12" ry="12" fill="#fef7e0"/>
  <!-- Gate pillars -->
  <rect x="30" y="30" width="16" height="95" fill="#f9a825"/>
  <rect x="154" y="30" width="16" height="95" fill="#f9a825"/>
  <!-- Gate pillar caps -->
  <rect x="27" y="25" width="22" height="8" rx="2" fill="#f57f17"/>
  <rect x="151" y="25" width="22" height="8" rx="2" fill="#f57f17"/>
  <!-- Gate top arch -->
  <path d="M46 40 Q100 15 154 40" fill="none" stroke="#f57f17" stroke-width="4"/>
  <!-- Gate bars -->
  <line x1="60" y1="38" x2="60" y2="125" stroke="#f9a825" stroke-width="3"/>
  <line x1="80" y1="32" x2="80" y2="125" stroke="#f9a825" stroke-width="3"/>
  <line x1="100" y1="28" x2="100" y2="125" stroke="#f9a825" stroke-width="3"/>
  <line x1="120" y1="32" x2="120" y2="125" stroke="#f9a825" stroke-width="3"/>
  <line x1="140" y1="38" x2="140" y2="125" stroke="#f9a825" stroke-width="3"/>
  <!-- Cross bar -->
  <line x1="46" y1="80" x2="154" y2="80" stroke="#f9a825" stroke-width="3"/>
  <!-- Ground -->
  <rect x="0" y="125" width="200" height="25" rx="0" fill="#f9a825" opacity="0.15"/>
  <!-- Backpack -->
  <rect x="72" y="95" width="28" height="32" rx="6" fill="#f57f17"/>
  <rect x="76" y="100" width="20" height="12" rx="3" fill="#f9a825"/>
  <!-- Backpack straps -->
  <path d="M76 97 Q74 92 76 88" fill="none" stroke="#f57f17" stroke-width="2" stroke-linecap="round"/>
  <path d="M96 97 Q98 92 96 88" fill="none" stroke="#f57f17" stroke-width="2" stroke-linecap="round"/>
  <!-- Backpack pocket -->
  <rect x="78" y="115" width="16" height="8" rx="2" fill="#f9a825" opacity="0.6"/>
  <!-- Backpack flap/zipper -->
  <line x1="80" y1="100" x2="92" y2="100" stroke="#f57f17" stroke-width="1" opacity="0.5"/>
</svg>