<svg xmlns="http://www.w3.org/2000/svg" width="200" height="150" viewBox="0 0 200 150">
  <rect width="200" height="150" rx="12" ry="12" fill="#fef7e0"/>
  <!-- Notebook body -->
  <rect x="45" y="18" width="100" height="120" rx="4" fill="#f9a825" opacity="0.3"/>
  <rect x="50" y="20" width="95" height="116" rx="3" fill="#fef7e0"/>
  <!-- Spiral binding holes -->
  <circle cx="50" cy="35" r="3" fill="#f57f17"/>
  <circle cx="50" cy="52" r="3" fill="#f57f17"/>
  <circle cx="50" cy="69" r="3" fill="#f57f17"/>
  <circle cx="50" cy="86" r="3" fill="#f57f17"/>
  <circle cx="50" cy="103" r="3" fill="#f57f17"/>
  <circle cx="50" cy="120" r="3" fill="#f57f17"/>
  <!-- Spiral rings -->
  <path d="M47 32 Q42 35 47 38" fill="none" stroke="#f57f17" stroke-width="1.5"/>
  <path d="M47 49 Q42 52 47 55" fill="none" stroke="#f57f17" stroke-width="1.5"/>
  <path d="M47 66 Q42 69 47 72" fill="none" stroke="#f57f17" stroke-width="1.5"/>
  <path d="M47 83 Q42 86 47 89" fill="none" stroke="#f57f17" stroke-width="1.5"/>
  <path d="M47 100 Q42 103 47 106" fill="none" stroke="#f57f17" stroke-width="1.5"/>
  <path d="M47 117 Q42 120 47 123" fill="none" stroke="#f57f17" stroke-width="1.5"/>
  <!-- Red margin line -->
  <line x1="68" y1="20" x2="68" y2="136" stroke="#f57f17" stroke-width="1" opacity="0.4"/>
  <!-- Written lines (grades) -->
  <line x1="72" y1="40" x2="130" y2="40" stroke="#f9a825" stroke-width="1.5" opacity="0.5"/>
  <line x1="72" y1="52" x2="120" y2="52" stroke="#f9a825" stroke-width="1.5" opacity="0.5"/>
  <line x1="72" y1="64" x2="135" y2="64" stroke="#f9a825" stroke-width="1.5" opacity="0.5"/>
  <line x1="72" y1="76" x2="115" y2="76" stroke="#f9a825" stroke-width="1.5" opacity="0.5"/>
  <line x1="72" y1="88" x2="128" y2="88" stroke="#f9a825" stroke-width="1.5" opacity="0.5"/>
  <line x1="72" y1="100" x2="118" y2="100" stroke="#f9a825" stroke-width="1.5" opacity="0.5"/>
  <!-- Grade circles -->
  <circle cx="136" cy="40" r="6" fill="none" stroke="#f57f17" stroke-width="1.5"/>
  <circle cx="136" cy="64" r="6" fill="none" stroke="#f57f17" stroke-width="1.5"/>
  <circle cx="136" cy="88" r="6" fill="none" stroke="#f57f17" stroke-width="1.5"/>
  <!-- Pen -->
  <rect x="155" y="30" width="6" height="80" rx="2" fill="#f57f17" transform="rotate(15 158 70)"/>
  <polygon points="155,110 158,125 161,110" fill="#f9a825" transform="rotate(15 158 70)"/>
  <rect x="155" y="28" width="6" height="8" rx="1" fill="#f9a825" transform="rotate(15 158 32)"/>
</svg>