<svg xmlns="http://www.w3.org/2000/svg" width="200" height="150" viewBox="0 0 200 150">
  <rect width="200" height="150" rx="12" ry="12" fill="#fef7e0"/>
  <!-- Paint palette -->
  <ellipse cx="95" cy="80" rx="55" ry="42" fill="#f9a825"/>
  <!-- Thumb hole -->
  <ellipse cx="75" cy="95" rx="10" ry="8" fill="#fef7e0"/>
  <!-- Paint blobs -->
  <circle cx="70" cy="60" r="8" fill="#f57f17"/>
  <circle cx="90" cy="50" r="7" fill="#fef7e0" stroke="#f57f17" stroke-width="2"/>
  <circle cx="112" cy="52" r="8" fill="#f57f17" opacity="0.7"/>
  <circle cx="128" cy="65" r="7" fill="#fef7e0" stroke="#f9a825" stroke-width="2"/>
  <circle cx="125" cy="85" r="7" fill="#f57f17" opacity="0.5"/>
  <circle cx="105" cy="100" r="6" fill="#f57f17"/>
  <!-- Brush 1 -->
  <rect x="148" y="25" width="6" height="40" rx="2" fill="#f57f17"/>
  <rect x="146" y="20" width="10" height="12" rx="2" fill="#f9a825"/>
  <rect x="147" y="18" width="8" height="5" rx="1" fill="#f57f17"/>
  <!-- Brush 2 -->
  <rect x="164" y="35" width="5" height="35" rx="2" fill="#f57f17" transform="rotate(10 166 52)"/>
  <rect x="162" y="30" width="9" height="10" rx="2" fill="#f9a825" transform="rotate(10 166 35)"/>
  <rect x="163" y="28" width="7" height="5" rx="1" fill="#f57f17" transform="rotate(10 166 30)"/>
</svg>