<svg xmlns="http://www.w3.org/2000/svg" width="200" height="150" viewBox="0 0 200 150">
  <rect width="200" height="150" rx="12" ry="12" fill="#fef7e0"/>
  <!-- Round table -->
  <ellipse cx="100" cy="85" rx="55" ry="20" fill="#f9a825"/>
  <ellipse cx="100" cy="82" rx="55" ry="20" fill="#f57f17" opacity="0.3"/>
  <!-- Table leg (center) -->
  <rect x="95" y="95" width="10" height="30" fill="#f57f17" opacity="0.5"/>
  <rect x="85" y="122" width="30" height="5" rx="2" fill="#f57f17" opacity="0.5"/>
  <!-- Papers on table -->
  <rect x="80" y="74" width="15" height="10" rx="1" fill="#fef7e0" transform="rotate(-10 87 79)"/>
  <rect x="105" y="75" width="15" height="10" rx="1" fill="#fef7e0" transform="rotate(15 112 80)"/>
  <!-- Chair 1 (top) -->
  <rect x="88" y="38" width="24" height="4" rx="2" fill="#f57f17"/>
  <rect x="88" y="28" width="24" height="12" rx="3" fill="#f9a825"/>
  <line x1="92" y1="42" x2="92" y2="60" stroke="#f57f17" stroke-width="2"/>
  <line x1="108" y1="42" x2="108" y2="60" stroke="#f57f17" stroke-width="2"/>
  <!-- Chair 2 (left) -->
  <rect x="28" y="72" width="4" height="22" rx="2" fill="#f57f17"/>
  <rect x="20" y="72" width="14" height="22" rx="3" fill="#f9a825"/>
  <line x1="32" y1="78" x2="48" y2="78" stroke="#f57f17" stroke-width="2"/>
  <line x1="32" y1="90" x2="48" y2="90" stroke="#f57f17" stroke-width="2"/>
  <!-- Chair 3 (right) -->
  <rect x="168" y="72" width="4" height="22" rx="2" fill="#f57f17"/>
  <rect x="166" y="72" width="14" height="22" rx="3" fill="#f9a825"/>
  <line x1="168" y1="78" x2="152" y2="78" stroke="#f57f17" stroke-width="2"/>
  <line x1="168" y1="90" x2="152" y2="90" stroke="#f57f17" stroke-width="2"/>
  <!-- Chair 4 (bottom left) -->
  <rect x="55" y="108" width="20" height="4" rx="2" fill="#f57f17"/>
  <rect x="55" y="112" width="20" height="10" rx="3" fill="#f9a825"/>
  <line x1="60" y1="108" x2="60" y2="100" stroke="#f57f17" stroke-width="2"/>
  <line x1="72" y1="108" x2="72" y2="100" stroke="#f57f17" stroke-width="2"/>
  <!-- Chair 5 (bottom right) -->
  <rect x="125" y="108" width="20" height="4" rx="2" fill="#f57f17"/>
  <rect x="125" y="112" width="20" height="10" rx="3" fill="#f9a825"/>
  <line x1="130" y1="108" x2="130" y2="100" stroke="#f57f17" stroke-width="2"/>
  <line x1="142" y1="108" x2="142" y2="100" stroke="#f57f17" stroke-width="2"/>
</svg>