<svg xmlns="http://www.w3.org/2000/svg" width="200" height="150" viewBox="0 0 200 150">
  <rect width="200" height="150" rx="12" ry="12" fill="#fef7e0"/>
  <!-- Left page -->
  <path d="M100 25 L35 30 L35 125 L100 120 Z" fill="#f9a825" opacity="0.3"/>
  <path d="M100 25 L40 29 L40 122 L100 118 Z" fill="#fef7e0"/>
  <!-- Right page -->
  <path d="M100 25 L165 30 L165 125 L100 120 Z" fill="#f9a825" opacity="0.3"/>
  <path d="M100 25 L160 29 L160 122 L100 118 Z" fill="#fef7e0"/>
  <!-- Spine -->
  <line x1="100" y1="25" x2="100" y2="120" stroke="#f57f17" stroke-width="2"/>
  <!-- Left page lines -->
  <line x1="50" y1="45" x2="92" y2="42" stroke="#f9a825" stroke-width="1.5" opacity="0.4"/>
  <line x1="50" y1="55" x2="92" y2="53" stroke="#f9a825" stroke-width="1.5" opacity="0.4"/>
  <line x1="50" y1="65" x2="92" y2="63" stroke="#f9a825" stroke-width="1.5" opacity="0.4"/>
  <line x1="50" y1="75" x2="92" y2="74" stroke="#f9a825" stroke-width="1.5" opacity="0.4"/>
  <line x1="50" y1="85" x2="92" y2="84" stroke="#f9a825" stroke-width="1.5" opacity="0.4"/>
  <line x1="50" y1="95" x2="92" y2="95" stroke="#f9a825" stroke-width="1.5" opacity="0.4"/>
  <line x1="50" y1="105" x2="80" y2="105" stroke="#f9a825" stroke-width="1.5" opacity="0.4"/>
  <!-- Right page lines -->
  <line x1="108" y1="42" x2="152" y2="45" stroke="#f9a825" stroke-width="1.5" opacity="0.4"/>
  <line x1="108" y1="53" x2="152" y2="55" stroke="#f9a825" stroke-width="1.5" opacity="0.4"/>
  <line x1="108" y1="63" x2="152" y2="65" stroke="#f9a825" stroke-width="1.5" opacity="0.4"/>
  <line x1="108" y1="74" x2="152" y2="75" stroke="#f9a825" stroke-width="1.5" opacity="0.4"/>
  <line x1="108" y1="84" x2="152" y2="85" stroke="#f9a825" stroke-width="1.5" opacity="0.4"/>
  <line x1="108" y1="95" x2="140" y2="95" stroke="#f9a825" stroke-width="1.5" opacity="0.4"/>
  <!-- Bookmark ribbon -->
  <path d="M120 25 L120 10 L128 10 L128 25" fill="#f57f17"/>
  <polygon points="120,25 124,30 128,25" fill="#f57f17"/>
  <!-- Book cover edges -->
  <path d="M35 30 L35 125 L100 120" fill="none" stroke="#f9a825" stroke-width="2"/>
  <path d="M165 30 L165 125 L100 120" fill="none" stroke="#f9a825" stroke-width="2"/>
</svg>