<svg xmlns="http://www.w3.org/2000/svg" viewBox="0 0 200 150" width="200" height="150">
  <!-- Background -->
  <rect width="200" height="150" rx="8" fill="#fef7e0"/>
  <!-- School building -->
  <g transform="translate(30, 25)">
    <!-- Main building body -->
    <rect x="10" y="40" width="100" height="65" rx="2" fill="#f9a825"/>
    <!-- Roof -->
    <path d="M5,40 L60,8 L115,40 Z" fill="#f57f17"/>
    <!-- Roof trim -->
    <line x1="5" y1="40" x2="115" y2="40" stroke="#f57f17" stroke-width="3"/>
    <!-- Central entrance -->
    <rect x="42" y="65" width="36" height="40" rx="3" fill="#fef7e0" opacity="0.9"/>
    <!-- Door detail -->
    <line x1="60" y1="65" x2="60" y2="105" stroke="#f9a825" stroke-width="1.5" opacity="0.5"/>
    <!-- Door handle -->
    <circle cx="55" cy="88" r="2" fill="#f57f17"/>
    <circle cx="65" cy="88" r="2" fill="#f57f17"/>
    <!-- Windows - left side -->
    <rect x="18" y="50" width="16" height="14" rx="2" fill="#fef7e0" opacity="0.8"/>
    <line x1="26" y1="50" x2="26" y2="64" stroke="#f9a825" stroke-width="1" opacity="0.5"/>
    <line x1="18" y1="57" x2="34" y2="57" stroke="#f9a825" stroke-width="1" opacity="0.5"/>
    <rect x="18" y="75" width="16" height="14" rx="2" fill="#fef7e0" opacity="0.8"/>
    <line x1="26" y1="75" x2="26" y2="89" stroke="#f9a825" stroke-width="1" opacity="0.5"/>
    <line x1="18" y1="82" x2="34" y2="82" stroke="#f9a825" stroke-width="1" opacity="0.5"/>
    <!-- Windows - right side -->
    <rect x="86" y="50" width="16" height="14" rx="2" fill="#fef7e0" opacity="0.8"/>
    <line x1="94" y1="50" x2="94" y2="64" stroke="#f9a825" stroke-width="1" opacity="0.5"/>
    <line x1="86" y1="57" x2="102" y2="57" stroke="#f9a825" stroke-width="1" opacity="0.5"/>
    <rect x="86" y="75" width="16" height="14" rx="2" fill="#fef7e0" opacity="0.8"/>
    <line x1="94" y1="75" x2="94" y2="89" stroke="#f9a825" stroke-width="1" opacity="0.5"/>
    <line x1="86" y1="82" x2="102" y2="82" stroke="#f9a825" stroke-width="1" opacity="0.5"/>
    <!-- Clock/circle on roof -->
    <circle cx="60" cy="28" r="8" fill="#fef7e0" stroke="#f57f17" stroke-width="1.5"/>
    <circle cx="60" cy="28" r="1.5" fill="#f57f17"/>
    <line x1="60" y1="28" x2="60" y2="22" stroke="#f57f17" stroke-width="1.5" stroke-linecap="round"/>
    <line x1="60" y1="28" x2="64" y2="30" stroke="#f57f17" stroke-width="1.5" stroke-linecap="round"/>
    <!-- Flag pole -->
    <line x1="60" y1="8" x2="60" y2="-5" stroke="#f57f17" stroke-width="2"/>
    <path d="M60,-5 L72,-1 L60,3 Z" fill="#f57f17" opacity="0.7"/>
  </g>
  <!-- Large key -->
  <g transform="translate(148, 62) rotate(30)">
    <!-- Key head (bow) -->
    <circle cx="0" cy="0" r="16" fill="none" stroke="#f57f17" stroke-width="4"/>
    <circle cx="0" cy="0" r="7" fill="none" stroke="#f57f17" stroke-width="2.5"/>
    <!-- Key shaft -->
    <line x1="16" y1="0" x2="52" y2="0" stroke="#f57f17" stroke-width="4" stroke-linecap="round"/>
    <!-- Key teeth -->
    <path d="M42,0 L42,8 L46,8 L46,0" fill="none" stroke="#f57f17" stroke-width="3" stroke-linejoin="round"/>
    <path d="M48,0 L48,10 L52,10 L52,0" fill="none" stroke="#f57f17" stroke-width="3" stroke-linejoin="round"/>
  </g>
</svg>