<svg xmlns="http://www.w3.org/2000/svg" width="200" height="150" viewBox="0 0 200 150">
  <rect width="200" height="150" rx="12" ry="12" fill="#fef7e0"/>
  <!-- Exam paper -->
  <rect x="30" y="22" width="95" height="115" rx="4" fill="#f9a825" opacity="0.2"/>
  <rect x="33" y="25" width="89" height="109" rx="3" fill="#fef7e0"/>
  <!-- Paper header area -->
  <rect x="40" y="32" width="75" height="10" rx="2" fill="#f9a825" opacity="0.3"/>
  <!-- Question lines with checkboxes -->
  <rect x="40" y="50" width="8" height="8" rx="1" fill="none" stroke="#f9a825" stroke-width="1.5"/>
  <line x1="52" y1="54" x2="105" y2="54" stroke="#f9a825" stroke-width="1.5" opacity="0.4"/>
  <rect x="40" y="65" width="8" height="8" rx="1" fill="none" stroke="#f9a825" stroke-width="1.5"/>
  <line x1="52" y1="69" x2="100" y2="69" stroke="#f9a825" stroke-width="1.5" opacity="0.4"/>
  <!-- Checked checkbox -->
  <rect x="40" y="80" width="8" height="8" rx="1" fill="none" stroke="#f9a825" stroke-width="1.5"/>
  <path d="M42 84 L44 87 L47 81" fill="none" stroke="#f57f17" stroke-width="2" stroke-linecap="round"/>
  <line x1="52" y1="84" x2="108" y2="84" stroke="#f9a825" stroke-width="1.5" opacity="0.4"/>
  <rect x="40" y="95" width="8" height="8" rx="1" fill="none" stroke="#f9a825" stroke-width="1.5"/>
  <line x1="52" y1="99" x2="95" y2="99" stroke="#f9a825" stroke-width="1.5" opacity="0.4"/>
  <rect x="40" y="110" width="8" height="8" rx="1" fill="none" stroke="#f9a825" stroke-width="1.5"/>
  <line x1="52" y1="114" x2="102" y2="114" stroke="#f9a825" stroke-width="1.5" opacity="0.4"/>
  <!-- Clock -->
  <circle cx="152" cy="65" r="32" fill="#f9a825"/>
  <circle cx="152" cy="65" r="28" fill="#fef7e0"/>
  <circle cx="152" cy="65" r="2.5" fill="#f57f17"/>
  <!-- Clock hands -->
  <line x1="152" y1="65" x2="152" y2="42" stroke="#f57f17" stroke-width="3" stroke-linecap="round"/>
  <line x1="152" y1="65" x2="170" y2="72" stroke="#f57f17" stroke-width="2" stroke-linecap="round"/>
  <!-- Clock tick marks -->
  <line x1="152" y1="38" x2="152" y2="42" stroke="#f57f17" stroke-width="2"/>
  <line x1="152" y1="88" x2="152" y2="92" stroke="#f57f17" stroke-width="2"/>
  <line x1="125" y1="65" x2="129" y2="65" stroke="#f57f17" stroke-width="2"/>
  <line x1="175" y1="65" x2="179" y2="65" stroke="#f57f17" stroke-width="2"/>
  <!-- Small tick marks -->
  <line x1="140" y1="40" x2="142" y2="43" stroke="#f57f17" stroke-width="1.5"/>
  <line x1="164" y1="40" x2="162" y2="43" stroke="#f57f17" stroke-width="1.5"/>
  <line x1="176" y1="53" x2="173" y2="55" stroke="#f57f17" stroke-width="1.5"/>
  <line x1="176" y1="77" x2="173" y2="75" stroke="#f57f17" stroke-width="1.5"/>
  <line x1="164" y1="90" x2="162" y2="87" stroke="#f57f17" stroke-width="1.5"/>
  <line x1="140" y1="90" x2="142" y2="87" stroke="#f57f17" stroke-width="1.5"/>
  <line x1="128" y1="77" x2="131" y2="75" stroke="#f57f17" stroke-width="1.5"/>
  <line x1="128" y1="53" x2="131" y2="55" stroke="#f57f17" stroke-width="1.5"/>
  <!-- Exclamation/urgency marks -->
  <line x1="148" y1="108" x2="148" y2="118" stroke="#f57f17" stroke-width="2" stroke-linecap="round"/>
  <circle cx="148" cy="122" r="1.5" fill="#f57f17"/>
  <line x1="156" y1="108" x2="156" y2="118" stroke="#f57f17" stroke-width="2" stroke-linecap="round"/>
  <circle cx="156" cy="122" r="1.5" fill="#f57f17"/>
</svg>