<svg xmlns="http://www.w3.org/2000/svg" width="200" height="150" viewBox="0 0 200 150">
  <rect width="200" height="150" rx="12" ry="12" fill="#fef7e0"/>
  <!-- Desk surface -->
  <rect x="10" y="105" width="180" height="8" rx="2" fill="#f57f17" opacity="0.4"/>
  <!-- Monitor 1 -->
  <rect x="18" y="40" width="45" height="35" rx="3" fill="#f9a825"/>
  <rect x="21" y="43" width="39" height="28" rx="2" fill="#fef7e0"/>
  <rect x="35" y="75" width="15" height="12" fill="#f57f17" opacity="0.5"/>
  <rect x="28" y="87" width="30" height="4" rx="2" fill="#f57f17"/>
  <!-- Screen content 1 -->
  <rect x="25" y="48" width="15" height="3" fill="#f9a825" opacity="0.4"/>
  <rect x="25" y="54" width="30" height="3" fill="#f9a825" opacity="0.3"/>
  <rect x="25" y="60" width="20" height="3" fill="#f9a825" opacity="0.4"/>
  <!-- Monitor 2 -->
  <rect x="78" y="40" width="45" height="35" rx="3" fill="#f9a825"/>
  <rect x="81" y="43" width="39" height="28" rx="2" fill="#fef7e0"/>
  <rect x="95" y="75" width="15" height="12" fill="#f57f17" opacity="0.5"/>
  <rect x="88" y="87" width="30" height="4" rx="2" fill="#f57f17"/>
  <!-- Screen content 2 -->
  <rect x="85" y="48" width="25" height="3" fill="#f9a825" opacity="0.4"/>
  <rect x="85" y="54" width="30" height="3" fill="#f9a825" opacity="0.3"/>
  <rect x="85" y="60" width="18" height="3" fill="#f9a825" opacity="0.4"/>
  <!-- Monitor 3 -->
  <rect x="138" y="40" width="45" height="35" rx="3" fill="#f9a825"/>
  <rect x="141" y="43" width="39" height="28" rx="2" fill="#fef7e0"/>
  <rect x="155" y="75" width="15" height="12" fill="#f57f17" opacity="0.5"/>
  <rect x="148" y="87" width="30" height="4" rx="2" fill="#f57f17"/>
  <!-- Screen content 3 -->
  <rect x="145" y="48" width="20" height="3" fill="#f9a825" opacity="0.4"/>
  <rect x="145" y="54" width="30" height="3" fill="#f9a825" opacity="0.3"/>
  <rect x="145" y="60" width="25" height="3" fill="#f9a825" opacity="0.4"/>
  <!-- Keyboards -->
  <rect x="22" y="95" width="35" height="8" rx="2" fill="#f57f17" opacity="0.3"/>
  <rect x="82" y="95" width="35" height="8" rx="2" fill="#f57f17" opacity="0.3"/>
  <rect x="142" y="95" width="35" height="8" rx="2" fill="#f57f17" opacity="0.3"/>
  <!-- Mouse devices -->
  <ellipse cx="62" cy="98" rx="5" ry="7" fill="#f57f17" opacity="0.3"/>
  <ellipse cx="122" cy="98" rx="5" ry="7" fill="#f57f17" opacity="0.3"/>
  <ellipse cx="182" cy="98" rx="5" ry="7" fill="#f57f17" opacity="0.3"/>
</svg>