<svg xmlns="http://www.w3.org/2000/svg" width="200" height="150" viewBox="0 0 200 150">
  <rect width="200" height="150" rx="12" ry="12" fill="#fef7e0"/>
  <!-- Tray -->
  <rect x="25" y="85" width="150" height="10" rx="3" fill="#f9a825"/>
  <rect x="30" y="95" width="140" height="30" rx="4" fill="#f57f17" opacity="0.3"/>
  <!-- Tray rim -->
  <rect x="22" y="92" width="156" height="5" rx="2" fill="#f57f17"/>
  <!-- Plate (circle) -->
  <ellipse cx="70" cy="72" rx="30" ry="18" fill="#f9a825" opacity="0.4"/>
  <ellipse cx="70" cy="72" rx="24" ry="14" fill="#fef7e0"/>
  <!-- Food on plate - drumstick shape -->
  <ellipse cx="62" cy="68" rx="10" ry="7" fill="#f57f17"/>
  <rect x="70" y="66" width="12" height="5" rx="2" fill="#f9a825"/>
  <!-- Vegetables -->
  <circle cx="78" cy="75" r="4" fill="#f9a825" opacity="0.7"/>
  <circle cx="60" cy="78" r="3" fill="#f9a825" opacity="0.7"/>
  <!-- Glass/Cup -->
  <rect x="120" y="50" width="18" height="30" rx="3" fill="#f9a825" opacity="0.5"/>
  <rect x="122" y="53" width="14" height="24" rx="2" fill="#fef7e0"/>
  <rect x="122" y="60" width="14" height="14" fill="#f9a825" opacity="0.3"/>
  <!-- Apple/fruit -->
  <circle cx="155" cy="72" r="10" fill="#f57f17"/>
  <line x1="155" y1="62" x2="155" y2="57" stroke="#f9a825" stroke-width="2"/>
  <ellipse cx="158" cy="58" rx="4" ry="2" fill="#f9a825" transform="rotate(30 158 58)"/>
  <!-- Fork -->
  <rect x="38" y="35" width="2" height="30" fill="#f57f17" opacity="0.6"/>
  <rect x="34" y="33" width="2" height="10" fill="#f57f17" opacity="0.6"/>
  <rect x="38" y="33" width="2" height="10" fill="#f57f17" opacity="0.6"/>
  <rect x="42" y="33" width="2" height="10" fill="#f57f17" opacity="0.6"/>
  <!-- Knife -->
  <rect x="170" y="35" width="3" height="30" fill="#f57f17" opacity="0.6"/>
  <path d="M170 35 Q168 30 170 28 L173 28 Q175 30 173 35 Z" fill="#f57f17" opacity="0.6"/>
</svg>