<svg xmlns="http://www.w3.org/2000/svg" width="200" height="150" viewBox="0 0 200 150">
  <rect width="200" height="150" rx="12" ry="12" fill="#fef7e0"/>
  <!-- Picket sign 1 (left) -->
  <rect x="48" y="85" width="5" height="50" fill="#f57f17"/>
  <rect x="30" y="50" width="42" height="38" rx="3" fill="#f9a825"/>
  <rect x="33" y="53" width="36" height="32" rx="2" fill="#fef7e0"/>
  <!-- Lines on sign 1 -->
  <line x1="38" y1="62" x2="64" y2="62" stroke="#f57f17" stroke-width="2" opacity="0.5"/>
  <line x1="40" y1="70" x2="62" y2="70" stroke="#f57f17" stroke-width="2" opacity="0.5"/>
  <line x1="42" y1="78" x2="58" y2="78" stroke="#f57f17" stroke-width="2" opacity="0.5"/>
  <!-- Picket sign 2 (center, taller) -->
  <rect x="98" y="75" width="5" height="55" fill="#f57f17"/>
  <rect x="78" y="35" width="46" height="42" rx="3" fill="#f57f17"/>
  <rect x="81" y="38" width="40" height="36" rx="2" fill="#fef7e0"/>
  <!-- Lines on sign 2 -->
  <line x1="86" y1="48" x2="116" y2="48" stroke="#f57f17" stroke-width="2.5" opacity="0.5"/>
  <line x1="88" y1="57" x2="114" y2="57" stroke="#f57f17" stroke-width="2" opacity="0.5"/>
  <line x1="90" y1="66" x2="110" y2="66" stroke="#f57f17" stroke-width="2" opacity="0.5"/>
  <!-- Picket sign 3 (right) -->
  <rect x="148" y="80" width="5" height="50" fill="#f57f17"/>
  <rect x="130" y="45" width="42" height="38" rx="3" fill="#f9a825"/>
  <rect x="133" y="48" width="36" height="32" rx="2" fill="#fef7e0"/>
  <!-- Lines on sign 3 -->
  <line x1="138" y1="57" x2="164" y2="57" stroke="#f57f17" stroke-width="2" opacity="0.5"/>
  <line x1="140" y1="65" x2="162" y2="65" stroke="#f57f17" stroke-width="2" opacity="0.5"/>
  <line x1="142" y1="73" x2="158" y2="73" stroke="#f57f17" stroke-width="2" opacity="0.5"/>
  <!-- Raised fist 1 (left) -->
  <path d="M25 28 L25 12 L30 12 L30 20 L33 20 L33 10 L38 10 L38 20 L41 20 L41 12 L46 12 L46 22 L48 22 L48 15 L53 15 L53 28 Q53 38 39 38 Q25 38 25 28 Z" fill="#f57f17"/>
  <!-- Raised fist 2 (right) -->
  <path d="M155 25 L155 9 L160 9 L160 17 L163 17 L163 7 L168 7 L168 17 L171 17 L171 9 L176 9 L176 19 L178 19 L178 12 L183 12 L183 25 Q183 35 169 35 Q155 35 155 25 Z" fill="#f57f17"/>
</svg>