<svg xmlns="http://www.w3.org/2000/svg" width="200" height="150" viewBox="0 0 200 150">
  <rect width="200" height="150" rx="12" ry="12" fill="#fef7e0"/>
  <!-- Scroll/parchment -->
  <rect x="35" y="30" width="130" height="90" fill="#f9a825" opacity="0.3"/>
  <!-- Top roll -->
  <ellipse cx="100" cy="30" rx="70" ry="8" fill="#f9a825"/>
  <ellipse cx="100" cy="30" rx="70" ry="5" fill="#f57f17" opacity="0.4"/>
  <!-- Bottom roll -->
  <ellipse cx="100" cy="120" rx="70" ry="8" fill="#f9a825"/>
  <ellipse cx="100" cy="120" rx="70" ry="5" fill="#f57f17" opacity="0.4"/>
  <!-- Scroll edge shadows -->
  <rect x="30" y="30" width="4" height="90" fill="#f9a825" opacity="0.5"/>
  <rect x="166" y="30" width="4" height="90" fill="#f9a825" opacity="0.5"/>
  <!-- Timeline line -->
  <line x1="55" y1="75" x2="145" y2="75" stroke="#f57f17" stroke-width="3" stroke-linecap="round"/>
  <!-- Timeline dots/events -->
  <circle cx="65" cy="75" r="5" fill="#f57f17"/>
  <line x1="65" y1="70" x2="65" y2="55" stroke="#f57f17" stroke-width="1.5"/>
  <rect x="58" y="48" width="14" height="8" rx="2" fill="#f57f17" opacity="0.5"/>
  <circle cx="90" cy="75" r="5" fill="#f57f17"/>
  <line x1="90" y1="80" x2="90" y2="95" stroke="#f57f17" stroke-width="1.5"/>
  <rect x="83" y="95" width="14" height="8" rx="2" fill="#f57f17" opacity="0.5"/>
  <circle cx="115" cy="75" r="5" fill="#f57f17"/>
  <line x1="115" y1="70" x2="115" y2="55" stroke="#f57f17" stroke-width="1.5"/>
  <rect x="108" y="48" width="14" height="8" rx="2" fill="#f57f17" opacity="0.5"/>
  <circle cx="140" cy="75" r="5" fill="#f57f17"/>
  <line x1="140" y1="80" x2="140" y2="95" stroke="#f57f17" stroke-width="1.5"/>
  <rect x="133" y="95" width="14" height="8" rx="2" fill="#f57f17" opacity="0.5"/>
</svg>