<svg xmlns="http://www.w3.org/2000/svg" width="200" height="150" viewBox="0 0 200 150">
  <rect width="200" height="150" rx="12" ry="12" fill="#e6f4ea"/>
  <!-- City skyline -->
  <!-- Building 1 -->
  <rect x="20" y="70" width="25" height="55" fill="#0d652d" opacity="0.6"/>
  <rect x="24" y="76" width="6" height="5" fill="#e6f4ea"/>
  <rect x="34" y="76" width="6" height="5" fill="#e6f4ea"/>
  <rect x="24" y="86" width="6" height="5" fill="#e6f4ea"/>
  <rect x="34" y="86" width="6" height="5" fill="#e6f4ea"/>
  <!-- Building 2 (tall) -->
  <rect x="48" y="45" width="22" height="80" fill="#0d652d" opacity="0.7"/>
  <rect x="52" y="51" width="5" height="5" fill="#e6f4ea"/>
  <rect x="61" y="51" width="5" height="5" fill="#e6f4ea"/>
  <rect x="52" y="62" width="5" height="5" fill="#e6f4ea"/>
  <rect x="61" y="62" width="5" height="5" fill="#e6f4ea"/>
  <rect x="52" y="73" width="5" height="5" fill="#e6f4ea"/>
  <rect x="61" y="73" width="5" height="5" fill="#e6f4ea"/>
  <!-- Building 3 (tallest - center) -->
  <rect x="73" y="35" width="28" height="90" fill="#0d652d" opacity="0.8"/>
  <rect x="78" y="42" width="6" height="5" fill="#e6f4ea"/>
  <rect x="90" y="42" width="6" height="5" fill="#e6f4ea"/>
  <rect x="78" y="54" width="6" height="5" fill="#e6f4ea"/>
  <rect x="90" y="54" width="6" height="5" fill="#e6f4ea"/>
  <rect x="78" y="66" width="6" height="5" fill="#e6f4ea"/>
  <rect x="90" y="66" width="6" height="5" fill="#e6f4ea"/>
  <!-- Building 4 -->
  <rect x="104" y="55" width="24" height="70" fill="#0d652d" opacity="0.65"/>
  <rect x="109" y="62" width="5" height="5" fill="#e6f4ea"/>
  <rect x="119" y="62" width="5" height="5" fill="#e6f4ea"/>
  <rect x="109" y="73" width="5" height="5" fill="#e6f4ea"/>
  <rect x="119" y="73" width="5" height="5" fill="#e6f4ea"/>
  <!-- Building 5 -->
  <rect x="131" y="65" width="22" height="60" fill="#0d652d" opacity="0.6"/>
  <rect x="135" y="72" width="5" height="5" fill="#e6f4ea"/>
  <rect x="144" y="72" width="5" height="5" fill="#e6f4ea"/>
  <rect x="135" y="83" width="5" height="5" fill="#e6f4ea"/>
  <rect x="144" y="83" width="5" height="5" fill="#e6f4ea"/>
  <!-- Building 6 -->
  <rect x="156" y="75" width="22" height="50" fill="#0d652d" opacity="0.55"/>
  <rect x="160" y="82" width="5" height="5" fill="#e6f4ea"/>
  <rect x="169" y="82" width="5" height="5" fill="#e6f4ea"/>
  <!-- Crown above center building -->
  <polygon points="87,15 80,32 94,32" fill="#0d652d"/>
  <polygon points="78,15 72,32 84,32" fill="#0d652d" opacity="0.85"/>
  <polygon points="96,15 90,32 102,32" fill="#0d652d" opacity="0.85"/>
  <rect x="72" y="30" width="30" height="5" fill="#0d652d"/>
  <!-- Crown jewels -->
  <circle cx="78" cy="20" r="2" fill="#e6f4ea"/>
  <circle cx="87" cy="18" r="2.5" fill="#e6f4ea"/>
  <circle cx="96" cy="20" r="2" fill="#e6f4ea"/>
  <!-- Ground -->
  <line x1="15" y1="125" x2="185" y2="125" stroke="#0d652d" stroke-width="2"/>
</svg>