<svg xmlns="http://www.w3.org/2000/svg" viewBox="0 0 200 150" width="200" height="150">
  <rect width="200" height="150" rx="8" fill="#e6f4ea"/>
  <!-- Master plan map background -->
  <rect x="20" y="15" width="115" height="120" rx="3" fill="#fff" stroke="#0d652d" stroke-width="2"/>
  <!-- Grid streets - horizontal -->
  <line x1="20" y1="40" x2="135" y2="40" stroke="#0d652d" stroke-width="1.2" opacity="0.4"/>
  <line x1="20" y1="60" x2="135" y2="60" stroke="#0d652d" stroke-width="1.2" opacity="0.4"/>
  <line x1="20" y1="80" x2="135" y2="80" stroke="#0d652d" stroke-width="1.2" opacity="0.4"/>
  <line x1="20" y1="100" x2="135" y2="100" stroke="#0d652d" stroke-width="1.2" opacity="0.4"/>
  <line x1="20" y1="115" x2="135" y2="115" stroke="#0d652d" stroke-width="1.2" opacity="0.4"/>
  <!-- Grid streets - vertical -->
  <line x1="45" y1="15" x2="45" y2="135" stroke="#0d652d" stroke-width="1.2" opacity="0.4"/>
  <line x1="70" y1="15" x2="70" y2="135" stroke="#0d652d" stroke-width="1.2" opacity="0.4"/>
  <line x1="95" y1="15" x2="95" y2="135" stroke="#0d652d" stroke-width="1.2" opacity="0.4"/>
  <line x1="115" y1="15" x2="115" y2="135" stroke="#0d652d" stroke-width="1.2" opacity="0.4"/>
  <!-- Main boulevard - diagonal -->
  <line x1="20" y1="15" x2="135" y2="135" stroke="#0d652d" stroke-width="2.5" opacity="0.5"/>
  <!-- Zoning blocks - residential (lighter) -->
  <rect x="22" y="17" width="21" height="21" rx="1" fill="#1a8a3e" opacity="0.2"/>
  <rect x="47" y="17" width="21" height="21" rx="1" fill="#1a8a3e" opacity="0.15"/>
  <rect x="97" y="42" width="16" height="16" rx="1" fill="#1a8a3e" opacity="0.2"/>
  <!-- Zoning blocks - commercial (medium) -->
  <rect x="72" y="17" width="21" height="21" rx="1" fill="#0d652d" opacity="0.2"/>
  <rect x="22" y="42" width="21" height="16" rx="1" fill="#0d652d" opacity="0.25"/>
  <rect x="97" y="82" width="16" height="16" rx="1" fill="#0d652d" opacity="0.2"/>
  <!-- Zoning blocks - park/green (darker) -->
  <rect x="72" y="62" width="21" height="16" rx="1" fill="#1a8a3e" opacity="0.35"/>
  <rect x="22" y="102" width="21" height="11" rx="1" fill="#1a8a3e" opacity="0.35"/>
  <!-- Small building footprints -->
  <rect x="48" y="63" width="6" height="6" fill="#0d652d" opacity="0.4"/>
  <rect x="58" y="63" width="6" height="6" fill="#0d652d" opacity="0.4"/>
  <rect x="48" y="72" width="6" height="4" fill="#0d652d" opacity="0.35"/>
  <rect x="24" y="83" width="8" height="6" fill="#0d652d" opacity="0.35"/>
  <rect x="35" y="83" width="6" height="6" fill="#0d652d" opacity="0.3"/>
  <rect x="72" y="83" width="8" height="5" fill="#0d652d" opacity="0.35"/>
  <rect x="117" y="62" width="7" height="7" fill="#0d652d" opacity="0.3"/>
  <rect x="47" y="103" width="8" height="5" fill="#0d652d" opacity="0.35"/>
  <rect x="72" y="103" width="6" height="5" fill="#0d652d" opacity="0.3"/>
  <!-- Roundabout / intersection -->
  <circle cx="70" cy="40" r="5" fill="none" stroke="#0d652d" stroke-width="1.5" opacity="0.5"/>
  <circle cx="70" cy="40" r="2" fill="#1a8a3e" opacity="0.4"/>
  <!-- Compass rose (right side) -->
  <g transform="translate(163, 75)">
    <!-- Outer circle -->
    <circle cx="0" cy="0" r="22" fill="#fff" stroke="#0d652d" stroke-width="1.5"/>
    <circle cx="0" cy="0" r="20" fill="none" stroke="#0d652d" stroke-width="0.5" opacity="0.3"/>
    <!-- North point (filled) -->
    <polygon points="0,-18 -5,0 0,-4 5,0" fill="#0d652d"/>
    <!-- South point (outline) -->
    <polygon points="0,18 -5,0 0,4 5,0" fill="#1a8a3e" opacity="0.5"/>
    <!-- East point -->
    <polygon points="18,0 0,-5 4,0 0,5" fill="#1a8a3e" opacity="0.5"/>
    <!-- West point -->
    <polygon points="-18,0 0,-5 -4,0 0,5" fill="#0d652d" opacity="0.7"/>
    <!-- Diagonal points (smaller) -->
    <polygon points="13,-13 2,-2 -2,2" fill="#0d652d" opacity="0.3"/>
    <polygon points="13,13 2,2 -2,-2" fill="#0d652d" opacity="0.3"/>
    <polygon points="-13,-13 -2,-2 2,2" fill="#0d652d" opacity="0.3"/>
    <polygon points="-13,13 -2,2 2,-2" fill="#0d652d" opacity="0.3"/>
    <!-- Center dot -->
    <circle cx="0" cy="0" r="2" fill="#0d652d"/>
  </g>
  <!-- Map fold line hints -->
  <line x1="77" y1="15" x2="77" y2="135" stroke="#0d652d" stroke-width="0.5" opacity="0.1" stroke-dasharray="4,4"/>
  <line x1="20" y1="75" x2="135" y2="75" stroke="#0d652d" stroke-width="0.5" opacity="0.1" stroke-dasharray="4,4"/>
</svg>