<svg xmlns="http://www.w3.org/2000/svg" width="200" height="150" viewBox="0 0 200 150">
  <rect width="200" height="150" rx="12" ry="12" fill="#e6f4ea"/>
  <!-- Document -->
  <rect x="45" y="15" width="110" height="120" rx="4" fill="#0d652d" opacity="0.12"/>
  <rect x="45" y="15" width="110" height="120" rx="4" fill="none" stroke="#0d652d" stroke-width="2"/>
  <!-- Document fold corner -->
  <polygon points="130,15 155,15 155,40 130,40" fill="#e6f4ea"/>
  <polygon points="130,15 155,40 130,40" fill="#0d652d" opacity="0.2"/>
  <line x1="130" y1="15" x2="155" y2="40" stroke="#0d652d" stroke-width="1.5"/>
  <line x1="130" y1="15" x2="130" y2="40" stroke="#0d652d" stroke-width="1.5"/>
  <line x1="130" y1="40" x2="155" y2="40" stroke="#0d652d" stroke-width="1.5"/>
  <!-- Header line -->
  <line x1="60" y1="35" x2="120" y2="35" stroke="#0d652d" stroke-width="3" opacity="0.4"/>
  <!-- Body lines -->
  <line x1="60" y1="50" x2="140" y2="50" stroke="#0d652d" stroke-width="1.5" opacity="0.3"/>
  <line x1="60" y1="60" x2="140" y2="60" stroke="#0d652d" stroke-width="1.5" opacity="0.3"/>
  <line x1="60" y1="70" x2="130" y2="70" stroke="#0d652d" stroke-width="1.5" opacity="0.3"/>
  <line x1="60" y1="80" x2="140" y2="80" stroke="#0d652d" stroke-width="1.5" opacity="0.3"/>
  <line x1="60" y1="90" x2="120" y2="90" stroke="#0d652d" stroke-width="1.5" opacity="0.3"/>
  <!-- Official stamp -->
  <circle cx="115" cy="110" r="16" fill="none" stroke="#0d652d" stroke-width="2.5"/>
  <circle cx="115" cy="110" r="12" fill="none" stroke="#0d652d" stroke-width="1"/>
  <line x1="105" y1="110" x2="125" y2="110" stroke="#0d652d" stroke-width="2"/>
  <line x1="108" y1="105" x2="122" y2="105" stroke="#0d652d" stroke-width="1"/>
  <line x1="108" y1="115" x2="122" y2="115" stroke="#0d652d" stroke-width="1"/>
  <!-- Signature line -->
  <line x1="60" y1="118" x2="90" y2="118" stroke="#0d652d" stroke-width="1.5" opacity="0.5"/>
  <path d="M 63 115 Q 70 108 75 115 Q 78 118 85 112" fill="none" stroke="#0d652d" stroke-width="1.5" opacity="0.5"/>
</svg>