<svg xmlns="http://www.w3.org/2000/svg" width="200" height="150" viewBox="0 0 200 150">
  <rect width="200" height="150" rx="12" ry="12" fill="#e6f4ea"/>
  <!-- Floor plan outline -->
  <rect x="30" y="20" width="140" height="110" rx="2" fill="none" stroke="#0d652d" stroke-width="2.5"/>
  <!-- Interior walls -->
  <line x1="30" y1="70" x2="100" y2="70" stroke="#0d652d" stroke-width="2"/>
  <line x1="100" y1="20" x2="100" y2="95" stroke="#0d652d" stroke-width="2"/>
  <line x1="120" y1="70" x2="170" y2="70" stroke="#0d652d" stroke-width="2"/>
  <!-- Door openings (gaps) -->
  <line x1="100" y1="70" x2="120" y2="70" stroke="#e6f4ea" stroke-width="3"/>
  <!-- Door arc -->
  <path d="M 100 70 Q 110 55 120 70" fill="none" stroke="#0d652d" stroke-width="1.5" stroke-dasharray="3,2"/>
  <!-- Furniture - sofa in top left -->
  <rect x="40" y="30" width="30" height="12" rx="3" fill="#0d652d" opacity="0.5"/>
  <!-- Table -->
  <rect x="45" y="48" width="18" height="14" rx="1" fill="#0d652d" opacity="0.4"/>
  <!-- Bed in right room -->
  <rect x="115" y="28" width="40" height="30" rx="3" fill="#0d652d" opacity="0.4"/>
  <rect x="115" y="28" width="40" height="8" rx="3" fill="#0d652d" opacity="0.6"/>
  <!-- Kitchen counter bottom left -->
  <rect x="35" y="80" width="8" height="35" rx="1" fill="#0d652d" opacity="0.5"/>
  <rect x="35" y="80" width="30" height="8" rx="1" fill="#0d652d" opacity="0.5"/>
  <!-- Bathroom fixtures bottom right -->
  <ellipse cx="140" cy="100" rx="8" ry="6" fill="#0d652d" opacity="0.4"/>
  <rect x="155" y="90" width="8" height="12" rx="2" fill="#0d652d" opacity="0.4"/>
</svg>