<svg xmlns="http://www.w3.org/2000/svg" viewBox="0 0 200 150" width="200" height="150">
  <rect width="200" height="150" rx="8" fill="#e6f4ea"/>
  <!-- Ground line -->
  <line x1="10" y1="135" x2="190" y2="135" stroke="#0d652d" stroke-width="2" opacity="0.3"/>
  <!-- Crane base -->
  <rect x="55" y="120" width="30" height="15" rx="2" fill="#0d652d" opacity="0.4"/>
  <!-- Crane tracks/wheels -->
  <circle cx="62" cy="135" r="5" fill="#0d652d" opacity="0.3" stroke="#0d652d" stroke-width="1.5"/>
  <circle cx="78" cy="135" r="5" fill="#0d652d" opacity="0.3" stroke="#0d652d" stroke-width="1.5"/>
  <!-- Crane vertical mast -->
  <rect x="67" y="14" width="6" height="106" fill="#0d652d" opacity="0.7"/>
  <!-- Mast lattice pattern -->
  <line x1="67" y1="30" x2="73" y2="44" stroke="#e6f4ea" stroke-width="1"/>
  <line x1="73" y1="30" x2="67" y2="44" stroke="#e6f4ea" stroke-width="1"/>
  <line x1="67" y1="44" x2="73" y2="58" stroke="#e6f4ea" stroke-width="1"/>
  <line x1="73" y1="44" x2="67" y2="58" stroke="#e6f4ea" stroke-width="1"/>
  <line x1="67" y1="58" x2="73" y2="72" stroke="#e6f4ea" stroke-width="1"/>
  <line x1="73" y1="58" x2="67" y2="72" stroke="#e6f4ea" stroke-width="1"/>
  <line x1="67" y1="72" x2="73" y2="86" stroke="#e6f4ea" stroke-width="1"/>
  <line x1="73" y1="72" x2="67" y2="86" stroke="#e6f4ea" stroke-width="1"/>
  <line x1="67" y1="86" x2="73" y2="100" stroke="#e6f4ea" stroke-width="1"/>
  <line x1="73" y1="86" x2="67" y2="100" stroke="#e6f4ea" stroke-width="1"/>
  <line x1="67" y1="100" x2="73" y2="114" stroke="#e6f4ea" stroke-width="1"/>
  <line x1="73" y1="100" x2="67" y2="114" stroke="#e6f4ea" stroke-width="1"/>
  <!-- Crane horizontal jib (boom) -->
  <rect x="30" y="14" width="140" height="5" rx="1" fill="#0d652d" opacity="0.6"/>
  <!-- Jib lattice -->
  <line x1="30" y1="14" x2="40" y2="19" stroke="#0d652d" stroke-width="0.8" opacity="0.3"/>
  <line x1="50" y1="14" x2="60" y2="19" stroke="#0d652d" stroke-width="0.8" opacity="0.3"/>
  <line x1="80" y1="14" x2="90" y2="19" stroke="#0d652d" stroke-width="0.8" opacity="0.3"/>
  <line x1="100" y1="14" x2="110" y2="19" stroke="#0d652d" stroke-width="0.8" opacity="0.3"/>
  <line x1="120" y1="14" x2="130" y2="19" stroke="#0d652d" stroke-width="0.8" opacity="0.3"/>
  <line x1="140" y1="14" x2="150" y2="19" stroke="#0d652d" stroke-width="0.8" opacity="0.3"/>
  <!-- Counter-jib counterweight -->
  <rect x="30" y="20" width="14" height="10" rx="2" fill="#0d652d" opacity="0.5"/>
  <!-- Top of mast peak -->
  <polygon points="70,8 66,14 74,14" fill="#0d652d" opacity="0.6"/>
  <!-- Support cables -->
  <line x1="70" y1="10" x2="38" y2="14" stroke="#0d652d" stroke-width="1.2" opacity="0.4"/>
  <line x1="70" y1="10" x2="170" y2="14" stroke="#0d652d" stroke-width="1.2" opacity="0.4"/>
  <!-- Trolley on jib -->
  <rect x="140" y="19" width="10" height="5" rx="1" fill="#0d652d" opacity="0.5"/>
  <!-- Cable from trolley -->
  <line x1="145" y1="24" x2="145" y2="70" stroke="#0d652d" stroke-width="1.5" opacity="0.5"/>
  <!-- Hook -->
  <path d="M141,70 L145,70 L149,70" stroke="#0d652d" stroke-width="2" fill="none" opacity="0.6"/>
  <path d="M145,70 Q145,82 138,82 Q133,82 133,76" stroke="#0d652d" stroke-width="2" fill="none" opacity="0.6" stroke-linecap="round"/>
  <!-- Hanging load (steel beam) -->
  <rect x="128" y="84" width="34" height="8" rx="1" fill="#0d652d" opacity="0.35"/>
  <!-- Small building under construction -->
  <rect x="105" y="105" width="40" height="30" rx="2" fill="#0d652d" opacity="0.15" stroke="#0d652d" stroke-width="1.5" stroke-dasharray="4,3"/>
  <rect x="112" y="112" width="10" height="10" rx="1" fill="#0d652d" opacity="0.2"/>
  <rect x="128" y="112" width="10" height="10" rx="1" fill="#0d652d" opacity="0.2"/>
</svg>
