<svg xmlns="http://www.w3.org/2000/svg" width="200" height="150" viewBox="0 0 200 150">
  <rect width="200" height="150" rx="12" ry="12" fill="#e6f4ea"/>
  <!-- Ribbon - left side -->
  <path d="M 30 65 Q 60 60 85 65 Q 100 68 100 68" fill="none" stroke="#0d652d" stroke-width="6" stroke-linecap="round"/>
  <!-- Ribbon - right side -->
  <path d="M 100 68 Q 100 68 115 65 Q 140 60 170 65" fill="none" stroke="#0d652d" stroke-width="6" stroke-linecap="round"/>
  <!-- Ribbon tails left -->
  <path d="M 30 65 L 22 85 L 35 78 L 40 90" fill="none" stroke="#0d652d" stroke-width="4" stroke-linecap="round" stroke-linejoin="round"/>
  <!-- Ribbon tails right -->
  <path d="M 170 65 L 178 85 L 165 78 L 160 90" fill="none" stroke="#0d652d" stroke-width="4" stroke-linecap="round" stroke-linejoin="round"/>
  <!-- Scissors - blade 1 -->
  <path d="M 90 60 L 75 30" stroke="#0d652d" stroke-width="3" stroke-linecap="round"/>
  <ellipse cx="73" cy="26" rx="6" ry="8" fill="none" stroke="#0d652d" stroke-width="2"/>
  <!-- Scissors - blade 2 -->
  <path d="M 90 60 L 105 30" stroke="#0d652d" stroke-width="3" stroke-linecap="round"/>
  <ellipse cx="107" cy="26" rx="6" ry="8" fill="none" stroke="#0d652d" stroke-width="2"/>
  <!-- Scissors pivot -->
  <circle cx="90" cy="48" r="3" fill="#0d652d"/>
  <!-- Cut marks on ribbon -->
  <line x1="97" y1="62" x2="103" y2="72" stroke="#e6f4ea" stroke-width="2"/>
  <!-- Confetti/celebration dots -->
  <circle cx="50" cy="40" r="3" fill="#0d652d" opacity="0.25"/>
  <circle cx="145" cy="38" r="3" fill="#0d652d" opacity="0.25"/>
  <circle cx="70" cy="100" r="2.5" fill="#0d652d" opacity="0.2"/>
  <circle cx="130" cy="98" r="2.5" fill="#0d652d" opacity="0.2"/>
  <rect x="55" y="105" width="5" height="5" fill="#0d652d" opacity="0.15" transform="rotate(30, 57, 107)"/>
  <rect x="140" y="102" width="5" height="5" fill="#0d652d" opacity="0.15" transform="rotate(-20, 142, 104)"/>
  <rect x="85" y="95" width="4" height="4" fill="#0d652d" opacity="0.15" transform="rotate(45, 87, 97)"/>
  <circle cx="112" cy="100" r="2" fill="#0d652d" opacity="0.2"/>
  <!-- Stars -->
  <polygon points="40,110 42,115 47,115 43,118 44,123 40,120 36,123 37,118 33,115 38,115" fill="#0d652d" opacity="0.2"/>
  <polygon points="160,108 162,113 167,113 163,116 164,121 160,118 156,121 157,116 153,113 158,113" fill="#0d652d" opacity="0.2"/>
</svg>