<svg xmlns="http://www.w3.org/2000/svg" viewBox="0 0 200 150" width="200" height="150">
  <rect width="200" height="150" rx="8" fill="#e6f4ea"/>
  <!-- Ground / park area -->
  <ellipse cx="100" cy="130" rx="80" ry="12" fill="#b8e6c8" opacity="0.5"/>
  <!-- Main tree trunk -->
  <rect x="58" y="80" width="8" height="40" rx="2" fill="#0d652d"/>
  <!-- Main tree canopy layers -->
  <circle cx="62" cy="60" r="24" fill="#1a8a3e"/>
  <circle cx="50" cy="68" r="16" fill="#0d652d" opacity="0.8"/>
  <circle cx="74" cy="66" r="18" fill="#0d652d" opacity="0.7"/>
  <circle cx="62" cy="48" r="16" fill="#1a8a3e"/>
  <!-- Small bush left -->
  <ellipse cx="30" cy="125" rx="12" ry="8" fill="#1a8a3e" opacity="0.7"/>
  <ellipse cx="25" cy="127" rx="8" ry="6" fill="#0d652d" opacity="0.6"/>
  <!-- Park path (curved) -->
  <path d="M95,140 Q110,115 130,110 Q150,105 170,95" fill="none" stroke="#0d652d" stroke-width="2.5" stroke-linecap="round" opacity="0.5"/>
  <path d="M100,140 Q115,118 135,113 Q155,108 175,98" fill="none" stroke="#0d652d" stroke-width="2.5" stroke-linecap="round" opacity="0.5"/>
  <!-- Garden plot grid -->
  <rect x="115" y="45" width="50" height="40" rx="2" fill="none" stroke="#0d652d" stroke-width="1.5"/>
  <line x1="115" y1="58" x2="165" y2="58" stroke="#0d652d" stroke-width="1"/>
  <line x1="115" y1="71" x2="165" y2="71" stroke="#0d652d" stroke-width="1"/>
  <line x1="132" y1="45" x2="132" y2="85" stroke="#0d652d" stroke-width="1"/>
  <line x1="148" y1="45" x2="148" y2="85" stroke="#0d652d" stroke-width="1"/>
  <!-- Small trees/plants in garden grid -->
  <circle cx="123" cy="51" r="4" fill="#1a8a3e" opacity="0.7"/>
  <circle cx="140" cy="64" r="4" fill="#1a8a3e" opacity="0.6"/>
  <circle cx="156" cy="51" r="4" fill="#0d652d" opacity="0.5"/>
  <circle cx="123" cy="77" r="4" fill="#0d652d" opacity="0.5"/>
  <circle cx="156" cy="77" r="3" fill="#1a8a3e" opacity="0.7"/>
  <circle cx="140" cy="51" r="3" fill="#1a8a3e" opacity="0.5"/>
  <!-- Small flower/shrub right -->
  <ellipse cx="155" cy="120" rx="10" ry="7" fill="#1a8a3e" opacity="0.6"/>
  <!-- Bench -->
  <rect x="90" y="95" width="20" height="3" rx="1" fill="#0d652d"/>
  <rect x="92" y="98" width="2" height="6" fill="#0d652d"/>
  <rect x="106" y="98" width="2" height="6" fill="#0d652d"/>
  <rect x="89" y="90" width="2" height="8" rx="0.5" fill="#0d652d"/>
  <rect x="109" y="90" width="2" height="8" rx="0.5" fill="#0d652d"/>
</svg>