<svg xmlns="http://www.w3.org/2000/svg" width="200" height="150" viewBox="0 0 200 150">
  <rect width="200" height="150" rx="12" ry="12" fill="#e6f4ea"/>
  <!-- Green building -->
  <rect x="60" y="40" width="80" height="80" rx="3" fill="#0d652d" opacity="0.8"/>
  <!-- Windows -->
  <rect x="72" y="52" width="14" height="12" rx="1" fill="#e6f4ea"/>
  <rect x="93" y="52" width="14" height="12" rx="1" fill="#e6f4ea"/>
  <rect x="114" y="52" width="14" height="12" rx="1" fill="#e6f4ea"/>
  <rect x="72" y="72" width="14" height="12" rx="1" fill="#e6f4ea"/>
  <rect x="93" y="72" width="14" height="12" rx="1" fill="#e6f4ea"/>
  <rect x="114" y="72" width="14" height="12" rx="1" fill="#e6f4ea"/>
  <!-- Door -->
  <rect x="90" y="98" width="20" height="22" rx="2" fill="#e6f4ea"/>
  <!-- Solar panels on roof -->
  <rect x="62" y="28" width="22" height="14" rx="1" fill="#0d652d"/>
  <line x1="62" y1="32" x2="84" y2="32" stroke="#e6f4ea" stroke-width="0.8"/>
  <line x1="62" y1="36" x2="84" y2="36" stroke="#e6f4ea" stroke-width="0.8"/>
  <line x1="69" y1="28" x2="69" y2="42" stroke="#e6f4ea" stroke-width="0.8"/>
  <line x1="77" y1="28" x2="77" y2="42" stroke="#e6f4ea" stroke-width="0.8"/>
  <rect x="88" y="28" width="22" height="14" rx="1" fill="#0d652d"/>
  <line x1="88" y1="32" x2="110" y2="32" stroke="#e6f4ea" stroke-width="0.8"/>
  <line x1="88" y1="36" x2="110" y2="36" stroke="#e6f4ea" stroke-width="0.8"/>
  <line x1="95" y1="28" x2="95" y2="42" stroke="#e6f4ea" stroke-width="0.8"/>
  <line x1="103" y1="28" x2="103" y2="42" stroke="#e6f4ea" stroke-width="0.8"/>
  <!-- Left tree -->
  <rect x="28" y="90" width="6" height="30" fill="#0d652d" opacity="0.6"/>
  <circle cx="31" cy="78" r="16" fill="#0d652d" opacity="0.5"/>
  <circle cx="25" cy="85" r="10" fill="#0d652d" opacity="0.4"/>
  <circle cx="38" cy="83" r="11" fill="#0d652d" opacity="0.45"/>
  <!-- Right tree -->
  <rect x="163" y="90" width="6" height="30" fill="#0d652d" opacity="0.6"/>
  <circle cx="166" cy="78" r="16" fill="#0d652d" opacity="0.5"/>
  <circle cx="160" cy="85" r="10" fill="#0d652d" opacity="0.4"/>
  <circle cx="173" cy="83" r="11" fill="#0d652d" opacity="0.45"/>
  <!-- Ground -->
  <line x1="15" y1="120" x2="185" y2="120" stroke="#0d652d" stroke-width="2"/>
</svg>