<svg xmlns="http://www.w3.org/2000/svg" viewBox="0 0 200 150" width="200" height="150">
  <rect width="200" height="150" rx="8" fill="#e6f4ea"/>
  <!-- Ground line -->
  <line x1="10" y1="132" x2="190" y2="132" stroke="#0d652d" stroke-width="2" opacity="0.3"/>
  <!-- Building 1 - tall left -->
  <rect x="20" y="40" width="30" height="92" rx="2" fill="#0d652d" opacity="0.3" stroke="#0d652d" stroke-width="1.5"/>
  <rect x="25" y="48" width="8" height="8" rx="1" fill="#e6f4ea" opacity="0.8"/>
  <rect x="37" y="48" width="8" height="8" rx="1" fill="#e6f4ea" opacity="0.8"/>
  <rect x="25" y="62" width="8" height="8" rx="1" fill="#e6f4ea" opacity="0.8"/>
  <rect x="37" y="62" width="8" height="8" rx="1" fill="#e6f4ea" opacity="0.8"/>
  <rect x="25" y="76" width="8" height="8" rx="1" fill="#e6f4ea" opacity="0.8"/>
  <rect x="37" y="76" width="8" height="8" rx="1" fill="#e6f4ea" opacity="0.8"/>
  <rect x="25" y="90" width="8" height="8" rx="1" fill="#e6f4ea" opacity="0.8"/>
  <rect x="37" y="90" width="8" height="8" rx="1" fill="#e6f4ea" opacity="0.8"/>
  <rect x="25" y="104" width="8" height="8" rx="1" fill="#e6f4ea" opacity="0.8"/>
  <rect x="37" y="104" width="8" height="8" rx="1" fill="#e6f4ea" opacity="0.8"/>
  <!-- Building 2 - medium center-left -->
  <rect x="56" y="60" width="28" height="72" rx="2" fill="#0d652d" opacity="0.25" stroke="#0d652d" stroke-width="1.5"/>
  <rect x="61" y="68" width="7" height="7" rx="1" fill="#e6f4ea" opacity="0.8"/>
  <rect x="72" y="68" width="7" height="7" rx="1" fill="#e6f4ea" opacity="0.8"/>
  <rect x="61" y="82" width="7" height="7" rx="1" fill="#e6f4ea" opacity="0.8"/>
  <rect x="72" y="82" width="7" height="7" rx="1" fill="#e6f4ea" opacity="0.8"/>
  <rect x="61" y="96" width="7" height="7" rx="1" fill="#e6f4ea" opacity="0.8"/>
  <rect x="72" y="96" width="7" height="7" rx="1" fill="#e6f4ea" opacity="0.8"/>
  <rect x="65" y="114" width="10" height="18" rx="1" fill="#e6f4ea" opacity="0.7"/>
  <!-- Building 3 - tallest center -->
  <rect x="90" y="20" width="34" height="112" rx="2" fill="#0d652d" opacity="0.35" stroke="#0d652d" stroke-width="1.5"/>
  <rect x="96" y="28" width="8" height="8" rx="1" fill="#e6f4ea" opacity="0.8"/>
  <rect x="110" y="28" width="8" height="8" rx="1" fill="#e6f4ea" opacity="0.8"/>
  <rect x="96" y="42" width="8" height="8" rx="1" fill="#e6f4ea" opacity="0.8"/>
  <rect x="110" y="42" width="8" height="8" rx="1" fill="#e6f4ea" opacity="0.8"/>
  <rect x="96" y="56" width="8" height="8" rx="1" fill="#e6f4ea" opacity="0.8"/>
  <rect x="110" y="56" width="8" height="8" rx="1" fill="#e6f4ea" opacity="0.8"/>
  <rect x="96" y="70" width="8" height="8" rx="1" fill="#e6f4ea" opacity="0.8"/>
  <rect x="110" y="70" width="8" height="8" rx="1" fill="#e6f4ea" opacity="0.8"/>
  <rect x="96" y="84" width="8" height="8" rx="1" fill="#e6f4ea" opacity="0.8"/>
  <rect x="110" y="84" width="8" height="8" rx="1" fill="#e6f4ea" opacity="0.8"/>
  <rect x="96" y="98" width="8" height="8" rx="1" fill="#e6f4ea" opacity="0.8"/>
  <rect x="110" y="98" width="8" height="8" rx="1" fill="#e6f4ea" opacity="0.8"/>
  <rect x="102" y="114" width="12" height="18" rx="1" fill="#e6f4ea" opacity="0.7"/>
  <!-- Antenna on tallest building -->
  <line x1="107" y1="10" x2="107" y2="20" stroke="#0d652d" stroke-width="2" opacity="0.5"/>
  <circle cx="107" cy="10" r="2" fill="#0d652d" opacity="0.4"/>
  <!-- Building 4 - short right -->
  <rect x="130" y="80" width="24" height="52" rx="2" fill="#0d652d" opacity="0.2" stroke="#0d652d" stroke-width="1.5"/>
  <rect x="135" y="88" width="6" height="6" rx="1" fill="#e6f4ea" opacity="0.8"/>
  <rect x="143" y="88" width="6" height="6" rx="1" fill="#e6f4ea" opacity="0.8"/>
  <rect x="135" y="100" width="6" height="6" rx="1" fill="#e6f4ea" opacity="0.8"/>
  <rect x="143" y="100" width="6" height="6" rx="1" fill="#e6f4ea" opacity="0.8"/>
  <!-- Building 5 - medium right -->
  <rect x="160" y="55" width="26" height="77" rx="2" fill="#0d652d" opacity="0.28" stroke="#0d652d" stroke-width="1.5"/>
  <rect x="165" y="63" width="7" height="7" rx="1" fill="#e6f4ea" opacity="0.8"/>
  <rect x="174" y="63" width="7" height="7" rx="1" fill="#e6f4ea" opacity="0.8"/>
  <rect x="165" y="77" width="7" height="7" rx="1" fill="#e6f4ea" opacity="0.8"/>
  <rect x="174" y="77" width="7" height="7" rx="1" fill="#e6f4ea" opacity="0.8"/>
  <rect x="165" y="91" width="7" height="7" rx="1" fill="#e6f4ea" opacity="0.8"/>
  <rect x="174" y="91" width="7" height="7" rx="1" fill="#e6f4ea" opacity="0.8"/>
  <rect x="169" y="114" width="10" height="18" rx="1" fill="#e6f4ea" opacity="0.7"/>
  <!-- Sparkle accents (new) -->
  <polygon points="45,22 46,26 50,27 46,28 45,32 44,28 40,27 44,26" fill="#0d652d" opacity="0.4"/>
  <polygon points="155,42 156,45 159,46 156,47 155,50 154,47 151,46 154,45" fill="#0d652d" opacity="0.3"/>
  <polygon points="82,16 83,19 86,20 83,21 82,24 81,21 78,20 81,19" fill="#0d652d" opacity="0.35"/>
</svg>
