<svg xmlns="http://www.w3.org/2000/svg" width="200" height="150" viewBox="0 0 200 150">
  <rect width="200" height="150" rx="12" ry="12" fill="#e6f4ea"/>
  <!-- Frozen crane tower -->
  <rect x="85" y="25" width="8" height="95" fill="#0d652d" opacity="0.5"/>
  <!-- Crane jib -->
  <rect x="55" y="25" width="90" height="5" fill="#0d652d" opacity="0.5"/>
  <!-- Crane cabin -->
  <rect x="80" y="32" width="18" height="14" rx="2" fill="#0d652d" opacity="0.5"/>
  <rect x="83" y="35" width="12" height="7" rx="1" fill="#e6f4ea" opacity="0.5"/>
  <!-- Hook cable -->
  <line x1="120" y1="30" x2="120" y2="60" stroke="#0d652d" stroke-width="1.5" opacity="0.4"/>
  <path d="M 117 58 L 123 58 L 123 64 Q 120 68 117 64 Z" fill="#0d652d" opacity="0.4"/>
  <!-- Base -->
  <rect x="72" y="115" width="34" height="8" rx="2" fill="#0d652d" opacity="0.4"/>
  <!-- Icicles hanging from jib -->
  <polygon points="65,30 63,42 67,42" fill="#0d652d" opacity="0.3"/>
  <polygon points="80,30 78,40 82,40" fill="#0d652d" opacity="0.3"/>
  <polygon points="105,30 103,44 107,44" fill="#0d652d" opacity="0.3"/>
  <polygon points="125,30 123,38 127,38" fill="#0d652d" opacity="0.3"/>
  <polygon points="140,30 138,40 142,40" fill="#0d652d" opacity="0.3"/>
  <!-- Snowflakes -->
  <!-- Snowflake 1 -->
  <line x1="35" y1="30" x2="35" y2="48" stroke="#0d652d" stroke-width="1.5" opacity="0.35"/>
  <line x1="26" y1="39" x2="44" y2="39" stroke="#0d652d" stroke-width="1.5" opacity="0.35"/>
  <line x1="29" y1="33" x2="41" y2="45" stroke="#0d652d" stroke-width="1.5" opacity="0.35"/>
  <line x1="41" y1="33" x2="29" y2="45" stroke="#0d652d" stroke-width="1.5" opacity="0.35"/>
  <!-- Snowflake 2 -->
  <line x1="160" y1="50" x2="160" y2="64" stroke="#0d652d" stroke-width="1.5" opacity="0.3"/>
  <line x1="153" y1="57" x2="167" y2="57" stroke="#0d652d" stroke-width="1.5" opacity="0.3"/>
  <line x1="155" y1="52" x2="165" y2="62" stroke="#0d652d" stroke-width="1.5" opacity="0.3"/>
  <line x1="165" y1="52" x2="155" y2="62" stroke="#0d652d" stroke-width="1.5" opacity="0.3"/>
  <!-- Snowflake 3 -->
  <line x1="45" y1="75" x2="45" y2="89" stroke="#0d652d" stroke-width="1.5" opacity="0.25"/>
  <line x1="38" y1="82" x2="52" y2="82" stroke="#0d652d" stroke-width="1.5" opacity="0.25"/>
  <line x1="40" y1="77" x2="50" y2="87" stroke="#0d652d" stroke-width="1.5" opacity="0.25"/>
  <line x1="50" y1="77" x2="40" y2="87" stroke="#0d652d" stroke-width="1.5" opacity="0.25"/>
  <!-- Snowflake 4 (small) -->
  <line x1="165" y1="90" x2="165" y2="100" stroke="#0d652d" stroke-width="1" opacity="0.2"/>
  <line x1="160" y1="95" x2="170" y2="95" stroke="#0d652d" stroke-width="1" opacity="0.2"/>
  <line x1="162" y1="92" x2="168" y2="98" stroke="#0d652d" stroke-width="1" opacity="0.2"/>
  <line x1="168" y1="92" x2="162" y2="98" stroke="#0d652d" stroke-width="1" opacity="0.2"/>
  <!-- Snowflake 5 -->
  <line x1="30" y1="105" x2="30" y2="115" stroke="#0d652d" stroke-width="1" opacity="0.2"/>
  <line x1="25" y1="110" x2="35" y2="110" stroke="#0d652d" stroke-width="1" opacity="0.2"/>
  <!-- Frost on crane surface -->
  <line x1="85" y1="50" x2="93" y2="50" stroke="#e6f4ea" stroke-width="2" opacity="0.5"/>
  <line x1="85" y1="70" x2="93" y2="70" stroke="#e6f4ea" stroke-width="2" opacity="0.5"/>
  <line x1="85" y1="90" x2="93" y2="90" stroke="#e6f4ea" stroke-width="2" opacity="0.5"/>
  <!-- Ground -->
  <line x1="15" y1="123" x2="185" y2="123" stroke="#0d652d" stroke-width="2"/>
  <!-- Snow on ground -->
  <ellipse cx="50" cy="123" rx="25" ry="5" fill="#0d652d" opacity="0.08"/>
  <ellipse cx="150" cy="123" rx="30" ry="5" fill="#0d652d" opacity="0.08"/>
</svg>