<svg xmlns="http://www.w3.org/2000/svg" width="200" height="150" viewBox="0 0 200 150">
  <rect width="200" height="150" rx="12" ry="12" fill="#e6f4ea"/>
  <!-- Crane tower -->
  <rect x="55" y="15" width="8" height="110" fill="#0d652d" opacity="0.7"/>
  <!-- Crane jib (horizontal arm) -->
  <rect x="30" y="15" width="130" height="6" fill="#0d652d"/>
  <!-- Counter jib -->
  <rect x="15" y="15" width="40" height="6" fill="#0d652d" opacity="0.8"/>
  <!-- Counterweight -->
  <rect x="18" y="21" width="15" height="10" fill="#0d652d"/>
  <!-- Operator cabin -->
  <rect x="50" y="25" width="20" height="18" rx="2" fill="#0d652d"/>
  <rect x="53" y="28" width="14" height="8" rx="1" fill="#e6f4ea"/>
  <!-- Controls inside cabin -->
  <circle cx="56" cy="39" r="2" fill="#e6f4ea"/>
  <circle cx="62" cy="39" r="2" fill="#e6f4ea"/>
  <!-- Hook cable -->
  <line x1="130" y1="21" x2="130" y2="70" stroke="#0d652d" stroke-width="1.5"/>
  <!-- Hook -->
  <path d="M 126 70 L 134 70 L 134 76 Q 130 82 126 76 Z" fill="#0d652d"/>
  <!-- Lattice pattern on tower -->
  <line x1="55" y1="50" x2="63" y2="65" stroke="#e6f4ea" stroke-width="1"/>
  <line x1="63" y1="50" x2="55" y2="65" stroke="#e6f4ea" stroke-width="1"/>
  <line x1="55" y1="70" x2="63" y2="85" stroke="#e6f4ea" stroke-width="1"/>
  <line x1="63" y1="70" x2="55" y2="85" stroke="#e6f4ea" stroke-width="1"/>
  <line x1="55" y1="90" x2="63" y2="105" stroke="#e6f4ea" stroke-width="1"/>
  <line x1="63" y1="90" x2="55" y2="105" stroke="#e6f4ea" stroke-width="1"/>
  <!-- Support cables -->
  <line x1="63" y1="25" x2="155" y2="15" stroke="#0d652d" stroke-width="1"/>
  <line x1="55" y1="25" x2="20" y2="15" stroke="#0d652d" stroke-width="1"/>
  <!-- Base -->
  <rect x="40" y="120" width="38" height="8" rx="2" fill="#0d652d"/>
  <!-- Ground -->
  <line x1="15" y1="128" x2="185" y2="128" stroke="#0d652d" stroke-width="2"/>
</svg>