<svg xmlns="http://www.w3.org/2000/svg" width="200" height="150" viewBox="0 0 200 150">
  <rect width="200" height="150" rx="12" ry="12" fill="#e6f4ea"/>
  <!-- Map background -->
  <rect x="25" y="15" width="150" height="120" rx="4" fill="none" stroke="#0d652d" stroke-width="2"/>
  <!-- Topographic lines -->
  <ellipse cx="90" cy="65" rx="55" ry="40" fill="none" stroke="#0d652d" stroke-width="1" opacity="0.3"/>
  <ellipse cx="90" cy="65" rx="42" ry="30" fill="none" stroke="#0d652d" stroke-width="1" opacity="0.4"/>
  <ellipse cx="90" cy="65" rx="28" ry="20" fill="none" stroke="#0d652d" stroke-width="1" opacity="0.5"/>
  <ellipse cx="90" cy="65" rx="14" ry="10" fill="none" stroke="#0d652d" stroke-width="1" opacity="0.6"/>
  <!-- River path -->
  <path d="M 30 30 Q 50 50 45 75 Q 40 100 55 125" fill="none" stroke="#0d652d" stroke-width="2" opacity="0.4"/>
  <!-- Compass rose -->
  <circle cx="155" cy="35" r="15" fill="#e6f4ea" stroke="#0d652d" stroke-width="1.5"/>
  <!-- Compass needle N -->
  <polygon points="155,22 151,38 155,33 159,38" fill="#0d652d"/>
  <!-- Compass needle S -->
  <polygon points="155,48 151,32 155,37 159,32" fill="#0d652d" opacity="0.3"/>
  <!-- Compass E/W ticks -->
  <line x1="142" y1="35" x2="147" y2="35" stroke="#0d652d" stroke-width="1.5"/>
  <line x1="163" y1="35" x2="168" y2="35" stroke="#0d652d" stroke-width="1.5"/>
  <!-- Grid lines -->
  <line x1="25" y1="45" x2="175" y2="45" stroke="#0d652d" stroke-width="0.5" opacity="0.15"/>
  <line x1="25" y1="75" x2="175" y2="75" stroke="#0d652d" stroke-width="0.5" opacity="0.15"/>
  <line x1="25" y1="105" x2="175" y2="105" stroke="#0d652d" stroke-width="0.5" opacity="0.15"/>
  <line x1="55" y1="15" x2="55" y2="135" stroke="#0d652d" stroke-width="0.5" opacity="0.15"/>
  <line x1="100" y1="15" x2="100" y2="135" stroke="#0d652d" stroke-width="0.5" opacity="0.15"/>
  <line x1="145" y1="15" x2="145" y2="135" stroke="#0d652d" stroke-width="0.5" opacity="0.15"/>
</svg>