<svg xmlns="http://www.w3.org/2000/svg" width="200" height="150" viewBox="0 0 200 150">
  <rect width="200" height="150" rx="12" ry="12" fill="#e6f4ea"/>
  <!-- Scaffolding structure -->
  <!-- Vertical poles -->
  <line x1="45" y1="15" x2="45" y2="130" stroke="#0d652d" stroke-width="3"/>
  <line x1="95" y1="15" x2="95" y2="130" stroke="#0d652d" stroke-width="3"/>
  <line x1="145" y1="15" x2="145" y2="130" stroke="#0d652d" stroke-width="3"/>
  <!-- Horizontal platforms -->
  <rect x="42" y="28" width="106" height="4" rx="1" fill="#0d652d" opacity="0.7"/>
  <rect x="42" y="58" width="106" height="4" rx="1" fill="#0d652d" opacity="0.7"/>
  <rect x="42" y="88" width="106" height="4" rx="1" fill="#0d652d" opacity="0.7"/>
  <rect x="42" y="118" width="106" height="4" rx="1" fill="#0d652d" opacity="0.7"/>
  <!-- Cross braces left section -->
  <line x1="45" y1="32" x2="95" y2="58" stroke="#0d652d" stroke-width="1.5" opacity="0.5"/>
  <line x1="95" y1="32" x2="45" y2="58" stroke="#0d652d" stroke-width="1.5" opacity="0.5"/>
  <line x1="45" y1="62" x2="95" y2="88" stroke="#0d652d" stroke-width="1.5" opacity="0.5"/>
  <line x1="95" y1="62" x2="45" y2="88" stroke="#0d652d" stroke-width="1.5" opacity="0.5"/>
  <line x1="45" y1="92" x2="95" y2="118" stroke="#0d652d" stroke-width="1.5" opacity="0.5"/>
  <line x1="95" y1="92" x2="45" y2="118" stroke="#0d652d" stroke-width="1.5" opacity="0.5"/>
  <!-- Cross braces right section -->
  <line x1="95" y1="32" x2="145" y2="58" stroke="#0d652d" stroke-width="1.5" opacity="0.5"/>
  <line x1="145" y1="32" x2="95" y2="58" stroke="#0d652d" stroke-width="1.5" opacity="0.5"/>
  <line x1="95" y1="62" x2="145" y2="88" stroke="#0d652d" stroke-width="1.5" opacity="0.5"/>
  <line x1="145" y1="62" x2="95" y2="88" stroke="#0d652d" stroke-width="1.5" opacity="0.5"/>
  <line x1="95" y1="92" x2="145" y2="118" stroke="#0d652d" stroke-width="1.5" opacity="0.5"/>
  <line x1="145" y1="92" x2="95" y2="118" stroke="#0d652d" stroke-width="1.5" opacity="0.5"/>
  <!-- Base plates -->
  <rect x="38" y="128" width="14" height="4" rx="1" fill="#0d652d"/>
  <rect x="88" y="128" width="14" height="4" rx="1" fill="#0d652d"/>
  <rect x="138" y="128" width="14" height="4" rx="1" fill="#0d652d"/>
  <!-- Joint connectors -->
  <circle cx="45" cy="30" r="3" fill="#0d652d"/>
  <circle cx="95" cy="30" r="3" fill="#0d652d"/>
  <circle cx="145" cy="30" r="3" fill="#0d652d"/>
  <circle cx="45" cy="60" r="3" fill="#0d652d"/>
  <circle cx="95" cy="60" r="3" fill="#0d652d"/>
  <circle cx="145" cy="60" r="3" fill="#0d652d"/>
  <circle cx="45" cy="90" r="3" fill="#0d652d"/>
  <circle cx="95" cy="90" r="3" fill="#0d652d"/>
  <circle cx="145" cy="90" r="3" fill="#0d652d"/>
  <!-- Ground -->
  <line x1="15" y1="132" x2="185" y2="132" stroke="#0d652d" stroke-width="2"/>
</svg>